<?xml version="1.0" encoding="utf-8" standalone="no"?>
<!DOCTYPE svg PUBLIC "-//W3C//DTD SVG 1.1//EN"
  "http://www.w3.org/Graphics/SVG/1.1/DTD/svg11.dtd">
<svg xmlns:xlink="http://www.w3.org/1999/xlink" width="720pt" height="288pt" viewBox="0 0 720 288" xmlns="http://www.w3.org/2000/svg" version="1.1">
 <metadata>
  <rdf:RDF xmlns:dc="http://purl.org/dc/elements/1.1/" xmlns:cc="http://creativecommons.org/ns#" xmlns:rdf="http://www.w3.org/1999/02/22-rdf-syntax-ns#">
   <cc:Work>
    <dc:type rdf:resource="http://purl.org/dc/dcmitype/StillImage"/>
    <dc:date>2023-03-22T00:41:11.947796</dc:date>
    <dc:format>image/svg+xml</dc:format>
    <dc:creator>
     <cc:Agent>
      <dc:title>Matplotlib v3.5.1, https://matplotlib.org/</dc:title>
     </cc:Agent>
    </dc:creator>
   </cc:Work>
  </rdf:RDF>
 </metadata>
 <defs>
  <style type="text/css">*{stroke-linejoin: round; stroke-linecap: butt}</style>
 </defs>
 <g id="figure_1">
  <g id="patch_1">
   <path d="M 0 288 
L 720 288 
L 720 0 
L 0 0 
z
" style="fill: #ffffff"/>
  </g>
  <g id="axes_1">
   <g id="patch_2">
    <path d="M 48.62 234.376 
L 357.39 234.376 
L 357.39 25.49625 
L 48.62 25.49625 
z
" style="fill: #ffffff"/>
   </g>
   <g id="PolyCollection_1">
    <path d="M 81.850504 207.803653 
L 74.648385 207.803653 
L 74.381316 207.774971 
L 74.109399 207.746308 
L 73.833964 207.717662 
L 73.556439 207.689035 
L 73.278337 207.660426 
L 73.001237 207.631835 
L 72.726756 207.603261 
L 72.456516 207.574706 
L 72.192102 207.546169 
L 71.93502 207.51765 
L 71.686637 207.489148 
L 71.448137 207.460665 
L 71.220461 207.432199 
L 71.004255 207.403751 
L 70.799828 207.375322 
L 70.60711 207.346909 
L 70.425626 207.318515 
L 70.254488 207.290139 
L 70.092388 207.26178 
L 69.937626 207.233439 
L 69.788135 207.205115 
L 69.641537 207.176809 
L 69.495207 207.148521 
L 69.346343 207.120251 
L 69.19206 207.091998 
L 69.029478 207.063763 
L 68.855818 207.035545 
L 68.668502 207.007345 
L 68.465248 206.979162 
L 68.244162 206.950997 
L 68.003825 206.92285 
L 67.743368 206.89472 
L 67.462548 206.866607 
L 67.161798 206.838511 
L 66.842277 206.810433 
L 66.505899 206.782373 
L 66.155353 206.75433 
L 65.794095 206.726304 
L 65.426329 206.698295 
L 65.056965 206.670304 
L 64.691547 206.64233 
L 64.336168 206.614373 
L 63.997351 206.586434 
L 63.681911 206.558511 
L 63.396794 206.530606 
L 63.148898 206.502718 
L 62.944883 206.474847 
L 62.790972 206.446993 
L 62.692756 206.419157 
L 62.655 206.391337 
L 62.681475 206.363534 
L 62.77481 206.335749 
L 62.936377 206.30798 
L 63.166212 206.280229 
L 63.462986 206.252494 
L 63.824012 206.224777 
L 64.245306 206.197076 
L 64.721683 206.169392 
L 65.246904 206.141725 
L 65.813844 206.114075 
L 66.414697 206.086442 
L 67.041198 206.058826 
L 67.684845 206.031226 
L 68.337132 206.003643 
L 68.98977 205.976077 
L 69.634885 205.948528 
L 70.265203 205.920995 
L 70.874195 205.89348 
L 71.456201 205.86598 
L 72.006505 205.838498 
L 72.521389 205.811032 
L 72.998142 205.783583 
L 73.435038 205.75615 
L 73.831296 205.728734 
L 74.186999 205.701335 
L 74.503007 205.673952 
L 74.780852 205.646585 
L 75.022622 205.619235 
L 75.230846 205.591902 
L 75.408377 205.564585 
L 75.558283 205.537284 
L 75.683743 205.51 
L 75.787962 205.482733 
L 75.874093 205.455481 
L 75.94517 205.428246 
L 76.004065 205.401028 
L 76.053449 205.373825 
L 76.095771 205.346639 
L 76.133241 205.31947 
L 76.167827 205.292316 
L 76.201254 205.265179 
L 76.23501 205.238058 
L 76.270355 205.210953 
L 76.308328 205.183865 
L 76.349757 205.156792 
L 76.395269 205.129736 
L 76.445297 205.102696 
L 76.500092 205.075672 
L 76.559728 205.048664 
L 79.939161 205.048664 
L 79.939161 205.048664 
L 79.998797 205.075672 
L 80.053592 205.102696 
L 80.10362 205.129736 
L 80.149132 205.156792 
L 80.190561 205.183865 
L 80.228534 205.210953 
L 80.263879 205.238058 
L 80.297635 205.265179 
L 80.331062 205.292316 
L 80.365647 205.31947 
L 80.403117 205.346639 
L 80.44544 205.373825 
L 80.494824 205.401028 
L 80.553719 205.428246 
L 80.624796 205.455481 
L 80.710926 205.482733 
L 80.815146 205.51 
L 80.940606 205.537284 
L 81.090511 205.564585 
L 81.268042 205.591902 
L 81.476267 205.619235 
L 81.718037 205.646585 
L 81.995882 205.673952 
L 82.31189 205.701335 
L 82.667593 205.728734 
L 83.063851 205.75615 
L 83.500747 205.783583 
L 83.977499 205.811032 
L 84.492384 205.838498 
L 85.042688 205.86598 
L 85.624694 205.89348 
L 86.233686 205.920995 
L 86.864004 205.948528 
L 87.509119 205.976077 
L 88.161757 206.003643 
L 88.814044 206.031226 
L 89.457691 206.058826 
L 90.084192 206.086442 
L 90.685045 206.114075 
L 91.251985 206.141725 
L 91.777205 206.169392 
L 92.253583 206.197076 
L 92.674877 206.224777 
L 93.035903 206.252494 
L 93.332677 206.280229 
L 93.562512 206.30798 
L 93.724079 206.335749 
L 93.817414 206.363534 
L 93.843889 206.391337 
L 93.806133 206.419157 
L 93.707917 206.446993 
L 93.554006 206.474847 
L 93.349991 206.502718 
L 93.102095 206.530606 
L 92.816978 206.558511 
L 92.501538 206.586434 
L 92.162721 206.614373 
L 91.807342 206.64233 
L 91.441924 206.670304 
L 91.07256 206.698295 
L 90.704794 206.726304 
L 90.343536 206.75433 
L 89.992989 206.782373 
L 89.656612 206.810433 
L 89.337091 206.838511 
L 89.036341 206.866607 
L 88.75552 206.89472 
L 88.495064 206.92285 
L 88.254727 206.950997 
L 88.033641 206.979162 
L 87.830387 207.007345 
L 87.643071 207.035545 
L 87.469411 207.063763 
L 87.306829 207.091998 
L 87.152546 207.120251 
L 87.003682 207.148521 
L 86.857352 207.176809 
L 86.710754 207.205115 
L 86.561263 207.233439 
L 86.4065 207.26178 
L 86.244401 207.290139 
L 86.073263 207.318515 
L 85.891779 207.346909 
L 85.699061 207.375322 
L 85.494633 207.403751 
L 85.278428 207.432199 
L 85.050751 207.460665 
L 84.812252 207.489148 
L 84.563869 207.51765 
L 84.306786 207.546169 
L 84.042373 207.574706 
L 83.772133 207.603261 
L 83.497652 207.631835 
L 83.220552 207.660426 
L 82.94245 207.689035 
L 82.664925 207.717662 
L 82.38949 207.746308 
L 82.117573 207.774971 
L 81.850504 207.803653 
z
" clip-path="url(#p027e1b69e2)" style="fill: #1f77b4; fill-opacity: 0.3"/>
   </g>
   <g id="PolyCollection_2">
    <path d="M 145.609178 198.417977 
L 135.645267 198.417977 
L 135.3578 198.389889 
L 135.072245 198.361818 
L 134.789027 198.333764 
L 134.508295 198.305728 
L 134.229917 198.277709 
L 133.953489 198.249707 
L 133.678352 198.221723 
L 133.40362 198.193756 
L 133.128215 198.165806 
L 132.850909 198.137873 
L 132.570378 198.109958 
L 132.285255 198.082059 
L 131.994191 198.054178 
L 131.695918 198.026314 
L 131.389318 197.998467 
L 131.073488 197.970637 
L 130.747807 197.942825 
L 130.411999 197.915029 
L 130.066194 197.88725 
L 129.710976 197.859489 
L 129.347431 197.831744 
L 128.977175 197.804016 
L 128.602369 197.776305 
L 128.22572 197.748611 
L 127.85046 197.720934 
L 127.480308 197.693274 
L 127.119409 197.665631 
L 126.772253 197.638004 
L 126.443582 197.610395 
L 126.138269 197.582802 
L 125.861197 197.555226 
L 125.617127 197.527667 
L 125.410553 197.500124 
L 125.245578 197.472598 
L 125.125781 197.445089 
L 125.054108 197.417597 
L 125.032778 197.390121 
L 125.063209 197.362662 
L 125.145976 197.335219 
L 125.280787 197.307793 
L 125.466492 197.280384 
L 125.70112 197.252991 
L 125.981939 197.225614 
L 126.305534 197.198255 
L 126.667911 197.170911 
L 127.064606 197.143585 
L 127.49081 197.116274 
L 127.941491 197.08898 
L 128.41152 197.061703 
L 128.895787 197.034442 
L 129.389312 197.007197 
L 129.887337 196.979968 
L 130.385414 196.952756 
L 130.879463 196.925561 
L 131.365825 196.898381 
L 131.841297 196.871218 
L 132.303141 196.844071 
L 132.749093 196.81694 
L 133.177354 196.789826 
L 133.586565 196.762727 
L 133.975785 196.735645 
L 134.34445 196.708579 
L 134.69234 196.68153 
L 135.019537 196.654496 
L 135.326378 196.627478 
L 135.613418 196.600477 
L 135.881383 196.573492 
L 136.131134 196.546522 
L 136.363626 196.519569 
L 136.579875 196.492631 
L 136.780923 196.46571 
L 136.967809 196.438805 
L 137.141547 196.411915 
L 137.303099 196.385042 
L 137.453365 196.358184 
L 137.593162 196.331342 
L 137.723226 196.304517 
L 137.844204 196.277707 
L 137.95666 196.250913 
L 138.061082 196.224134 
L 138.157896 196.197372 
L 138.247481 196.170625 
L 138.33019 196.143894 
L 138.406367 196.117179 
L 138.476372 196.090479 
L 138.540595 196.063796 
L 138.599478 196.037127 
L 138.653524 196.010475 
L 138.703304 195.983838 
L 138.749461 195.957217 
L 138.792702 195.930612 
L 138.833789 195.904022 
L 138.873522 195.877447 
L 138.912716 195.850889 
L 138.952174 195.824345 
L 138.992666 195.797818 
L 139.034893 195.771305 
L 139.079466 195.744809 
L 139.126879 195.718327 
L 142.127566 195.718327 
L 142.127566 195.718327 
L 142.174979 195.744809 
L 142.219551 195.771305 
L 142.261778 195.797818 
L 142.30227 195.824345 
L 142.341729 195.850889 
L 142.380922 195.877447 
L 142.420655 195.904022 
L 142.461742 195.930612 
L 142.504984 195.957217 
L 142.551141 195.983838 
L 142.600921 196.010475 
L 142.654967 196.037127 
L 142.71385 196.063796 
L 142.778073 196.090479 
L 142.848077 196.117179 
L 142.924254 196.143894 
L 143.006963 196.170625 
L 143.096549 196.197372 
L 143.193363 196.224134 
L 143.297785 196.250913 
L 143.410241 196.277707 
L 143.531219 196.304517 
L 143.661282 196.331342 
L 143.80108 196.358184 
L 143.951345 196.385042 
L 144.112898 196.411915 
L 144.286635 196.438805 
L 144.473522 196.46571 
L 144.674569 196.492631 
L 144.890818 196.519569 
L 145.12331 196.546522 
L 145.373061 196.573492 
L 145.641026 196.600477 
L 145.928066 196.627478 
L 146.234907 196.654496 
L 146.562104 196.68153 
L 146.909995 196.708579 
L 147.27866 196.735645 
L 147.667879 196.762727 
L 148.07709 196.789826 
L 148.505351 196.81694 
L 148.951304 196.844071 
L 149.413148 196.871218 
L 149.888619 196.898381 
L 150.374982 196.925561 
L 150.869031 196.952756 
L 151.367107 196.979968 
L 151.865133 197.007197 
L 152.358657 197.034442 
L 152.842924 197.061703 
L 153.312953 197.08898 
L 153.763635 197.116274 
L 154.189839 197.143585 
L 154.586534 197.170911 
L 154.948911 197.198255 
L 155.272506 197.225614 
L 155.553325 197.252991 
L 155.787953 197.280384 
L 155.973658 197.307793 
L 156.108468 197.335219 
L 156.191235 197.362662 
L 156.221667 197.390121 
L 156.200336 197.417597 
L 156.128663 197.445089 
L 156.008866 197.472598 
L 155.843891 197.500124 
L 155.637318 197.527667 
L 155.393247 197.555226 
L 155.116176 197.582802 
L 154.810863 197.610395 
L 154.482191 197.638004 
L 154.135036 197.665631 
L 153.774136 197.693274 
L 153.403984 197.720934 
L 153.028724 197.748611 
L 152.652075 197.776305 
L 152.277269 197.804016 
L 151.907013 197.831744 
L 151.543469 197.859489 
L 151.188251 197.88725 
L 150.842445 197.915029 
L 150.506637 197.942825 
L 150.180956 197.970637 
L 149.865127 197.998467 
L 149.558527 198.026314 
L 149.260254 198.054178 
L 148.969189 198.082059 
L 148.684066 198.109958 
L 148.403535 198.137873 
L 148.12623 198.165806 
L 147.850824 198.193756 
L 147.576092 198.221723 
L 147.300955 198.249707 
L 147.024527 198.277709 
L 146.746149 198.305728 
L 146.465417 198.333764 
L 146.182199 198.361818 
L 145.896644 198.389889 
L 145.609178 198.417977 
z
" clip-path="url(#p027e1b69e2)" style="fill: #1f77b4; fill-opacity: 0.3"/>
   </g>
   <g id="PolyCollection_3">
    <path d="M 210.16327 134.937324 
L 195.84673 134.937324 
L 195.294194 134.856798 
L 194.730131 134.776415 
L 194.158105 134.696175 
L 193.582024 134.616076 
L 193.006093 134.536118 
L 192.434775 134.456301 
L 191.872718 134.376624 
L 191.324702 134.297087 
L 190.795556 134.217689 
L 190.290084 134.138429 
L 189.812989 134.059308 
L 189.368785 133.980325 
L 188.961722 133.901479 
L 188.595707 133.82277 
L 188.274235 133.744197 
L 188.000325 133.665761 
L 187.776464 133.587459 
L 187.604564 133.509293 
L 187.485932 133.431261 
L 187.421246 133.353363 
L 187.410556 133.275598 
L 187.453282 133.197967 
L 187.548244 133.120468 
L 187.693685 133.043102 
L 187.887321 132.965867 
L 188.126392 132.888763 
L 188.407722 132.811791 
L 188.727789 132.734948 
L 189.082797 132.658236 
L 189.46875 132.581653 
L 189.881528 132.5052 
L 190.316957 132.428875 
L 190.770887 132.352678 
L 191.239249 132.276609 
L 191.718117 132.200667 
L 192.203763 132.124852 
L 192.692692 132.049164 
L 193.181683 131.973602 
L 193.66781 131.898165 
L 194.148457 131.822854 
L 194.621327 131.747668 
L 195.08444 131.672606 
L 195.53612 131.597668 
L 195.974986 131.522854 
L 196.399925 131.448163 
L 196.810071 131.373594 
L 197.204777 131.299148 
L 197.583581 131.224824 
L 197.946181 131.150622 
L 198.292405 131.076541 
L 198.622177 131.00258 
L 198.935498 130.928741 
L 199.23242 130.855021 
L 199.513025 130.78142 
L 199.777409 130.707939 
L 200.025671 130.634577 
L 200.257901 130.561333 
L 200.474179 130.488207 
L 200.674567 130.415199 
L 200.859113 130.342309 
L 201.027853 130.269535 
L 201.180816 130.196878 
L 201.318031 130.124337 
L 201.439536 130.051912 
L 201.545385 129.979602 
L 201.63566 129.907408 
L 201.710479 129.835328 
L 201.770007 129.763362 
L 201.814467 129.691511 
L 201.844146 129.619773 
L 201.859408 129.548148 
L 201.860697 129.476637 
L 201.84855 129.405238 
L 201.823598 129.333951 
L 201.786572 129.262776 
L 201.738305 129.191712 
L 201.679736 129.12076 
L 201.611905 129.049919 
L 201.535951 128.979188 
L 201.45311 128.908567 
L 201.3647 128.838056 
L 201.272117 128.767654 
L 201.176819 128.697361 
L 201.080308 128.627178 
L 200.984117 128.557102 
L 200.889785 128.487135 
L 200.798837 128.417276 
L 200.712761 128.347524 
L 200.632985 128.277879 
L 200.560849 128.20834 
L 200.497587 128.138909 
L 200.444298 128.069583 
L 200.401933 128.000363 
L 200.371269 127.931249 
L 200.352901 127.86224 
L 200.347228 127.793335 
L 200.354444 127.724535 
L 200.374541 127.65584 
L 200.407306 127.587248 
L 205.602694 127.587248 
L 205.602694 127.587248 
L 205.635459 127.65584 
L 205.655556 127.724535 
L 205.662772 127.793335 
L 205.657099 127.86224 
L 205.638731 127.931249 
L 205.608067 128.000363 
L 205.565702 128.069583 
L 205.512413 128.138909 
L 205.449151 128.20834 
L 205.377015 128.277879 
L 205.297239 128.347524 
L 205.211163 128.417276 
L 205.120215 128.487135 
L 205.025883 128.557102 
L 204.929692 128.627178 
L 204.833181 128.697361 
L 204.737883 128.767654 
L 204.6453 128.838056 
L 204.55689 128.908567 
L 204.474049 128.979188 
L 204.398095 129.049919 
L 204.330264 129.12076 
L 204.271695 129.191712 
L 204.223428 129.262776 
L 204.186402 129.333951 
L 204.16145 129.405238 
L 204.149303 129.476637 
L 204.150592 129.548148 
L 204.165854 129.619773 
L 204.195533 129.691511 
L 204.239993 129.763362 
L 204.299521 129.835328 
L 204.37434 129.907408 
L 204.464615 129.979602 
L 204.570464 130.051912 
L 204.691969 130.124337 
L 204.829184 130.196878 
L 204.982147 130.269535 
L 205.150887 130.342309 
L 205.335433 130.415199 
L 205.535821 130.488207 
L 205.752099 130.561333 
L 205.984329 130.634577 
L 206.232591 130.707939 
L 206.496975 130.78142 
L 206.77758 130.855021 
L 207.074502 130.928741 
L 207.387823 131.00258 
L 207.717595 131.076541 
L 208.063819 131.150622 
L 208.426419 131.224824 
L 208.805223 131.299148 
L 209.199929 131.373594 
L 209.610075 131.448163 
L 210.035014 131.522854 
L 210.47388 131.597668 
L 210.92556 131.672606 
L 211.388673 131.747668 
L 211.861543 131.822854 
L 212.34219 131.898165 
L 212.828317 131.973602 
L 213.317308 132.049164 
L 213.806237 132.124852 
L 214.291883 132.200667 
L 214.770751 132.276609 
L 215.239113 132.352678 
L 215.693043 132.428875 
L 216.128472 132.5052 
L 216.54125 132.581653 
L 216.927203 132.658236 
L 217.282211 132.734948 
L 217.602278 132.811791 
L 217.883608 132.888763 
L 218.122679 132.965867 
L 218.316315 133.043102 
L 218.461756 133.120468 
L 218.556718 133.197967 
L 218.599444 133.275598 
L 218.588754 133.353363 
L 218.524068 133.431261 
L 218.405436 133.509293 
L 218.233536 133.587459 
L 218.009675 133.665761 
L 217.735765 133.744197 
L 217.414293 133.82277 
L 217.048278 133.901479 
L 216.641215 133.980325 
L 216.197011 134.059308 
L 215.719916 134.138429 
L 215.214444 134.217689 
L 214.685298 134.297087 
L 214.137282 134.376624 
L 213.575225 134.456301 
L 213.003907 134.536118 
L 212.427976 134.616076 
L 211.851895 134.696175 
L 211.279869 134.776415 
L 210.715806 134.856798 
L 210.16327 134.937324 
z
" clip-path="url(#p027e1b69e2)" style="fill: #1f77b4; fill-opacity: 0.3"/>
   </g>
   <g id="PolyCollection_4">
    <path d="M 272.66352 120.040389 
L 258.102035 120.040389 
L 257.759041 120.014115 
L 257.420605 119.987856 
L 257.087005 119.961612 
L 256.758295 119.935383 
L 256.434334 119.909169 
L 256.11481 119.88297 
L 255.799287 119.856787 
L 255.487245 119.830619 
L 255.178131 119.804466 
L 254.871408 119.778327 
L 254.566609 119.752204 
L 254.263381 119.726096 
L 253.961531 119.700003 
L 253.661061 119.673925 
L 253.362201 119.647862 
L 253.065426 119.621814 
L 252.771469 119.595781 
L 252.481326 119.569763 
L 252.196245 119.543759 
L 251.91771 119.517771 
L 251.647422 119.491798 
L 251.387261 119.465839 
L 251.139253 119.439895 
L 250.905528 119.413966 
L 250.688274 119.388052 
L 250.48969 119.362153 
L 250.311939 119.336268 
L 250.157103 119.310398 
L 250.027136 119.284543 
L 249.923822 119.258703 
L 249.848739 119.232877 
L 249.803221 119.207066 
L 249.788333 119.18127 
L 249.804848 119.155489 
L 249.853225 119.129722 
L 249.933603 119.103969 
L 250.045795 119.078232 
L 250.18929 119.052509 
L 250.363259 119.0268 
L 250.566573 119.001106 
L 250.797819 118.975427 
L 251.055327 118.949762 
L 251.337197 118.924111 
L 251.641333 118.898476 
L 251.965477 118.872854 
L 252.307243 118.847247 
L 252.664157 118.821655 
L 253.033694 118.796077 
L 253.413307 118.770513 
L 253.800467 118.744964 
L 254.19269 118.719429 
L 254.587564 118.693909 
L 254.982775 118.668402 
L 255.376125 118.642911 
L 255.76555 118.617433 
L 256.149132 118.59197 
L 256.525111 118.566521 
L 256.891896 118.541087 
L 257.248064 118.515666 
L 257.592367 118.49026 
L 257.923739 118.464868 
L 258.24129 118.439491 
L 258.544309 118.414127 
L 258.832266 118.388778 
L 259.104804 118.363443 
L 259.361744 118.338122 
L 259.603069 118.312815 
L 259.828931 118.287522 
L 260.039632 118.262243 
L 260.23562 118.236979 
L 260.417475 118.211728 
L 260.585897 118.186492 
L 260.741686 118.161269 
L 260.885731 118.136061 
L 261.018987 118.110866 
L 261.142457 118.085686 
L 261.257173 118.060519 
L 261.364178 118.035367 
L 261.46451 118.010228 
L 261.559179 117.985104 
L 261.649161 117.959993 
L 261.735381 117.934896 
L 261.818705 117.909813 
L 261.899934 117.884744 
L 261.979798 117.859689 
L 262.058952 117.834647 
L 262.137979 117.80962 
L 262.217389 117.784606 
L 262.297621 117.759606 
L 262.379046 117.73462 
L 262.46197 117.709647 
L 262.546632 117.684688 
L 262.633215 117.659743 
L 262.721841 117.634812 
L 262.812571 117.609894 
L 262.905412 117.584991 
L 263.000312 117.5601 
L 263.097161 117.535224 
L 263.195794 117.510361 
L 267.569762 117.510361 
L 267.569762 117.510361 
L 267.668394 117.535224 
L 267.765243 117.5601 
L 267.860143 117.584991 
L 267.952984 117.609894 
L 268.043715 117.634812 
L 268.13234 117.659743 
L 268.218923 117.684688 
L 268.303586 117.709647 
L 268.386509 117.73462 
L 268.467934 117.759606 
L 268.548167 117.784606 
L 268.627577 117.80962 
L 268.706604 117.834647 
L 268.785758 117.859689 
L 268.865621 117.884744 
L 268.94685 117.909813 
L 269.030175 117.934896 
L 269.116395 117.959993 
L 269.206377 117.985104 
L 269.301046 118.010228 
L 269.401377 118.035367 
L 269.508383 118.060519 
L 269.623099 118.085686 
L 269.746569 118.110866 
L 269.879824 118.136061 
L 270.023869 118.161269 
L 270.179659 118.186492 
L 270.34808 118.211728 
L 270.529935 118.236979 
L 270.725923 118.262243 
L 270.936624 118.287522 
L 271.162486 118.312815 
L 271.403812 118.338122 
L 271.660751 118.363443 
L 271.93329 118.388778 
L 272.221247 118.414127 
L 272.524266 118.439491 
L 272.841816 118.464868 
L 273.173188 118.49026 
L 273.517492 118.515666 
L 273.873659 118.541087 
L 274.240444 118.566521 
L 274.616424 118.59197 
L 275.000006 118.617433 
L 275.38943 118.642911 
L 275.78278 118.668402 
L 276.177991 118.693909 
L 276.572866 118.719429 
L 276.965089 118.744964 
L 277.352249 118.770513 
L 277.731862 118.796077 
L 278.101398 118.821655 
L 278.458313 118.847247 
L 278.800079 118.872854 
L 279.124222 118.898476 
L 279.428359 118.924111 
L 279.710229 118.949762 
L 279.967737 118.975427 
L 280.198983 119.001106 
L 280.402297 119.0268 
L 280.576266 119.052509 
L 280.71976 119.078232 
L 280.831953 119.103969 
L 280.912331 119.129722 
L 280.960708 119.155489 
L 280.977222 119.18127 
L 280.962335 119.207066 
L 280.916817 119.232877 
L 280.841733 119.258703 
L 280.73842 119.284543 
L 280.608452 119.310398 
L 280.453616 119.336268 
L 280.275866 119.362153 
L 280.077281 119.388052 
L 279.860027 119.413966 
L 279.626302 119.439895 
L 279.378295 119.465839 
L 279.118134 119.491798 
L 278.847845 119.517771 
L 278.569311 119.543759 
L 278.284229 119.569763 
L 277.994086 119.595781 
L 277.700129 119.621814 
L 277.403354 119.647862 
L 277.104494 119.673925 
L 276.804025 119.700003 
L 276.502175 119.726096 
L 276.198947 119.752204 
L 275.894148 119.778327 
L 275.587425 119.804466 
L 275.27831 119.830619 
L 274.966268 119.856787 
L 274.650745 119.88297 
L 274.331222 119.909169 
L 274.00726 119.935383 
L 273.678551 119.961612 
L 273.34495 119.987856 
L 273.006514 120.014115 
L 272.66352 120.040389 
z
" clip-path="url(#p027e1b69e2)" style="fill: #1f77b4; fill-opacity: 0.3"/>
   </g>
   <g id="PolyCollection_5">
    <path d="M 338.459505 49.866828 
L 317.061606 49.866828 
L 316.377332 49.788785 
L 315.719539 49.710876 
L 315.0966 49.633101 
L 314.516582 49.555459 
L 313.987078 49.477949 
L 313.515035 49.400572 
L 313.106616 49.323326 
L 312.767075 49.246212 
L 312.500655 49.169229 
L 312.31052 49.092376 
L 312.198708 49.015653 
L 312.166111 48.93906 
L 312.212482 48.862596 
L 312.336465 48.78626 
L 312.535641 48.710053 
L 312.806602 48.633973 
L 313.145034 48.558021 
L 313.545809 48.482196 
L 314.003096 48.406498 
L 314.510476 48.330925 
L 315.06106 48.255479 
L 315.647614 48.180157 
L 316.262683 48.104961 
L 316.898722 48.029889 
L 317.548215 47.954941 
L 318.203801 47.880116 
L 318.858387 47.805415 
L 319.505259 47.730837 
L 320.138184 47.656381 
L 320.751496 47.582047 
L 321.340174 47.507835 
L 321.899905 47.433744 
L 322.427124 47.359774 
L 322.919046 47.285924 
L 323.37367 47.212194 
L 323.789771 47.138584 
L 324.166868 47.065093 
L 324.50518 46.991721 
L 324.805562 46.918468 
L 325.069432 46.845332 
L 325.298686 46.772315 
L 325.495608 46.699415 
L 325.662774 46.626631 
L 325.802961 46.553965 
L 325.919056 46.481414 
L 326.013976 46.40898 
L 326.090592 46.336661 
L 326.151673 46.264457 
L 326.199834 46.192368 
L 326.2375 46.120393 
L 326.266886 46.048532 
L 326.289986 45.976785 
L 326.308567 45.905151 
L 326.324182 45.83363 
L 326.338175 45.762222 
L 326.351705 45.690926 
L 326.365756 45.619742 
L 326.381155 45.54867 
L 326.398587 45.477708 
L 326.418608 45.406858 
L 326.441646 45.336118 
L 326.468013 45.265488 
L 326.497898 45.194968 
L 326.531371 45.124557 
L 326.568382 45.054256 
L 326.608752 44.984063 
L 326.65218 44.913979 
L 326.698243 44.844003 
L 326.7464 44.774135 
L 326.796005 44.704374 
L 326.846317 44.63472 
L 326.896522 44.565173 
L 326.945755 44.495733 
L 326.993122 44.426399 
L 327.037732 44.35717 
L 327.078722 44.288047 
L 327.115288 44.219029 
L 327.146712 44.150117 
L 327.172388 44.081308 
L 327.191844 44.012604 
L 327.204765 43.944004 
L 327.211001 43.875507 
L 327.210583 43.807114 
L 327.203724 43.738824 
L 327.190819 43.670636 
L 327.172435 43.60255 
L 327.149303 43.534567 
L 327.122293 43.466686 
L 327.092396 43.398905 
L 327.060693 43.331226 
L 327.028324 43.263648 
L 326.996452 43.196171 
L 326.966229 43.128793 
L 326.938758 43.061516 
L 326.915059 42.994338 
L 326.896037 42.92726 
L 326.882451 42.86028 
L 326.874895 42.7934 
L 326.873778 42.726617 
L 328.647333 42.726617 
L 328.647333 42.726617 
L 328.646216 42.7934 
L 328.63866 42.86028 
L 328.625074 42.92726 
L 328.606052 42.994338 
L 328.582353 43.061516 
L 328.554882 43.128793 
L 328.524659 43.196171 
L 328.492787 43.263648 
L 328.460418 43.331226 
L 328.428715 43.398905 
L 328.398818 43.466686 
L 328.371808 43.534567 
L 328.348676 43.60255 
L 328.330292 43.670636 
L 328.317387 43.738824 
L 328.310528 43.807114 
L 328.31011 43.875507 
L 328.316346 43.944004 
L 328.329267 44.012604 
L 328.348723 44.081308 
L 328.374399 44.150117 
L 328.405823 44.219029 
L 328.442389 44.288047 
L 328.483379 44.35717 
L 328.527989 44.426399 
L 328.575356 44.495733 
L 328.624589 44.565173 
L 328.674794 44.63472 
L 328.725106 44.704374 
L 328.774711 44.774135 
L 328.822868 44.844003 
L 328.868931 44.913979 
L 328.91236 44.984063 
L 328.952729 45.054256 
L 328.98974 45.124557 
L 329.023213 45.194968 
L 329.053098 45.265488 
L 329.079465 45.336118 
L 329.102503 45.406858 
L 329.122524 45.477708 
L 329.139957 45.54867 
L 329.155355 45.619742 
L 329.169406 45.690926 
L 329.182936 45.762222 
L 329.19693 45.83363 
L 329.212544 45.905151 
L 329.231125 45.976785 
L 329.254225 46.048532 
L 329.283612 46.120393 
L 329.321278 46.192368 
L 329.369438 46.264457 
L 329.430519 46.336661 
L 329.507135 46.40898 
L 329.602055 46.481414 
L 329.71815 46.553965 
L 329.858337 46.626631 
L 330.025503 46.699415 
L 330.222425 46.772315 
L 330.45168 46.845332 
L 330.71555 46.918468 
L 331.015931 46.991721 
L 331.354243 47.065093 
L 331.73134 47.138584 
L 332.147441 47.212194 
L 332.602066 47.285924 
L 333.093987 47.359774 
L 333.621207 47.433744 
L 334.180937 47.507835 
L 334.769615 47.582047 
L 335.382927 47.656381 
L 336.015852 47.730837 
L 336.662724 47.805415 
L 337.31731 47.880116 
L 337.972896 47.954941 
L 338.622389 48.029889 
L 339.258428 48.104961 
L 339.873498 48.180157 
L 340.460051 48.255479 
L 341.010635 48.330925 
L 341.518015 48.406498 
L 341.975302 48.482196 
L 342.376077 48.558021 
L 342.714509 48.633973 
L 342.98547 48.710053 
L 343.184646 48.78626 
L 343.308629 48.862596 
L 343.355 48.93906 
L 343.322403 49.015653 
L 343.210591 49.092376 
L 343.020457 49.169229 
L 342.754036 49.246212 
L 342.414495 49.323326 
L 342.006076 49.400572 
L 341.534033 49.477949 
L 341.004529 49.555459 
L 340.424512 49.633101 
L 339.801572 49.710876 
L 339.143779 49.788785 
L 338.459505 49.866828 
z
" clip-path="url(#p027e1b69e2)" style="fill: #1f77b4; fill-opacity: 0.3"/>
   </g>
   <g id="matplotlib.axis_1">
    <g id="xtick_1">
     <g id="line2d_1">
      <defs>
       <path id="m09506e78af" d="M 0 0 
L 0 3.5 
" style="stroke: #000000; stroke-width: 0.8"/>
      </defs>
      <g>
       <use xlink:href="#m09506e78af" x="78.249444" y="234.376" style="stroke: #000000; stroke-width: 0.8"/>
      </g>
     </g>
     <g id="text_1">
      <text style="font: 11px 'Arial'; text-anchor: middle" x="78.249444" y="249.249594" transform="rotate(-0, 78.249444, 249.249594)">Arche</text>
     </g>
    </g>
    <g id="xtick_2">
     <g id="line2d_2">
      <g>
       <use xlink:href="#m09506e78af" x="140.627222" y="234.376" style="stroke: #000000; stroke-width: 0.8"/>
      </g>
     </g>
     <g id="text_2">
      <text style="font: 11px 'Arial'" transform="translate(102.407378 249.249594)">go-gameengine</text>
      <text style="font: 11px 'Arial'" transform="translate(130.237378 261.013062)">-ecs</text>
     </g>
    </g>
    <g id="xtick_3">
     <g id="line2d_3">
      <g>
       <use xlink:href="#m09506e78af" x="203.005" y="234.376" style="stroke: #000000; stroke-width: 0.8"/>
      </g>
     </g>
     <g id="text_3">
      <text style="font: 11px 'Arial'; text-anchor: middle" x="203.005" y="249.249594" transform="rotate(-0, 203.005, 249.249594)">Donburi</text>
     </g>
    </g>
    <g id="xtick_4">
     <g id="line2d_4">
      <g>
       <use xlink:href="#m09506e78af" x="265.382778" y="234.376" style="stroke: #000000; stroke-width: 0.8"/>
      </g>
     </g>
     <g id="text_4">
      <text style="font: 11px 'Arial'; text-anchor: middle" x="265.382778" y="249.249594" transform="rotate(-0, 265.382778, 249.249594)">Entitas-Go</text>
     </g>
    </g>
    <g id="xtick_5">
     <g id="line2d_5">
      <g>
       <use xlink:href="#m09506e78af" x="327.760556" y="234.376" style="stroke: #000000; stroke-width: 0.8"/>
      </g>
     </g>
     <g id="text_5">
      <text style="font: 11px 'Arial'; text-anchor: middle" x="327.760556" y="249.249594" transform="rotate(-0, 327.760556, 249.249594)">Ento</text>
     </g>
    </g>
    <g id="text_6">
     <text style="font: 11px 'Arial'; text-anchor: middle" x="203.005" y="275.072906" transform="rotate(-0, 203.005, 275.072906)">Engine</text>
    </g>
   </g>
   <g id="matplotlib.axis_2">
    <g id="ytick_1">
     <g id="line2d_6">
      <defs>
       <path id="m2872ff7c94" d="M 0 0 
L -3.5 0 
" style="stroke: #000000; stroke-width: 0.8"/>
      </defs>
      <g>
       <use xlink:href="#m2872ff7c94" x="48.62" y="234.376" style="stroke: #000000; stroke-width: 0.8"/>
      </g>
     </g>
     <g id="text_7">
      <text style="font: 10px 'Arial'; text-anchor: end" x="41.62" y="237.954906" transform="rotate(-0, 41.62, 237.954906)">2</text>
     </g>
    </g>
    <g id="ytick_2">
     <g id="line2d_7">
      <g>
       <use xlink:href="#m2872ff7c94" x="48.62" y="192.815195" style="stroke: #000000; stroke-width: 0.8"/>
      </g>
     </g>
     <g id="text_8">
      <text style="font: 10px 'Arial'; text-anchor: end" x="41.62" y="196.394101" transform="rotate(-0, 41.62, 196.394101)">5</text>
     </g>
    </g>
    <g id="ytick_3">
     <g id="line2d_8">
      <g>
       <use xlink:href="#m2872ff7c94" x="48.62" y="161.37566" style="stroke: #000000; stroke-width: 0.8"/>
      </g>
     </g>
     <g id="text_9">
      <text style="font: 10px 'Arial'; text-anchor: end" x="41.62" y="164.954566" transform="rotate(-0, 41.62, 164.954566)">10</text>
     </g>
    </g>
    <g id="ytick_4">
     <g id="line2d_9">
      <g>
       <use xlink:href="#m2872ff7c94" x="48.62" y="129.936125" style="stroke: #000000; stroke-width: 0.8"/>
      </g>
     </g>
     <g id="text_10">
      <text style="font: 10px 'Arial'; text-anchor: end" x="41.62" y="133.515031" transform="rotate(-0, 41.62, 133.515031)">20</text>
     </g>
    </g>
    <g id="ytick_5">
     <g id="line2d_10">
      <g>
       <use xlink:href="#m2872ff7c94" x="48.62" y="88.37532" style="stroke: #000000; stroke-width: 0.8"/>
      </g>
     </g>
     <g id="text_11">
      <text style="font: 10px 'Arial'; text-anchor: end" x="41.62" y="91.954226" transform="rotate(-0, 41.62, 91.954226)">50</text>
     </g>
    </g>
    <g id="ytick_6">
     <g id="line2d_11">
      <g>
       <use xlink:href="#m2872ff7c94" x="48.62" y="56.935785" style="stroke: #000000; stroke-width: 0.8"/>
      </g>
     </g>
     <g id="text_12">
      <text style="font: 10px 'Arial'; text-anchor: end" x="41.62" y="60.514691" transform="rotate(-0, 41.62, 60.514691)">100</text>
     </g>
    </g>
    <g id="ytick_7">
     <g id="line2d_12">
      <g>
       <use xlink:href="#m2872ff7c94" x="48.62" y="25.49625" style="stroke: #000000; stroke-width: 0.8"/>
      </g>
     </g>
     <g id="text_13">
      <text style="font: 10px 'Arial'; text-anchor: end" x="41.62" y="29.075156" transform="rotate(-0, 41.62, 29.075156)">200</text>
     </g>
    </g>
    <g id="ytick_8">
     <g id="line2d_13">
      <defs>
       <path id="m3688122926" d="M 0 0 
L -2 0 
" style="stroke: #000000; stroke-width: 0.6"/>
      </defs>
      <g>
       <use xlink:href="#m3688122926" x="48.62" y="215.985051" style="stroke: #000000; stroke-width: 0.6"/>
      </g>
     </g>
    </g>
    <g id="ytick_9">
     <g id="line2d_14">
      <g>
       <use xlink:href="#m3688122926" x="48.62" y="202.936465" style="stroke: #000000; stroke-width: 0.6"/>
      </g>
     </g>
    </g>
    <g id="ytick_10">
     <g id="line2d_15">
      <g>
       <use xlink:href="#m3688122926" x="48.62" y="184.545516" style="stroke: #000000; stroke-width: 0.6"/>
      </g>
     </g>
    </g>
    <g id="ytick_11">
     <g id="line2d_16">
      <g>
       <use xlink:href="#m3688122926" x="48.62" y="177.553601" style="stroke: #000000; stroke-width: 0.6"/>
      </g>
     </g>
    </g>
    <g id="ytick_12">
     <g id="line2d_17">
      <g>
       <use xlink:href="#m3688122926" x="48.62" y="171.49693" style="stroke: #000000; stroke-width: 0.6"/>
      </g>
     </g>
    </g>
    <g id="ytick_13">
     <g id="line2d_18">
      <g>
       <use xlink:href="#m3688122926" x="48.62" y="166.154567" style="stroke: #000000; stroke-width: 0.6"/>
      </g>
     </g>
    </g>
    <g id="ytick_14">
     <g id="line2d_19">
      <g>
       <use xlink:href="#m3688122926" x="48.62" y="111.545176" style="stroke: #000000; stroke-width: 0.6"/>
      </g>
     </g>
    </g>
    <g id="ytick_15">
     <g id="line2d_20">
      <g>
       <use xlink:href="#m3688122926" x="48.62" y="98.49659" style="stroke: #000000; stroke-width: 0.6"/>
      </g>
     </g>
    </g>
    <g id="ytick_16">
     <g id="line2d_21">
      <g>
       <use xlink:href="#m3688122926" x="48.62" y="80.105641" style="stroke: #000000; stroke-width: 0.6"/>
      </g>
     </g>
    </g>
    <g id="ytick_17">
     <g id="line2d_22">
      <g>
       <use xlink:href="#m3688122926" x="48.62" y="73.113726" style="stroke: #000000; stroke-width: 0.6"/>
      </g>
     </g>
    </g>
    <g id="ytick_18">
     <g id="line2d_23">
      <g>
       <use xlink:href="#m3688122926" x="48.62" y="67.057055" style="stroke: #000000; stroke-width: 0.6"/>
      </g>
     </g>
    </g>
    <g id="ytick_19">
     <g id="line2d_24">
      <g>
       <use xlink:href="#m3688122926" x="48.62" y="61.714692" style="stroke: #000000; stroke-width: 0.6"/>
      </g>
     </g>
    </g>
    <g id="text_14">
     <text style="font: 11px 'Arial'; text-anchor: middle" x="18.750938" y="129.936125" transform="rotate(-90, 18.750938, 129.936125)">Time per iteration [us]</text>
    </g>
   </g>
   <g id="LineCollection_1">
    <path d="M 70.452222 206.574235 
L 86.046667 206.574235 
" clip-path="url(#p027e1b69e2)" style="fill: none; stroke: #1f77b4; stroke-width: 1.5"/>
    <path d="M 132.83 197.374097 
L 148.424444 197.374097 
" clip-path="url(#p027e1b69e2)" style="fill: none; stroke: #1f77b4; stroke-width: 1.5"/>
    <path d="M 195.207778 132.467958 
L 210.802222 132.467958 
" clip-path="url(#p027e1b69e2)" style="fill: none; stroke: #1f77b4; stroke-width: 1.5"/>
    <path d="M 257.585556 119.090092 
L 273.18 119.090092 
" clip-path="url(#p027e1b69e2)" style="fill: none; stroke: #1f77b4; stroke-width: 1.5"/>
    <path d="M 319.963333 48.379281 
L 335.557778 48.379281 
" clip-path="url(#p027e1b69e2)" style="fill: none; stroke: #1f77b4; stroke-width: 1.5"/>
   </g>
   <g id="patch_3">
    <path d="M 48.62 234.376 
L 48.62 25.49625 
" style="fill: none; stroke: #000000; stroke-width: 0.8; stroke-linejoin: miter; stroke-linecap: square"/>
   </g>
   <g id="patch_4">
    <path d="M 357.39 234.376 
L 357.39 25.49625 
" style="fill: none; stroke: #000000; stroke-width: 0.8; stroke-linejoin: miter; stroke-linecap: square"/>
   </g>
   <g id="patch_5">
    <path d="M 48.62 234.376 
L 357.39 234.376 
" style="fill: none; stroke: #000000; stroke-width: 0.8; stroke-linejoin: miter; stroke-linecap: square"/>
   </g>
   <g id="patch_6">
    <path d="M 48.62 25.49625 
L 357.39 25.49625 
" style="fill: none; stroke: #000000; stroke-width: 0.8; stroke-linejoin: miter; stroke-linecap: square"/>
   </g>
   <g id="text_15">
    <text style="font: 12px 'Arial'; text-anchor: middle" x="203.005" y="19.49625" transform="rotate(-0, 203.005, 19.49625)">Position/Velocity -- Iter</text>
   </g>
  </g>
  <g id="axes_2">
   <g id="patch_7">
    <path d="M 400.43 234.376 
L 709.2 234.376 
L 709.2 25.49625 
L 400.43 25.49625 
z
" style="fill: #ffffff"/>
   </g>
   <g id="PolyCollection_6">
    <path d="M 431.526401 211.451027 
L 428.592488 211.451027 
L 428.537176 211.434436 
L 428.489017 211.417845 
L 428.448439 211.401254 
L 428.415704 211.384663 
L 428.390901 211.368072 
L 428.373945 211.351481 
L 428.364577 211.33489 
L 428.362366 211.318299 
L 428.366725 211.301708 
L 428.376915 211.285117 
L 428.392062 211.268526 
L 428.411177 211.251935 
L 428.43318 211.235344 
L 428.456916 211.218753 
L 428.481192 211.202162 
L 428.504795 211.185571 
L 428.526526 211.16898 
L 428.545218 211.152388 
L 428.559759 211.135797 
L 428.569103 211.119206 
L 428.572276 211.102615 
L 428.568372 211.086024 
L 428.556537 211.069433 
L 428.535953 211.052842 
L 428.505799 211.036251 
L 428.465223 211.01966 
L 428.413304 211.003069 
L 428.34901 210.986478 
L 428.271173 210.969887 
L 428.178462 210.953296 
L 428.069374 210.936705 
L 427.942234 210.920114 
L 427.795214 210.903523 
L 427.62637 210.886932 
L 427.433685 210.870341 
L 427.215132 210.85375 
L 426.968749 210.837159 
L 426.692715 210.820568 
L 426.385429 210.803976 
L 426.045601 210.787385 
L 425.672319 210.770794 
L 425.265134 210.754203 
L 424.824116 210.737612 
L 424.349915 210.721021 
L 423.843807 210.70443 
L 423.307735 210.687839 
L 422.74433 210.671248 
L 422.156936 210.654657 
L 421.549614 210.638066 
L 420.927137 210.621475 
L 420.294976 210.604884 
L 419.65926 210.588293 
L 419.026729 210.571702 
L 418.404658 210.555111 
L 417.80076 210.53852 
L 417.223064 210.521929 
L 416.67977 210.505338 
L 416.17908 210.488747 
L 415.729005 210.472156 
L 415.337168 210.455565 
L 415.01059 210.438973 
L 414.755484 210.422382 
L 414.577057 210.405791 
L 414.479331 210.3892 
L 414.465 210.372609 
L 414.535314 210.356018 
L 414.690016 210.339427 
L 414.92732 210.322836 
L 415.243943 210.306245 
L 415.635178 210.289654 
L 416.095018 210.273063 
L 416.616315 210.256472 
L 417.190975 210.239881 
L 417.810169 210.22329 
L 418.464572 210.206699 
L 419.144594 210.190108 
L 419.84062 210.173517 
L 420.543235 210.156926 
L 421.243435 210.140335 
L 421.932818 210.123744 
L 422.603743 210.107153 
L 423.249468 210.090561 
L 423.864254 210.07397 
L 424.443432 210.057379 
L 424.983444 210.040788 
L 425.48185 210.024197 
L 425.937299 210.007606 
L 426.349483 209.991015 
L 426.719048 209.974424 
L 427.047499 209.957833 
L 427.337072 209.941242 
L 427.590602 209.924651 
L 427.811376 209.90806 
L 428.002986 209.891469 
L 428.169178 209.874878 
L 428.313717 209.858287 
L 428.440254 209.841696 
L 428.552222 209.825105 
L 428.652737 209.808514 
L 431.466152 209.808514 
L 431.466152 209.808514 
L 431.566667 209.825105 
L 431.678635 209.841696 
L 431.805172 209.858287 
L 431.94971 209.874878 
L 432.115903 209.891469 
L 432.307513 209.90806 
L 432.528287 209.924651 
L 432.781817 209.941242 
L 433.07139 209.957833 
L 433.399841 209.974424 
L 433.769406 209.991015 
L 434.181589 210.007606 
L 434.637039 210.024197 
L 435.135445 210.040788 
L 435.675457 210.057379 
L 436.254635 210.07397 
L 436.869421 210.090561 
L 437.515146 210.107153 
L 438.186071 210.123744 
L 438.875454 210.140335 
L 439.575654 210.156926 
L 440.278269 210.173517 
L 440.974294 210.190108 
L 441.654316 210.206699 
L 442.308719 210.22329 
L 442.927914 210.239881 
L 443.502574 210.256472 
L 444.023871 210.273063 
L 444.483711 210.289654 
L 444.874946 210.306245 
L 445.191569 210.322836 
L 445.428873 210.339427 
L 445.583575 210.356018 
L 445.653889 210.372609 
L 445.639557 210.3892 
L 445.541832 210.405791 
L 445.363405 210.422382 
L 445.108299 210.438973 
L 444.781721 210.455565 
L 444.389884 210.472156 
L 443.939809 210.488747 
L 443.439119 210.505338 
L 442.895825 210.521929 
L 442.318129 210.53852 
L 441.714231 210.555111 
L 441.09216 210.571702 
L 440.459629 210.588293 
L 439.823913 210.604884 
L 439.191752 210.621475 
L 438.569275 210.638066 
L 437.961953 210.654657 
L 437.374559 210.671248 
L 436.811154 210.687839 
L 436.275082 210.70443 
L 435.768974 210.721021 
L 435.294773 210.737612 
L 434.853755 210.754203 
L 434.446569 210.770794 
L 434.073288 210.787385 
L 433.73346 210.803976 
L 433.426174 210.820568 
L 433.150139 210.837159 
L 432.903757 210.85375 
L 432.685204 210.870341 
L 432.492518 210.886932 
L 432.323674 210.903523 
L 432.176655 210.920114 
L 432.049515 210.936705 
L 431.940427 210.953296 
L 431.847716 210.969887 
L 431.769879 210.986478 
L 431.705585 211.003069 
L 431.653666 211.01966 
L 431.61309 211.036251 
L 431.582936 211.052842 
L 431.562352 211.069433 
L 431.550517 211.086024 
L 431.546613 211.102615 
L 431.549786 211.119206 
L 431.55913 211.135797 
L 431.573671 211.152388 
L 431.592363 211.16898 
L 431.614094 211.185571 
L 431.637697 211.202162 
L 431.661973 211.218753 
L 431.685709 211.235344 
L 431.707711 211.251935 
L 431.726827 211.268526 
L 431.741974 211.285117 
L 431.752164 211.301708 
L 431.756522 211.318299 
L 431.754312 211.33489 
L 431.744943 211.351481 
L 431.727988 211.368072 
L 431.703185 211.384663 
L 431.67045 211.401254 
L 431.629872 211.417845 
L 431.581713 211.434436 
L 431.526401 211.451027 
z
" clip-path="url(#p3679caafc0)" style="fill: #1f77b4; fill-opacity: 0.3"/>
   </g>
   <g id="PolyCollection_7">
    <path d="M 497.48661 190.010457 
L 487.387834 190.010457 
L 486.984103 189.974256 
L 486.563344 189.938056 
L 486.126517 189.901855 
L 485.674843 189.865654 
L 485.209815 189.829454 
L 484.733205 189.793253 
L 484.247069 189.757052 
L 483.753739 189.720851 
L 483.255804 189.684651 
L 482.756094 189.64845 
L 482.25764 189.612249 
L 481.76364 189.576048 
L 481.277406 189.539848 
L 480.802312 189.503647 
L 480.341734 189.467446 
L 479.89899 189.431246 
L 479.477276 189.395045 
L 479.079606 189.358844 
L 478.708757 189.322643 
L 478.367217 189.286443 
L 478.057144 189.250242 
L 477.780332 189.214041 
L 477.53819 189.17784 
L 477.331725 189.14164 
L 477.161551 189.105439 
L 477.027887 189.069238 
L 476.930584 189.033037 
L 476.869149 188.996837 
L 476.842778 188.960636 
L 476.85039 188.924435 
L 476.890672 188.888235 
L 476.962113 188.852034 
L 477.063041 188.815833 
L 477.191661 188.779632 
L 477.346082 188.743432 
L 477.524342 188.707231 
L 477.724424 188.67103 
L 477.944277 188.634829 
L 478.181815 188.598629 
L 478.434931 188.562428 
L 478.701495 188.526227 
L 478.979356 188.490026 
L 479.266342 188.453826 
L 479.560266 188.417625 
L 479.858931 188.381424 
L 480.160137 188.345224 
L 480.461698 188.309023 
L 480.761457 188.272822 
L 481.057314 188.236621 
L 481.347247 188.200421 
L 481.629352 188.16422 
L 481.901864 188.128019 
L 482.163203 188.091818 
L 482.411997 188.055618 
L 482.647122 188.019417 
L 482.867722 187.983216 
L 483.073236 187.947016 
L 483.263409 187.910815 
L 483.438304 187.874614 
L 483.598299 187.838413 
L 483.744077 187.802213 
L 483.876612 187.766012 
L 483.997134 187.729811 
L 484.107106 187.69361 
L 484.208173 187.65741 
L 484.302124 187.621209 
L 484.39084 187.585008 
L 484.476239 187.548807 
L 484.560232 187.512607 
L 484.644669 187.476406 
L 484.731294 187.440205 
L 484.821702 187.404005 
L 484.917308 187.367804 
L 485.019315 187.331603 
L 485.128698 187.295402 
L 485.246188 187.259202 
L 485.372271 187.223001 
L 485.507193 187.1868 
L 485.650968 187.150599 
L 485.803399 187.114399 
L 485.964101 187.078198 
L 486.132526 187.041997 
L 486.307994 187.005796 
L 486.489724 186.969596 
L 486.676863 186.933395 
L 486.868519 186.897194 
L 487.063787 186.860994 
L 487.261771 186.824793 
L 487.461608 186.788592 
L 487.66248 186.752391 
L 487.863629 186.716191 
L 488.064363 186.67999 
L 488.264056 186.643789 
L 488.462153 186.607588 
L 488.65816 186.571388 
L 488.851643 186.535187 
L 489.042215 186.498986 
L 489.229531 186.462786 
L 489.413277 186.426585 
L 495.461167 186.426585 
L 495.461167 186.426585 
L 495.644913 186.462786 
L 495.832229 186.498986 
L 496.022802 186.535187 
L 496.216284 186.571388 
L 496.412292 186.607588 
L 496.610388 186.643789 
L 496.810082 186.67999 
L 497.010815 186.716191 
L 497.211964 186.752391 
L 497.412836 186.788592 
L 497.612673 186.824793 
L 497.810657 186.860994 
L 498.005925 186.897194 
L 498.197582 186.933395 
L 498.384721 186.969596 
L 498.56645 187.005796 
L 498.741918 187.041997 
L 498.910343 187.078198 
L 499.071045 187.114399 
L 499.223477 187.150599 
L 499.367252 187.1868 
L 499.502173 187.223001 
L 499.628256 187.259202 
L 499.745746 187.295402 
L 499.855129 187.331603 
L 499.957136 187.367804 
L 500.052742 187.404005 
L 500.143151 187.440205 
L 500.229775 187.476406 
L 500.314212 187.512607 
L 500.398206 187.548807 
L 500.483605 187.585008 
L 500.57232 187.621209 
L 500.666271 187.65741 
L 500.767339 187.69361 
L 500.87731 187.729811 
L 500.997833 187.766012 
L 501.130367 187.802213 
L 501.276146 187.838413 
L 501.436141 187.874614 
L 501.611036 187.910815 
L 501.801209 187.947016 
L 502.006722 187.983216 
L 502.227322 188.019417 
L 502.462447 188.055618 
L 502.711242 188.091818 
L 502.97258 188.128019 
L 503.245093 188.16422 
L 503.527197 188.200421 
L 503.817131 188.236621 
L 504.112987 188.272822 
L 504.412747 188.309023 
L 504.714307 188.345224 
L 505.015513 188.381424 
L 505.314178 188.417625 
L 505.608103 188.453826 
L 505.895089 188.490026 
L 506.172949 188.526227 
L 506.439513 188.562428 
L 506.692629 188.598629 
L 506.930168 188.634829 
L 507.15002 188.67103 
L 507.350103 188.707231 
L 507.528362 188.743432 
L 507.682783 188.779632 
L 507.811404 188.815833 
L 507.912332 188.852034 
L 507.983772 188.888235 
L 508.024054 188.924435 
L 508.031667 188.960636 
L 508.005295 188.996837 
L 507.94386 189.033037 
L 507.846558 189.069238 
L 507.712894 189.105439 
L 507.542719 189.14164 
L 507.336255 189.17784 
L 507.094112 189.214041 
L 506.817301 189.250242 
L 506.507228 189.286443 
L 506.165688 189.322643 
L 505.794839 189.358844 
L 505.397169 189.395045 
L 504.975454 189.431246 
L 504.53271 189.467446 
L 504.072132 189.503647 
L 503.597038 189.539848 
L 503.110804 189.576048 
L 502.616804 189.612249 
L 502.118351 189.64845 
L 501.61864 189.684651 
L 501.120706 189.720851 
L 500.627375 189.757052 
L 500.14124 189.793253 
L 499.66463 189.829454 
L 499.199601 189.865654 
L 498.747927 189.901855 
L 498.311101 189.938056 
L 497.890341 189.974256 
L 497.48661 190.010457 
z
" clip-path="url(#p3679caafc0)" style="fill: #1f77b4; fill-opacity: 0.3"/>
   </g>
   <g id="PolyCollection_8">
    <path d="M 557.341994 163.342968 
L 552.288006 163.342968 
L 552.164993 163.291051 
L 552.043132 163.239133 
L 551.922003 163.187215 
L 551.800969 163.135298 
L 551.679182 163.08338 
L 551.555596 163.031462 
L 551.428983 162.979544 
L 551.297966 162.927627 
L 551.161048 162.875709 
L 551.016659 162.823791 
L 550.863196 162.771873 
L 550.699079 162.719956 
L 550.522799 162.668038 
L 550.332972 162.61612 
L 550.128392 162.564203 
L 549.908078 162.512285 
L 549.67132 162.460367 
L 549.417712 162.408449 
L 549.147184 162.356532 
L 548.860016 162.304614 
L 548.556847 162.252696 
L 548.238669 162.200778 
L 547.90681 162.148861 
L 547.562905 162.096943 
L 547.208858 162.045025 
L 546.846791 161.993108 
L 546.478989 161.94119 
L 546.107841 161.889272 
L 545.735772 161.837354 
L 545.365184 161.785437 
L 544.99839 161.733519 
L 544.637561 161.681601 
L 544.284679 161.629683 
L 543.941492 161.577766 
L 543.609488 161.525848 
L 543.289877 161.47393 
L 542.983582 161.422013 
L 542.691242 161.370095 
L 542.413229 161.318177 
L 542.149664 161.266259 
L 541.900449 161.214342 
L 541.665301 161.162424 
L 541.443787 161.110506 
L 541.235361 161.058588 
L 541.039404 161.006671 
L 540.855257 160.954753 
L 540.682259 160.902835 
L 540.519771 160.850918 
L 540.367208 160.799 
L 540.224057 160.747082 
L 540.089903 160.695164 
L 539.964441 160.643247 
L 539.847494 160.591329 
L 539.739024 160.539411 
L 539.639148 160.487493 
L 539.548144 160.435576 
L 539.466465 160.383658 
L 539.394742 160.33174 
L 539.333792 160.279823 
L 539.284623 160.227905 
L 539.248422 160.175987 
L 539.226557 160.124069 
L 539.220556 160.072152 
L 539.232083 160.020234 
L 539.262914 159.968316 
L 539.314889 159.916398 
L 539.38987 159.864481 
L 539.48968 159.812563 
L 539.616047 159.760645 
L 539.770536 159.708728 
L 539.954477 159.65681 
L 540.168905 159.604892 
L 540.414492 159.552974 
L 540.691498 159.501057 
L 540.999715 159.449139 
L 541.338447 159.397221 
L 541.706486 159.345303 
L 542.102113 159.293386 
L 542.523117 159.241468 
L 542.966832 159.18955 
L 543.430186 159.137633 
L 543.909774 159.085715 
L 544.401935 159.033797 
L 544.902842 158.981879 
L 545.408599 158.929962 
L 545.915337 158.878044 
L 546.419311 158.826126 
L 546.916983 158.774208 
L 547.405105 158.722291 
L 547.880779 158.670373 
L 548.341509 158.618455 
L 548.785233 158.566538 
L 549.210337 158.51462 
L 549.615651 158.462702 
L 550.000437 158.410784 
L 550.36435 158.358867 
L 550.707401 158.306949 
L 551.029904 158.255031 
L 551.332418 158.203113 
L 558.297582 158.203113 
L 558.297582 158.203113 
L 558.600096 158.255031 
L 558.922599 158.306949 
L 559.26565 158.358867 
L 559.629563 158.410784 
L 560.014349 158.462702 
L 560.419663 158.51462 
L 560.844767 158.566538 
L 561.288491 158.618455 
L 561.749221 158.670373 
L 562.224895 158.722291 
L 562.713017 158.774208 
L 563.210689 158.826126 
L 563.714663 158.878044 
L 564.221401 158.929962 
L 564.727158 158.981879 
L 565.228065 159.033797 
L 565.720226 159.085715 
L 566.199814 159.137633 
L 566.663168 159.18955 
L 567.106883 159.241468 
L 567.527887 159.293386 
L 567.923514 159.345303 
L 568.291553 159.397221 
L 568.630285 159.449139 
L 568.938502 159.501057 
L 569.215508 159.552974 
L 569.461095 159.604892 
L 569.675523 159.65681 
L 569.859464 159.708728 
L 570.013953 159.760645 
L 570.14032 159.812563 
L 570.24013 159.864481 
L 570.315111 159.916398 
L 570.367086 159.968316 
L 570.397917 160.020234 
L 570.409444 160.072152 
L 570.403443 160.124069 
L 570.381578 160.175987 
L 570.345377 160.227905 
L 570.296208 160.279823 
L 570.235258 160.33174 
L 570.163535 160.383658 
L 570.081856 160.435576 
L 569.990852 160.487493 
L 569.890976 160.539411 
L 569.782506 160.591329 
L 569.665559 160.643247 
L 569.540097 160.695164 
L 569.405943 160.747082 
L 569.262792 160.799 
L 569.110229 160.850918 
L 568.947741 160.902835 
L 568.774743 160.954753 
L 568.590596 161.006671 
L 568.394639 161.058588 
L 568.186213 161.110506 
L 567.964699 161.162424 
L 567.729551 161.214342 
L 567.480336 161.266259 
L 567.216771 161.318177 
L 566.938758 161.370095 
L 566.646418 161.422013 
L 566.340123 161.47393 
L 566.020512 161.525848 
L 565.688508 161.577766 
L 565.345321 161.629683 
L 564.992439 161.681601 
L 564.63161 161.733519 
L 564.264816 161.785437 
L 563.894228 161.837354 
L 563.522159 161.889272 
L 563.151011 161.94119 
L 562.783209 161.993108 
L 562.421142 162.045025 
L 562.067095 162.096943 
L 561.72319 162.148861 
L 561.391331 162.200778 
L 561.073153 162.252696 
L 560.769984 162.304614 
L 560.482816 162.356532 
L 560.212288 162.408449 
L 559.95868 162.460367 
L 559.721922 162.512285 
L 559.501608 162.564203 
L 559.297028 162.61612 
L 559.107201 162.668038 
L 558.930921 162.719956 
L 558.766804 162.771873 
L 558.613341 162.823791 
L 558.468952 162.875709 
L 558.332034 162.927627 
L 558.201017 162.979544 
L 558.074404 163.031462 
L 557.950818 163.08338 
L 557.829031 163.135298 
L 557.707997 163.187215 
L 557.586868 163.239133 
L 557.465007 163.291051 
L 557.341994 163.342968 
z
" clip-path="url(#p3679caafc0)" style="fill: #1f77b4; fill-opacity: 0.3"/>
   </g>
   <g id="PolyCollection_9">
    <path d="M 618.248417 66.546814 
L 616.137138 66.546814 
L 616.143164 66.32397 
L 616.161035 66.101127 
L 616.190146 65.878284 
L 616.229526 65.65544 
L 616.277891 65.432597 
L 616.333714 65.209753 
L 616.395305 64.98691 
L 616.460891 64.764067 
L 616.528704 64.541223 
L 616.597053 64.31838 
L 616.664386 64.095537 
L 616.729345 63.872693 
L 616.790792 63.64985 
L 616.847829 63.427006 
L 616.899796 63.204163 
L 616.946252 62.98132 
L 616.986949 62.758476 
L 617.021792 62.535633 
L 617.050798 62.312789 
L 617.074043 62.089946 
L 617.091618 61.867103 
L 617.103578 61.644259 
L 617.1099 61.421416 
L 617.110443 61.198572 
L 617.104919 60.975729 
L 617.092857 60.752886 
L 617.073594 60.530042 
L 617.046258 60.307199 
L 617.009765 60.084356 
L 616.962824 59.861512 
L 616.90395 59.638669 
L 616.831489 59.415825 
L 616.743642 59.192982 
L 616.638507 58.970139 
L 616.514123 58.747295 
L 616.36852 58.524452 
L 616.19977 58.301608 
L 616.006045 58.078765 
L 615.785675 57.855922 
L 615.5372 57.633078 
L 615.259423 57.410235 
L 614.951456 57.187391 
L 614.612756 56.964548 
L 614.243166 56.741705 
L 613.84293 56.518861 
L 613.412715 56.296018 
L 612.953616 56.073174 
L 612.467151 55.850331 
L 611.955257 55.627488 
L 611.420265 55.404644 
L 610.864878 55.181801 
L 610.292136 54.958958 
L 609.705382 54.736114 
L 609.10822 54.513271 
L 608.504481 54.290427 
L 607.898183 54.067584 
L 607.293503 53.844741 
L 606.694759 53.621897 
L 606.10639 53.399054 
L 605.53296 53.17621 
L 604.979155 52.953367 
L 604.449789 52.730524 
L 603.949803 52.50768 
L 603.484259 52.284837 
L 603.058307 52.061993 
L 602.677135 51.83915 
L 602.345886 51.616307 
L 602.069541 51.393463 
L 601.852772 51.17062 
L 601.699774 50.947776 
L 601.614072 50.724933 
L 601.598333 50.50209 
L 601.654186 50.279246 
L 601.782067 50.056403 
L 601.981109 49.83356 
L 602.249091 49.610716 
L 602.582441 49.387873 
L 602.976315 49.165029 
L 603.424737 48.942186 
L 603.920795 48.719343 
L 604.456884 48.496499 
L 605.024975 48.273656 
L 605.616901 48.050812 
L 606.224626 47.827969 
L 606.840499 47.605126 
L 607.457464 47.382282 
L 608.069228 47.159439 
L 608.670365 46.936595 
L 609.256378 46.713752 
L 609.823701 46.490909 
L 610.369659 46.268065 
L 610.89239 46.045222 
L 611.390743 45.822379 
L 611.864156 45.599535 
L 612.312538 45.376692 
L 612.736142 45.153848 
L 613.135458 44.931005 
L 613.511114 44.708162 
L 613.863802 44.485318 
L 620.521754 44.485318 
L 620.521754 44.485318 
L 620.874442 44.708162 
L 621.250098 44.931005 
L 621.649413 45.153848 
L 622.073017 45.376692 
L 622.5214 45.599535 
L 622.994813 45.822379 
L 623.493165 46.045222 
L 624.015896 46.268065 
L 624.561854 46.490909 
L 625.129178 46.713752 
L 625.715191 46.936595 
L 626.316328 47.159439 
L 626.928091 47.382282 
L 627.545057 47.605126 
L 628.16093 47.827969 
L 628.768655 48.050812 
L 629.360581 48.273656 
L 629.928672 48.496499 
L 630.464761 48.719343 
L 630.960819 48.942186 
L 631.409241 49.165029 
L 631.803115 49.387873 
L 632.136465 49.610716 
L 632.404446 49.83356 
L 632.603489 50.056403 
L 632.731369 50.279246 
L 632.787222 50.50209 
L 632.771484 50.724933 
L 632.685782 50.947776 
L 632.532783 51.17062 
L 632.316015 51.393463 
L 632.039669 51.616307 
L 631.70842 51.83915 
L 631.327249 52.061993 
L 630.901297 52.284837 
L 630.435753 52.50768 
L 629.935767 52.730524 
L 629.4064 52.953367 
L 628.852595 53.17621 
L 628.279165 53.399054 
L 627.690797 53.621897 
L 627.092052 53.844741 
L 626.487373 54.067584 
L 625.881075 54.290427 
L 625.277335 54.513271 
L 624.680174 54.736114 
L 624.09342 54.958958 
L 623.520678 55.181801 
L 622.965291 55.404644 
L 622.430299 55.627488 
L 621.918404 55.850331 
L 621.43194 56.073174 
L 620.97284 56.296018 
L 620.542625 56.518861 
L 620.14239 56.741705 
L 619.772799 56.964548 
L 619.4341 57.187391 
L 619.126132 57.410235 
L 618.848355 57.633078 
L 618.599881 57.855922 
L 618.379511 58.078765 
L 618.185786 58.301608 
L 618.017035 58.524452 
L 617.871432 58.747295 
L 617.747049 58.970139 
L 617.641914 59.192982 
L 617.554067 59.415825 
L 617.481605 59.638669 
L 617.422732 59.861512 
L 617.37579 60.084356 
L 617.339297 60.307199 
L 617.311961 60.530042 
L 617.292699 60.752886 
L 617.280637 60.975729 
L 617.275112 61.198572 
L 617.275656 61.421416 
L 617.281978 61.644259 
L 617.293938 61.867103 
L 617.311512 62.089946 
L 617.334758 62.312789 
L 617.363764 62.535633 
L 617.398607 62.758476 
L 617.439304 62.98132 
L 617.485759 63.204163 
L 617.537726 63.427006 
L 617.594764 63.64985 
L 617.656211 63.872693 
L 617.72117 64.095537 
L 617.788503 64.31838 
L 617.856852 64.541223 
L 617.924665 64.764067 
L 617.990251 64.98691 
L 618.051841 65.209753 
L 618.107664 65.432597 
L 618.156029 65.65544 
L 618.195409 65.878284 
L 618.224521 66.101127 
L 618.242392 66.32397 
L 618.248417 66.546814 
z
" clip-path="url(#p3679caafc0)" style="fill: #1f77b4; fill-opacity: 0.3"/>
   </g>
   <g id="PolyCollection_10">
    <path d="M 683.884966 166.142262 
L 675.256145 166.142262 
L 674.981601 166.098472 
L 674.697612 166.054682 
L 674.404026 166.010892 
L 674.10069 165.967102 
L 673.787456 165.923312 
L 673.464207 165.879522 
L 673.130876 165.835733 
L 672.787466 165.791943 
L 672.434077 165.748153 
L 672.070933 165.704363 
L 671.698404 165.660573 
L 671.317036 165.616783 
L 670.927568 165.572993 
L 670.530953 165.529204 
L 670.128375 165.485414 
L 669.721252 165.441624 
L 669.311243 165.397834 
L 668.900239 165.354044 
L 668.490351 165.310254 
L 668.083888 165.266464 
L 667.683324 165.222675 
L 667.291262 165.178885 
L 666.910388 165.135095 
L 666.543418 165.091305 
L 666.193041 165.047515 
L 665.861862 165.003725 
L 665.552337 164.959935 
L 665.266712 164.916146 
L 665.00697 164.872356 
L 664.774775 164.828566 
L 664.571426 164.784776 
L 664.397821 164.740986 
L 664.254429 164.697196 
L 664.141275 164.653406 
L 664.057936 164.609616 
L 664.003548 164.565827 
L 663.97683 164.522037 
L 663.976111 164.478247 
L 663.999377 164.434457 
L 664.04432 164.390667 
L 664.108392 164.346877 
L 664.188877 164.303087 
L 664.282947 164.259298 
L 664.387735 164.215508 
L 664.500397 164.171718 
L 664.618174 164.127928 
L 664.738447 164.084138 
L 664.858784 164.040348 
L 664.976985 163.996558 
L 665.091109 163.952769 
L 665.199495 163.908979 
L 665.300782 163.865189 
L 665.393906 163.821399 
L 665.478095 163.777609 
L 665.552866 163.733819 
L 665.617997 163.690029 
L 665.673515 163.64624 
L 665.719665 163.60245 
L 665.756884 163.55866 
L 665.785779 163.51487 
L 665.807098 163.47108 
L 665.821706 163.42729 
L 665.830565 163.3835 
L 665.834719 163.33971 
L 665.835274 163.295921 
L 665.833391 163.252131 
L 665.830277 163.208341 
L 665.827179 163.164551 
L 665.825377 163.120761 
L 665.826187 163.076971 
L 665.830952 163.033181 
L 665.841043 162.989392 
L 665.857851 162.945602 
L 665.88278 162.901812 
L 665.917242 162.858022 
L 665.962637 162.814232 
L 666.020347 162.770442 
L 666.091712 162.726652 
L 666.178013 162.682863 
L 666.28045 162.639073 
L 666.400119 162.595283 
L 666.537991 162.551493 
L 666.694886 162.507703 
L 666.871453 162.463913 
L 667.068153 162.420123 
L 667.285239 162.376334 
L 667.522745 162.332544 
L 667.780477 162.288754 
L 668.058008 162.244964 
L 668.354678 162.201174 
L 668.669599 162.157384 
L 669.001662 162.113594 
L 669.349556 162.069805 
L 669.711778 162.026015 
L 670.086661 161.982225 
L 670.472391 161.938435 
L 670.867039 161.894645 
L 671.268588 161.850855 
L 671.674957 161.807065 
L 687.466154 161.807065 
L 687.466154 161.807065 
L 687.872523 161.850855 
L 688.274072 161.894645 
L 688.66872 161.938435 
L 689.054451 161.982225 
L 689.429333 162.026015 
L 689.791555 162.069805 
L 690.139449 162.113594 
L 690.471513 162.157384 
L 690.786433 162.201174 
L 691.083103 162.244964 
L 691.360634 162.288754 
L 691.618366 162.332544 
L 691.855872 162.376334 
L 692.072958 162.420123 
L 692.269658 162.463913 
L 692.446225 162.507703 
L 692.60312 162.551493 
L 692.740992 162.595283 
L 692.860662 162.639073 
L 692.963099 162.682863 
L 693.049399 162.726652 
L 693.120764 162.770442 
L 693.178474 162.814232 
L 693.22387 162.858022 
L 693.258331 162.901812 
L 693.28326 162.945602 
L 693.300068 162.989392 
L 693.310159 163.033181 
L 693.314924 163.076971 
L 693.315734 163.120761 
L 693.313932 163.164551 
L 693.310834 163.208341 
L 693.30772 163.252131 
L 693.305837 163.295921 
L 693.306392 163.33971 
L 693.310546 163.3835 
L 693.319405 163.42729 
L 693.334013 163.47108 
L 693.355332 163.51487 
L 693.384227 163.55866 
L 693.421446 163.60245 
L 693.467596 163.64624 
L 693.523114 163.690029 
L 693.588245 163.733819 
L 693.663016 163.777609 
L 693.747206 163.821399 
L 693.840329 163.865189 
L 693.941616 163.908979 
L 694.050002 163.952769 
L 694.164126 163.996558 
L 694.282327 164.040348 
L 694.402664 164.084138 
L 694.522937 164.127928 
L 694.640714 164.171718 
L 694.753376 164.215508 
L 694.858164 164.259298 
L 694.952234 164.303087 
L 695.032719 164.346877 
L 695.096791 164.390667 
L 695.141734 164.434457 
L 695.165 164.478247 
L 695.164281 164.522037 
L 695.137563 164.565827 
L 695.083175 164.609616 
L 694.999836 164.653406 
L 694.886682 164.697196 
L 694.74329 164.740986 
L 694.569685 164.784776 
L 694.366336 164.828566 
L 694.134141 164.872356 
L 693.874399 164.916146 
L 693.588774 164.959935 
L 693.279249 165.003725 
L 692.94807 165.047515 
L 692.597693 165.091305 
L 692.230723 165.135095 
L 691.849849 165.178885 
L 691.457787 165.222675 
L 691.057223 165.266464 
L 690.65076 165.310254 
L 690.240872 165.354044 
L 689.829868 165.397834 
L 689.419859 165.441624 
L 689.012736 165.485414 
L 688.610158 165.529204 
L 688.213543 165.572993 
L 687.824075 165.616783 
L 687.442707 165.660573 
L 687.070178 165.704363 
L 686.707034 165.748153 
L 686.353645 165.791943 
L 686.010235 165.835733 
L 685.676904 165.879522 
L 685.353655 165.923312 
L 685.040421 165.967102 
L 684.737085 166.010892 
L 684.4435 166.054682 
L 684.159511 166.098472 
L 683.884966 166.142262 
z
" clip-path="url(#p3679caafc0)" style="fill: #1f77b4; fill-opacity: 0.3"/>
   </g>
   <g id="matplotlib.axis_3">
    <g id="xtick_6">
     <g id="line2d_25">
      <g>
       <use xlink:href="#m09506e78af" x="430.059444" y="234.376" style="stroke: #000000; stroke-width: 0.8"/>
      </g>
     </g>
     <g id="text_16">
      <text style="font: 11px 'Arial'; text-anchor: middle" x="430.059444" y="249.249594" transform="rotate(-0, 430.059444, 249.249594)">Arche</text>
     </g>
    </g>
    <g id="xtick_7">
     <g id="line2d_26">
      <g>
       <use xlink:href="#m09506e78af" x="492.437222" y="234.376" style="stroke: #000000; stroke-width: 0.8"/>
      </g>
     </g>
     <g id="text_17">
      <text style="font: 11px 'Arial'" transform="translate(454.217378 249.249594)">go-gameengine</text>
      <text style="font: 11px 'Arial'" transform="translate(482.047378 261.013062)">-ecs</text>
     </g>
    </g>
    <g id="xtick_8">
     <g id="line2d_27">
      <g>
       <use xlink:href="#m09506e78af" x="554.815" y="234.376" style="stroke: #000000; stroke-width: 0.8"/>
      </g>
     </g>
     <g id="text_18">
      <text style="font: 11px 'Arial'; text-anchor: middle" x="554.815" y="249.249594" transform="rotate(-0, 554.815, 249.249594)">Donburi</text>
     </g>
    </g>
    <g id="xtick_9">
     <g id="line2d_28">
      <g>
       <use xlink:href="#m09506e78af" x="617.192778" y="234.376" style="stroke: #000000; stroke-width: 0.8"/>
      </g>
     </g>
     <g id="text_19">
      <text style="font: 11px 'Arial'; text-anchor: middle" x="617.192778" y="249.249594" transform="rotate(-0, 617.192778, 249.249594)">Entitas-Go</text>
     </g>
    </g>
    <g id="xtick_10">
     <g id="line2d_29">
      <g>
       <use xlink:href="#m09506e78af" x="679.570556" y="234.376" style="stroke: #000000; stroke-width: 0.8"/>
      </g>
     </g>
     <g id="text_20">
      <text style="font: 11px 'Arial'; text-anchor: middle" x="679.570556" y="249.249594" transform="rotate(-0, 679.570556, 249.249594)">Ento</text>
     </g>
    </g>
    <g id="text_21">
     <text style="font: 11px 'Arial'; text-anchor: middle" x="554.815" y="275.072906" transform="rotate(-0, 554.815, 275.072906)">Engine</text>
    </g>
   </g>
   <g id="matplotlib.axis_4">
    <g id="ytick_20">
     <g id="line2d_30">
      <g>
       <use xlink:href="#m2872ff7c94" x="400.43" y="234.376" style="stroke: #000000; stroke-width: 0.8"/>
      </g>
     </g>
     <g id="text_22">
      <text style="font: 10px 'Arial'; text-anchor: end" x="393.43" y="237.954906" transform="rotate(-0, 393.43, 237.954906)">0</text>
     </g>
    </g>
    <g id="ytick_21">
     <g id="line2d_31">
      <g>
       <use xlink:href="#m2872ff7c94" x="400.43" y="194.92711" style="stroke: #000000; stroke-width: 0.8"/>
      </g>
     </g>
     <g id="text_23">
      <text style="font: 10px 'Arial'; text-anchor: end" x="393.43" y="198.506017" transform="rotate(-0, 393.43, 198.506017)">2</text>
     </g>
    </g>
    <g id="ytick_22">
     <g id="line2d_32">
      <g>
       <use xlink:href="#m2872ff7c94" x="400.43" y="155.478221" style="stroke: #000000; stroke-width: 0.8"/>
      </g>
     </g>
     <g id="text_24">
      <text style="font: 10px 'Arial'; text-anchor: end" x="393.43" y="159.057127" transform="rotate(-0, 393.43, 159.057127)">4</text>
     </g>
    </g>
    <g id="ytick_23">
     <g id="line2d_33">
      <g>
       <use xlink:href="#m2872ff7c94" x="400.43" y="116.029331" style="stroke: #000000; stroke-width: 0.8"/>
      </g>
     </g>
     <g id="text_25">
      <text style="font: 10px 'Arial'; text-anchor: end" x="393.43" y="119.608237" transform="rotate(-0, 393.43, 119.608237)">6</text>
     </g>
    </g>
    <g id="ytick_24">
     <g id="line2d_34">
      <g>
       <use xlink:href="#m2872ff7c94" x="400.43" y="76.580442" style="stroke: #000000; stroke-width: 0.8"/>
      </g>
     </g>
     <g id="text_26">
      <text style="font: 10px 'Arial'; text-anchor: end" x="393.43" y="80.159348" transform="rotate(-0, 393.43, 80.159348)">8</text>
     </g>
    </g>
    <g id="ytick_25">
     <g id="line2d_35">
      <g>
       <use xlink:href="#m2872ff7c94" x="400.43" y="37.131552" style="stroke: #000000; stroke-width: 0.8"/>
      </g>
     </g>
     <g id="text_27">
      <text style="font: 10px 'Arial'; text-anchor: end" x="393.43" y="40.710458" transform="rotate(-0, 393.43, 40.710458)">10</text>
     </g>
    </g>
    <g id="text_28">
     <text style="font: 11px 'Arial'; text-anchor: middle" x="376.121875" y="129.936125" transform="rotate(-90, 376.121875, 129.936125)">Time per run [ms]</text>
    </g>
   </g>
   <g id="LineCollection_2">
    <path d="M 422.262222 210.46509 
L 437.856667 210.46509 
" clip-path="url(#p3679caafc0)" style="fill: none; stroke: #1f77b4; stroke-width: 1.5"/>
    <path d="M 484.64 188.474166 
L 500.234444 188.474166 
" clip-path="url(#p3679caafc0)" style="fill: none; stroke: #1f77b4; stroke-width: 1.5"/>
    <path d="M 547.017778 160.515288 
L 562.612222 160.515288 
" clip-path="url(#p3679caafc0)" style="fill: none; stroke: #1f77b4; stroke-width: 1.5"/>
    <path d="M 609.395556 51.155084 
L 624.99 51.155084 
" clip-path="url(#p3679caafc0)" style="fill: none; stroke: #1f77b4; stroke-width: 1.5"/>
    <path d="M 671.773333 163.802886 
L 687.367778 163.802886 
" clip-path="url(#p3679caafc0)" style="fill: none; stroke: #1f77b4; stroke-width: 1.5"/>
   </g>
   <g id="patch_8">
    <path d="M 400.43 234.376 
L 400.43 25.49625 
" style="fill: none; stroke: #000000; stroke-width: 0.8; stroke-linejoin: miter; stroke-linecap: square"/>
   </g>
   <g id="patch_9">
    <path d="M 709.2 234.376 
L 709.2 25.49625 
" style="fill: none; stroke: #000000; stroke-width: 0.8; stroke-linejoin: miter; stroke-linecap: square"/>
   </g>
   <g id="patch_10">
    <path d="M 400.43 234.376 
L 709.2 234.376 
" style="fill: none; stroke: #000000; stroke-width: 0.8; stroke-linejoin: miter; stroke-linecap: square"/>
   </g>
   <g id="patch_11">
    <path d="M 400.43 25.49625 
L 709.2 25.49625 
" style="fill: none; stroke: #000000; stroke-width: 0.8; stroke-linejoin: miter; stroke-linecap: square"/>
   </g>
   <g id="text_29">
    <text style="font: 12px 'Arial'; text-anchor: middle" x="554.815" y="19.49625" transform="rotate(-0, 554.815, 19.49625)">Position/Velocity -- Build</text>
   </g>
  </g>
 </g>
 <defs>
  <clipPath id="p027e1b69e2">
   <rect x="48.62" y="25.49625" width="308.77" height="208.87975"/>
  </clipPath>
  <clipPath id="p3679caafc0">
   <rect x="400.43" y="25.49625" width="308.77" height="208.87975"/>
  </clipPath>
 </defs>
</svg>
