<?xml version="1.0" encoding="utf-8" standalone="no"?>
<!DOCTYPE svg PUBLIC "-//W3C//DTD SVG 1.1//EN"
  "http://www.w3.org/Graphics/SVG/1.1/DTD/svg11.dtd">
<svg xmlns:xlink="http://www.w3.org/1999/xlink" width="720pt" height="288pt" viewBox="0 0 720 288" xmlns="http://www.w3.org/2000/svg" version="1.1">
 <metadata>
  <rdf:RDF xmlns:dc="http://purl.org/dc/elements/1.1/" xmlns:cc="http://creativecommons.org/ns#" xmlns:rdf="http://www.w3.org/1999/02/22-rdf-syntax-ns#">
   <cc:Work>
    <dc:type rdf:resource="http://purl.org/dc/dcmitype/StillImage"/>
    <dc:date>2023-03-22T01:27:24.361238</dc:date>
    <dc:format>image/svg+xml</dc:format>
    <dc:creator>
     <cc:Agent>
      <dc:title>Matplotlib v3.5.1, https://matplotlib.org/</dc:title>
     </cc:Agent>
    </dc:creator>
   </cc:Work>
  </rdf:RDF>
 </metadata>
 <defs>
  <style type="text/css">*{stroke-linejoin: round; stroke-linecap: butt}</style>
 </defs>
 <g id="figure_1">
  <g id="patch_1">
   <path d="M 0 288 
L 720 288 
L 720 0 
L 0 0 
z
" style="fill: #ffffff"/>
  </g>
  <g id="axes_1">
   <g id="patch_2">
    <path d="M 48.62 248.456 
L 357.39 248.456 
L 357.39 25.49625 
L 48.62 25.49625 
z
" style="fill: #ffffff"/>
   </g>
   <g id="PolyCollection_1">
    <path d="M 85.728689 209.545346 
L 70.7702 209.545346 
L 70.369481 209.518209 
L 69.965223 209.491089 
L 69.558559 209.463987 
L 69.150667 209.436902 
L 68.742762 209.409835 
L 68.336104 209.382785 
L 67.931998 209.355752 
L 67.531797 209.328737 
L 67.136902 209.301739 
L 66.748768 209.274758 
L 66.368893 209.247794 
L 65.998825 209.220848 
L 65.640151 209.193919 
L 65.294489 209.167008 
L 64.963479 209.140113 
L 64.648765 209.113236 
L 64.351983 209.086376 
L 64.074734 209.059533 
L 63.818565 209.032707 
L 63.584942 209.005898 
L 63.375225 208.979106 
L 63.190635 208.952332 
L 63.032229 208.925574 
L 62.900872 208.898833 
L 62.797207 208.87211 
L 62.721633 208.845403 
L 62.674282 208.818713 
L 62.655 208.79204 
L 62.663337 208.765384 
L 62.698536 208.738745 
L 62.759531 208.712123 
L 62.84495 208.685518 
L 62.953125 208.658929 
L 63.08211 208.632357 
L 63.229696 208.605802 
L 63.393448 208.579264 
L 63.570728 208.552742 
L 63.758739 208.526238 
L 63.954565 208.499749 
L 64.155212 208.473278 
L 64.357659 208.446823 
L 64.558905 208.420385 
L 64.756014 208.393963 
L 64.946169 208.367558 
L 65.126713 208.34117 
L 65.295196 208.314798 
L 65.449414 208.288442 
L 65.587447 208.262103 
L 65.70769 208.235781 
L 65.808879 208.209475 
L 65.890113 208.183185 
L 65.950865 208.156912 
L 65.990994 208.130655 
L 66.010741 208.104415 
L 66.010724 208.078191 
L 65.991925 208.051983 
L 65.955673 208.025791 
L 65.903614 207.999616 
L 65.837679 207.973457 
L 65.760051 207.947315 
L 65.673121 207.921188 
L 65.579443 207.895078 
L 65.481687 207.868984 
L 65.382591 207.842906 
L 65.28491 207.816845 
L 65.191367 207.790799 
L 65.104606 207.76477 
L 65.027147 207.738757 
L 64.961344 207.712759 
L 64.909352 207.686778 
L 64.873091 207.660813 
L 64.854225 207.634864 
L 64.854144 207.608931 
L 64.873947 207.583013 
L 64.914443 207.557112 
L 64.976152 207.531227 
L 65.05931 207.505357 
L 65.163887 207.479504 
L 65.289604 207.453666 
L 65.435958 207.427845 
L 65.602249 207.402039 
L 65.787609 207.376248 
L 65.991031 207.350474 
L 66.211405 207.324716 
L 66.447541 207.298973 
L 66.698204 207.273246 
L 66.962133 207.247534 
L 67.238071 207.221839 
L 67.524778 207.196159 
L 67.821048 207.170494 
L 68.125718 207.144846 
L 68.437678 207.119213 
L 68.755871 207.093595 
L 69.079294 207.067994 
L 69.406992 207.042407 
L 69.738054 207.016836 
L 70.071607 206.991281 
L 70.406805 206.965742 
L 70.742822 206.940217 
L 85.756067 206.940217 
L 85.756067 206.940217 
L 86.092084 206.965742 
L 86.427282 206.991281 
L 86.760835 207.016836 
L 87.091897 207.042407 
L 87.419595 207.067994 
L 87.743018 207.093595 
L 88.061211 207.119213 
L 88.373171 207.144846 
L 88.677841 207.170494 
L 88.974111 207.196159 
L 89.260817 207.221839 
L 89.536756 207.247534 
L 89.800685 207.273246 
L 90.051348 207.298973 
L 90.287484 207.324716 
L 90.507857 207.350474 
L 90.71128 207.376248 
L 90.89664 207.402039 
L 91.062931 207.427845 
L 91.209285 207.453666 
L 91.335002 207.479504 
L 91.439579 207.505357 
L 91.522737 207.531227 
L 91.584446 207.557112 
L 91.624942 207.583013 
L 91.644745 207.608931 
L 91.644664 207.634864 
L 91.625798 207.660813 
L 91.589537 207.686778 
L 91.537545 207.712759 
L 91.471742 207.738757 
L 91.394283 207.76477 
L 91.307522 207.790799 
L 91.213979 207.816845 
L 91.116298 207.842906 
L 91.017202 207.868984 
L 90.919446 207.895078 
L 90.825768 207.921188 
L 90.738838 207.947315 
L 90.66121 207.973457 
L 90.595275 207.999616 
L 90.543215 208.025791 
L 90.506964 208.051983 
L 90.488165 208.078191 
L 90.488148 208.104415 
L 90.507894 208.130655 
L 90.548023 208.156912 
L 90.608776 208.183185 
L 90.69001 208.209475 
L 90.791199 208.235781 
L 90.911442 208.262103 
L 91.049475 208.288442 
L 91.203693 208.314798 
L 91.372176 208.34117 
L 91.55272 208.367558 
L 91.742875 208.393963 
L 91.939984 208.420385 
L 92.14123 208.446823 
L 92.343677 208.473278 
L 92.544324 208.499749 
L 92.74015 208.526238 
L 92.928161 208.552742 
L 93.105441 208.579264 
L 93.269193 208.605802 
L 93.416779 208.632357 
L 93.545764 208.658929 
L 93.653939 208.685518 
L 93.739358 208.712123 
L 93.800353 208.738745 
L 93.835552 208.765384 
L 93.843889 208.79204 
L 93.824607 208.818713 
L 93.777256 208.845403 
L 93.701682 208.87211 
L 93.598017 208.898833 
L 93.46666 208.925574 
L 93.308254 208.952332 
L 93.123664 208.979106 
L 92.913947 209.005898 
L 92.680324 209.032707 
L 92.424155 209.059533 
L 92.146906 209.086376 
L 91.850123 209.113236 
L 91.53541 209.140113 
L 91.2044 209.167008 
L 90.858738 209.193919 
L 90.500064 209.220848 
L 90.129996 209.247794 
L 89.750121 209.274758 
L 89.361986 209.301739 
L 88.967092 209.328737 
L 88.566891 209.355752 
L 88.162785 209.382785 
L 87.756127 209.409835 
L 87.348222 209.436902 
L 86.940329 209.463987 
L 86.533666 209.491089 
L 86.129407 209.518209 
L 85.728689 209.545346 
z
" clip-path="url(#pa0dc2eb6c0)" style="fill: #1f77b4; fill-opacity: 0.3"/>
   </g>
   <g id="PolyCollection_2">
    <path d="M 152.502654 186.415412 
L 128.75179 186.415412 
L 128.317778 186.34453 
L 127.901458 186.273768 
L 127.505394 186.203124 
L 127.132031 186.132599 
L 126.783671 186.062192 
L 126.462444 185.991903 
L 126.170286 185.921731 
L 125.908912 185.851675 
L 125.679804 185.781736 
L 125.484191 185.711913 
L 125.323037 185.642206 
L 125.197037 185.572614 
L 125.10661 185.503137 
L 125.0519 185.433774 
L 125.032778 185.364526 
L 125.04885 185.295391 
L 125.09947 185.22637 
L 125.183747 185.157462 
L 125.300567 185.088666 
L 125.448609 185.019983 
L 125.626364 184.951412 
L 125.832156 184.882952 
L 126.064167 184.814603 
L 126.320455 184.746365 
L 126.59898 184.678238 
L 126.897621 184.610221 
L 127.214202 184.542313 
L 127.546511 184.474515 
L 127.892315 184.406826 
L 128.249379 184.339246 
L 128.615481 184.271774 
L 128.988427 184.20441 
L 129.366059 184.137154 
L 129.746269 184.070005 
L 130.127002 184.002963 
L 130.506269 183.936028 
L 130.882148 183.869199 
L 131.252792 183.802475 
L 131.616428 183.735858 
L 131.971365 183.669346 
L 132.315993 183.602939 
L 132.648787 183.536636 
L 132.968309 183.470438 
L 133.273212 183.404344 
L 133.562241 183.338353 
L 133.834235 183.272466 
L 134.088136 183.206681 
L 134.322989 183.141 
L 134.537947 183.07542 
L 134.732277 183.009943 
L 134.905368 182.944568 
L 135.056731 182.879294 
L 135.186011 182.814121 
L 135.292989 182.749048 
L 135.377586 182.684077 
L 135.439874 182.619205 
L 135.480072 182.554433 
L 135.498556 182.489761 
L 135.495856 182.425188 
L 135.472658 182.360714 
L 135.429806 182.296339 
L 135.368295 182.232062 
L 135.289268 182.167883 
L 135.194013 182.103801 
L 135.083948 182.039817 
L 134.960621 181.975931 
L 134.825687 181.912141 
L 134.680905 181.848447 
L 134.528116 181.78485 
L 134.369229 181.721349 
L 134.206204 181.657944 
L 134.041034 181.594634 
L 133.875722 181.531419 
L 133.712266 181.468299 
L 133.552636 181.405273 
L 133.398756 181.342342 
L 133.252481 181.279504 
L 133.115584 181.216761 
L 132.989734 181.154111 
L 132.876481 181.091553 
L 132.77724 181.029089 
L 132.693281 180.966718 
L 132.625712 180.904438 
L 132.575476 180.842251 
L 132.543338 180.780155 
L 132.529886 180.718151 
L 132.535522 180.656238 
L 132.560466 180.594416 
L 132.604758 180.532685 
L 132.668258 180.471044 
L 132.750656 180.409494 
L 132.851477 180.348033 
L 132.970093 180.286662 
L 133.105733 180.22538 
L 133.257496 180.164188 
L 133.424363 180.103084 
L 133.605213 180.042069 
L 133.79884 179.981142 
L 134.003964 179.920303 
L 147.25048 179.920303 
L 147.25048 179.920303 
L 147.455605 179.981142 
L 147.649231 180.042069 
L 147.830082 180.103084 
L 147.996948 180.164188 
L 148.148711 180.22538 
L 148.284351 180.286662 
L 148.402968 180.348033 
L 148.503789 180.409494 
L 148.586187 180.471044 
L 148.649687 180.532685 
L 148.693978 180.594416 
L 148.718923 180.656238 
L 148.724559 180.718151 
L 148.711106 180.780155 
L 148.678969 180.842251 
L 148.628732 180.904438 
L 148.561164 180.966718 
L 148.477204 181.029089 
L 148.377964 181.091553 
L 148.26471 181.154111 
L 148.13886 181.216761 
L 148.001964 181.279504 
L 147.855689 181.342342 
L 147.701808 181.405273 
L 147.542178 181.468299 
L 147.378723 181.531419 
L 147.213411 181.594634 
L 147.04824 181.657944 
L 146.885216 181.721349 
L 146.726329 181.78485 
L 146.573539 181.848447 
L 146.428757 181.912141 
L 146.293824 181.975931 
L 146.170496 182.039817 
L 146.060432 182.103801 
L 145.965176 182.167883 
L 145.88615 182.232062 
L 145.824638 182.296339 
L 145.781786 182.360714 
L 145.758589 182.425188 
L 145.755888 182.489761 
L 145.774372 182.554433 
L 145.81457 182.619205 
L 145.876858 182.684077 
L 145.961456 182.749048 
L 146.068433 182.814121 
L 146.197713 182.879294 
L 146.349077 182.944568 
L 146.522167 183.009943 
L 146.716498 183.07542 
L 146.931455 183.141 
L 147.166308 183.206681 
L 147.420209 183.272466 
L 147.692204 183.338353 
L 147.981232 183.404344 
L 148.286135 183.470438 
L 148.605658 183.536636 
L 148.938451 183.602939 
L 149.283079 183.669346 
L 149.638016 183.735858 
L 150.001652 183.802475 
L 150.372296 183.869199 
L 150.748176 183.936028 
L 151.127443 184.002963 
L 151.508176 184.070005 
L 151.888385 184.137154 
L 152.266017 184.20441 
L 152.638963 184.271774 
L 153.005066 184.339246 
L 153.36213 184.406826 
L 153.707933 184.474515 
L 154.040242 184.542313 
L 154.356824 184.610221 
L 154.655465 184.678238 
L 154.933989 184.746365 
L 155.190277 184.814603 
L 155.422288 184.882952 
L 155.628081 184.951412 
L 155.805836 185.019983 
L 155.953878 185.088666 
L 156.070698 185.157462 
L 156.154975 185.22637 
L 156.205594 185.295391 
L 156.221667 185.364526 
L 156.202544 185.433774 
L 156.147834 185.503137 
L 156.057407 185.572614 
L 155.931408 185.642206 
L 155.770254 185.711913 
L 155.57464 185.781736 
L 155.345532 185.851675 
L 155.084159 185.921731 
L 154.792 185.991903 
L 154.470774 186.062192 
L 154.122414 186.132599 
L 153.749051 186.203124 
L 153.352986 186.273768 
L 152.936666 186.34453 
L 152.502654 186.415412 
z
" clip-path="url(#pa0dc2eb6c0)" style="fill: #1f77b4; fill-opacity: 0.3"/>
   </g>
   <g id="PolyCollection_3">
    <path d="M 213.396604 126.60872 
L 192.613396 126.60872 
L 191.920351 126.567979 
L 191.252673 126.527278 
L 190.618478 126.486615 
L 190.025422 126.445992 
L 189.480535 126.405409 
L 188.990081 126.364864 
L 188.559449 126.324358 
L 188.193076 126.283891 
L 187.894402 126.243463 
L 187.665858 126.203074 
L 187.508877 126.162724 
L 187.423926 126.122412 
L 187.410556 126.082139 
L 187.467458 126.041904 
L 187.592528 126.001708 
L 187.782932 125.96155 
L 188.035169 125.921431 
L 188.345128 125.881349 
L 188.708155 125.841306 
L 189.119104 125.801301 
L 189.572404 125.761334 
L 190.06212 125.721405 
L 190.582026 125.681513 
L 191.12569 125.64166 
L 191.686561 125.601844 
L 192.258075 125.562066 
L 192.833766 125.522325 
L 193.40738 125.482622 
L 193.972997 125.442956 
L 194.525149 125.403328 
L 195.058928 125.363737 
L 195.570083 125.324183 
L 196.055105 125.284666 
L 196.51128 125.245186 
L 196.936727 125.205744 
L 197.330406 125.166338 
L 197.692095 125.126969 
L 198.022349 125.087637 
L 198.322425 125.048341 
L 198.594194 125.009083 
L 198.84003 124.969861 
L 199.062691 124.930675 
L 199.265192 124.891526 
L 199.450671 124.852413 
L 199.622269 124.813337 
L 199.78301 124.774297 
L 199.9357 124.735293 
L 200.082838 124.696325 
L 200.226551 124.657393 
L 200.368547 124.618497 
L 200.510089 124.579637 
L 200.651996 124.540813 
L 200.794656 124.502025 
L 200.938063 124.463272 
L 201.081862 124.424555 
L 201.225412 124.385874 
L 201.367853 124.347228 
L 201.50817 124.308618 
L 201.645267 124.270043 
L 201.778031 124.231503 
L 201.905386 124.192999 
L 202.026346 124.15453 
L 202.140047 124.116096 
L 202.245778 124.077697 
L 202.342993 124.039333 
L 202.431313 124.001004 
L 202.510522 123.96271 
L 202.580552 123.924451 
L 202.641462 123.886226 
L 202.693415 123.848036 
L 202.736651 123.809881 
L 202.771463 123.77176 
L 202.798171 123.733674 
L 202.817105 123.695623 
L 202.828589 123.657605 
L 202.83293 123.619622 
L 202.830417 123.581673 
L 202.821321 123.543759 
L 202.805906 123.505878 
L 202.78444 123.468032 
L 202.757212 123.43022 
L 202.724549 123.392441 
L 202.686839 123.354697 
L 202.644546 123.316986 
L 202.598228 123.279309 
L 202.548547 123.241666 
L 202.496277 123.204056 
L 202.442301 123.16648 
L 202.387603 123.128938 
L 202.333255 123.091429 
L 202.280387 123.053953 
L 202.230166 123.016511 
L 202.183751 122.979102 
L 202.14226 122.941726 
L 202.10673 122.904383 
L 202.078072 122.867074 
L 202.057038 122.829797 
L 202.044192 122.792554 
L 202.039882 122.755343 
L 203.970118 122.755343 
L 203.970118 122.755343 
L 203.965808 122.792554 
L 203.952962 122.829797 
L 203.931928 122.867074 
L 203.90327 122.904383 
L 203.86774 122.941726 
L 203.826249 122.979102 
L 203.779834 123.016511 
L 203.729613 123.053953 
L 203.676745 123.091429 
L 203.622397 123.128938 
L 203.567699 123.16648 
L 203.513723 123.204056 
L 203.461453 123.241666 
L 203.411772 123.279309 
L 203.365454 123.316986 
L 203.323161 123.354697 
L 203.285451 123.392441 
L 203.252788 123.43022 
L 203.22556 123.468032 
L 203.204094 123.505878 
L 203.188679 123.543759 
L 203.179583 123.581673 
L 203.17707 123.619622 
L 203.181411 123.657605 
L 203.192895 123.695623 
L 203.211829 123.733674 
L 203.238537 123.77176 
L 203.273349 123.809881 
L 203.316585 123.848036 
L 203.368538 123.886226 
L 203.429448 123.924451 
L 203.499478 123.96271 
L 203.578687 124.001004 
L 203.667007 124.039333 
L 203.764222 124.077697 
L 203.869953 124.116096 
L 203.983654 124.15453 
L 204.104614 124.192999 
L 204.231969 124.231503 
L 204.364733 124.270043 
L 204.50183 124.308618 
L 204.642147 124.347228 
L 204.784588 124.385874 
L 204.928138 124.424555 
L 205.071937 124.463272 
L 205.215344 124.502025 
L 205.358004 124.540813 
L 205.499911 124.579637 
L 205.641453 124.618497 
L 205.783449 124.657393 
L 205.927162 124.696325 
L 206.0743 124.735293 
L 206.22699 124.774297 
L 206.387731 124.813337 
L 206.559329 124.852413 
L 206.744808 124.891526 
L 206.947309 124.930675 
L 207.16997 124.969861 
L 207.415806 125.009083 
L 207.687575 125.048341 
L 207.987651 125.087637 
L 208.317905 125.126969 
L 208.679594 125.166338 
L 209.073273 125.205744 
L 209.49872 125.245186 
L 209.954895 125.284666 
L 210.439917 125.324183 
L 210.951072 125.363737 
L 211.484851 125.403328 
L 212.037003 125.442956 
L 212.60262 125.482622 
L 213.176234 125.522325 
L 213.751925 125.562066 
L 214.323439 125.601844 
L 214.88431 125.64166 
L 215.427974 125.681513 
L 215.94788 125.721405 
L 216.437596 125.761334 
L 216.890896 125.801301 
L 217.301845 125.841306 
L 217.664872 125.881349 
L 217.974831 125.921431 
L 218.227068 125.96155 
L 218.417472 126.001708 
L 218.542542 126.041904 
L 218.599444 126.082139 
L 218.586074 126.122412 
L 218.501123 126.162724 
L 218.344142 126.203074 
L 218.115598 126.243463 
L 217.816924 126.283891 
L 217.450551 126.324358 
L 217.019919 126.364864 
L 216.529465 126.405409 
L 215.984578 126.445992 
L 215.391522 126.486615 
L 214.757327 126.527278 
L 214.089649 126.567979 
L 213.396604 126.60872 
z
" clip-path="url(#pa0dc2eb6c0)" style="fill: #1f77b4; fill-opacity: 0.3"/>
   </g>
   <g id="PolyCollection_4">
    <path d="M 268.353012 110.734304 
L 262.412543 110.734304 
L 262.325754 110.621504 
L 262.247919 110.509005 
L 262.179638 110.396806 
L 262.121394 110.284906 
L 262.073549 110.173302 
L 262.036339 110.061993 
L 262.009868 109.950979 
L 261.994111 109.840256 
L 261.98891 109.729824 
L 261.993983 109.61968 
L 262.008927 109.509825 
L 262.033224 109.400255 
L 262.066252 109.29097 
L 262.107295 109.181968 
L 262.155552 109.073248 
L 262.210149 108.964808 
L 262.270153 108.856646 
L 262.334581 108.748762 
L 262.402412 108.641154 
L 262.4726 108.53382 
L 262.544077 108.426759 
L 262.615767 108.31997 
L 262.686588 108.213451 
L 262.755457 108.107202 
L 262.821292 108.001219 
L 262.883012 107.895504 
L 262.939532 107.790052 
L 262.989762 107.684865 
L 263.032597 107.57994 
L 263.066914 107.475276 
L 263.09156 107.370871 
L 263.105345 107.266725 
L 263.107034 107.162836 
L 263.095344 107.059203 
L 263.068934 106.955824 
L 263.026411 106.852699 
L 262.966328 106.749826 
L 262.887193 106.647203 
L 262.787485 106.544831 
L 262.66567 106.442707 
L 262.520229 106.34083 
L 262.349683 106.239199 
L 262.152639 106.137813 
L 261.927824 106.03667 
L 261.674135 105.935771 
L 261.39069 105.835112 
L 261.076877 105.734694 
L 260.732405 105.634515 
L 260.357359 105.534573 
L 259.952241 105.434869 
L 259.518013 105.3354 
L 259.056129 105.236166 
L 258.568562 105.137165 
L 258.057812 105.038396 
L 257.526908 104.939859 
L 256.979393 104.841552 
L 256.419295 104.743474 
L 255.851089 104.645625 
L 255.279632 104.548002 
L 254.710099 104.450605 
L 254.1479 104.353433 
L 253.598585 104.256485 
L 253.067749 104.15976 
L 252.560925 104.063256 
L 252.083479 103.966974 
L 251.640503 103.870911 
L 251.236719 103.775067 
L 250.87638 103.67944 
L 250.563194 103.584031 
L 250.300247 103.488837 
L 250.089952 103.393859 
L 249.934012 103.299094 
L 249.833395 103.204542 
L 249.788333 103.110202 
L 249.798339 103.016073 
L 249.862233 102.922154 
L 249.978198 102.828444 
L 250.14383 102.734943 
L 250.356221 102.641649 
L 250.612032 102.548561 
L 250.907583 102.455679 
L 251.238943 102.363001 
L 251.602016 102.270527 
L 251.992632 102.178255 
L 252.406626 102.086186 
L 252.83991 101.994317 
L 253.288545 101.902649 
L 253.748787 101.81118 
L 254.217137 101.719909 
L 254.690369 101.628836 
L 255.165553 101.537959 
L 255.640064 101.447279 
L 256.111584 101.356793 
L 256.578089 101.266501 
L 257.037839 101.176403 
L 257.489355 101.086497 
L 257.931393 100.996783 
L 258.362918 100.90726 
L 258.783075 100.817927 
L 271.98248 100.817927 
L 271.98248 100.817927 
L 272.402638 100.90726 
L 272.834162 100.996783 
L 273.2762 101.086497 
L 273.727716 101.176403 
L 274.187467 101.266501 
L 274.653972 101.356793 
L 275.125491 101.447279 
L 275.600003 101.537959 
L 276.075187 101.628836 
L 276.548419 101.719909 
L 277.016768 101.81118 
L 277.477011 101.902649 
L 277.925645 101.994317 
L 278.35893 102.086186 
L 278.772923 102.178255 
L 279.163539 102.270527 
L 279.526612 102.363001 
L 279.857972 102.455679 
L 280.153523 102.548561 
L 280.409335 102.641649 
L 280.621725 102.734943 
L 280.787358 102.828444 
L 280.903322 102.922154 
L 280.967217 103.016073 
L 280.977222 103.110202 
L 280.932161 103.204542 
L 280.831543 103.299094 
L 280.675603 103.393859 
L 280.465309 103.488837 
L 280.202362 103.584031 
L 279.889175 103.67944 
L 279.528837 103.775067 
L 279.125053 103.870911 
L 278.682077 103.966974 
L 278.20463 104.063256 
L 277.697806 104.15976 
L 277.16697 104.256485 
L 276.617656 104.353433 
L 276.055456 104.450605 
L 275.485923 104.548002 
L 274.914467 104.645625 
L 274.34626 104.743474 
L 273.786163 104.841552 
L 273.238648 104.939859 
L 272.707743 105.038396 
L 272.196993 105.137165 
L 271.709426 105.236166 
L 271.247543 105.3354 
L 270.813314 105.434869 
L 270.408196 105.534573 
L 270.03315 105.634515 
L 269.688679 105.734694 
L 269.374866 105.835112 
L 269.091421 105.935771 
L 268.837732 106.03667 
L 268.612917 106.137813 
L 268.415872 106.239199 
L 268.245327 106.34083 
L 268.099885 106.442707 
L 267.978071 106.544831 
L 267.878363 106.647203 
L 267.799228 106.749826 
L 267.739144 106.852699 
L 267.696621 106.955824 
L 267.670212 107.059203 
L 267.658521 107.162836 
L 267.660211 107.266725 
L 267.673996 107.370871 
L 267.698641 107.475276 
L 267.732958 107.57994 
L 267.775794 107.684865 
L 267.826024 107.790052 
L 267.882544 107.895504 
L 267.944263 108.001219 
L 268.010099 108.107202 
L 268.078968 108.213451 
L 268.149789 108.31997 
L 268.221479 108.426759 
L 268.292956 108.53382 
L 268.363143 108.641154 
L 268.430975 108.748762 
L 268.495403 108.856646 
L 268.555407 108.964808 
L 268.610004 109.073248 
L 268.65826 109.181968 
L 268.699303 109.29097 
L 268.732332 109.400255 
L 268.756629 109.509825 
L 268.771572 109.61968 
L 268.776646 109.729824 
L 268.771445 109.840256 
L 268.755687 109.950979 
L 268.729217 110.061993 
L 268.692007 110.173302 
L 268.644162 110.284906 
L 268.585918 110.396806 
L 268.517636 110.509005 
L 268.439802 110.621504 
L 268.353012 110.734304 
z
" clip-path="url(#pa0dc2eb6c0)" style="fill: #1f77b4; fill-opacity: 0.3"/>
   </g>
   <g id="PolyCollection_5">
    <path d="M 331.36131 46.704454 
L 324.159801 46.704454 
L 324.046323 46.60419 
L 323.940595 46.504164 
L 323.842855 46.404376 
L 323.753173 46.304823 
L 323.671444 46.205506 
L 323.597391 46.106422 
L 323.530566 46.007571 
L 323.470363 45.908952 
L 323.416025 45.810563 
L 323.366666 45.712404 
L 323.321286 45.614473 
L 323.278797 45.51677 
L 323.238049 45.419293 
L 323.197854 45.322041 
L 323.157018 45.225014 
L 323.114368 45.128209 
L 323.068778 45.031627 
L 323.019198 44.935266 
L 322.964676 44.839125 
L 322.904382 44.743204 
L 322.837625 44.6475 
L 322.763866 44.552014 
L 322.682729 44.456744 
L 322.594006 44.361689 
L 322.497654 44.266848 
L 322.393795 44.17222 
L 322.282703 44.077805 
L 322.16479 43.983601 
L 322.040587 43.889608 
L 321.910727 43.795824 
L 321.775912 43.702249 
L 321.636892 43.608881 
L 321.494437 43.51572 
L 321.349304 43.422765 
L 321.202211 43.330014 
L 321.053811 43.237468 
L 320.904667 43.145124 
L 320.755228 43.052983 
L 320.605813 42.961043 
L 320.456597 42.869304 
L 320.307603 42.777764 
L 320.158697 42.686423 
L 320.009586 42.59528 
L 319.859833 42.504333 
L 319.708859 42.413583 
L 319.555965 42.323028 
L 319.400349 42.232668 
L 319.241133 42.142501 
L 319.077386 42.052527 
L 318.908155 41.962745 
L 318.732495 41.873154 
L 318.549501 41.783753 
L 318.358338 41.694542 
L 318.158272 41.60552 
L 317.948696 41.516686 
L 317.729165 41.428038 
L 317.499412 41.339577 
L 317.259374 41.251302 
L 317.009211 41.163211 
L 316.749322 41.075305 
L 316.480353 40.987581 
L 316.203209 40.900041 
L 315.919055 40.812682 
L 315.629318 40.725503 
L 315.335678 40.638506 
L 315.040065 40.551687 
L 314.744642 40.465048 
L 314.451786 40.378586 
L 314.16407 40.292302 
L 313.884233 40.206194 
L 313.61515 40.120262 
L 313.359799 40.034505 
L 313.121217 39.948922 
L 312.902465 39.863514 
L 312.706577 39.778278 
L 312.536515 39.693215 
L 312.395121 39.608323 
L 312.285068 39.523602 
L 312.208809 39.439051 
L 312.16853 39.35467 
L 312.166111 39.270458 
L 312.203078 39.186414 
L 312.28057 39.102537 
L 312.399314 39.018827 
L 312.559593 38.935284 
L 312.76124 38.851906 
L 313.003626 38.768692 
L 313.285663 38.685644 
L 313.605818 38.602758 
L 313.962127 38.520036 
L 314.352226 38.437476 
L 314.77339 38.355077 
L 315.22257 38.27284 
L 315.696445 38.190763 
L 316.191473 38.108845 
L 316.703953 38.027087 
L 317.230078 37.945488 
L 317.765999 37.864046 
L 318.307879 37.782762 
L 337.213232 37.782762 
L 337.213232 37.782762 
L 337.755113 37.864046 
L 338.291033 37.945488 
L 338.817158 38.027087 
L 339.329638 38.108845 
L 339.824667 38.190763 
L 340.298541 38.27284 
L 340.747721 38.355077 
L 341.168885 38.437476 
L 341.558985 38.520036 
L 341.915293 38.602758 
L 342.235448 38.685644 
L 342.517485 38.768692 
L 342.759871 38.851906 
L 342.961518 38.935284 
L 343.121798 39.018827 
L 343.240541 39.102537 
L 343.318033 39.186414 
L 343.355 39.270458 
L 343.352581 39.35467 
L 343.312303 39.439051 
L 343.236043 39.523602 
L 343.12599 39.608323 
L 342.984596 39.693215 
L 342.814534 39.778278 
L 342.618646 39.863514 
L 342.399894 39.948922 
L 342.161313 40.034505 
L 341.905961 40.120262 
L 341.636878 40.206194 
L 341.357041 40.292302 
L 341.069325 40.378586 
L 340.776469 40.465048 
L 340.481046 40.551687 
L 340.185433 40.638506 
L 339.891793 40.725503 
L 339.602056 40.812682 
L 339.317902 40.900041 
L 339.040758 40.987581 
L 338.771789 41.075305 
L 338.5119 41.163211 
L 338.261738 41.251302 
L 338.021699 41.339577 
L 337.791946 41.428038 
L 337.572415 41.516686 
L 337.362839 41.60552 
L 337.162773 41.694542 
L 336.97161 41.783753 
L 336.788616 41.873154 
L 336.612956 41.962745 
L 336.443725 42.052527 
L 336.279978 42.142501 
L 336.120762 42.232668 
L 335.965146 42.323028 
L 335.812252 42.413583 
L 335.661278 42.504333 
L 335.511525 42.59528 
L 335.362415 42.686423 
L 335.213508 42.777764 
L 335.064514 42.869304 
L 334.915298 42.961043 
L 334.765883 43.052983 
L 334.616444 43.145124 
L 334.4673 43.237468 
L 334.3189 43.330014 
L 334.171807 43.422765 
L 334.026674 43.51572 
L 333.884219 43.608881 
L 333.7452 43.702249 
L 333.610384 43.795824 
L 333.480524 43.889608 
L 333.356321 43.983601 
L 333.238408 44.077805 
L 333.127316 44.17222 
L 333.023457 44.266848 
L 332.927105 44.361689 
L 332.838382 44.456744 
L 332.757245 44.552014 
L 332.683486 44.6475 
L 332.616729 44.743204 
L 332.556435 44.839125 
L 332.501913 44.935266 
L 332.452333 45.031627 
L 332.406743 45.128209 
L 332.364093 45.225014 
L 332.323257 45.322041 
L 332.283063 45.419293 
L 332.242314 45.51677 
L 332.199825 45.614473 
L 332.154445 45.712404 
L 332.105086 45.810563 
L 332.050748 45.908952 
L 331.990545 46.007571 
L 331.92372 46.106422 
L 331.849667 46.205506 
L 331.767938 46.304823 
L 331.678256 46.404376 
L 331.580516 46.504164 
L 331.474789 46.60419 
L 331.36131 46.704454 
z
" clip-path="url(#pa0dc2eb6c0)" style="fill: #1f77b4; fill-opacity: 0.3"/>
   </g>
   <g id="matplotlib.axis_1">
    <g id="xtick_1">
     <g id="line2d_1">
      <defs>
       <path id="mdab8b617ed" d="M 0 0 
L 0 3.5 
" style="stroke: #000000; stroke-width: 0.8"/>
      </defs>
      <g>
       <use xlink:href="#mdab8b617ed" x="78.249444" y="248.456" style="stroke: #000000; stroke-width: 0.8"/>
      </g>
     </g>
     <g id="text_1">
      <text style="font: 11px 'Arial'; text-anchor: middle" x="78.249444" y="263.329594" transform="rotate(-0, 78.249444, 263.329594)">Arche</text>
     </g>
    </g>
    <g id="xtick_2">
     <g id="line2d_2">
      <g>
       <use xlink:href="#mdab8b617ed" x="140.627222" y="248.456" style="stroke: #000000; stroke-width: 0.8"/>
      </g>
     </g>
     <g id="text_2">
      <text style="font: 11px 'Arial'" transform="translate(102.407378 263.329594)">go-gameengine</text>
      <text style="font: 11px 'Arial'" transform="translate(130.237378 275.093062)">-ecs</text>
     </g>
    </g>
    <g id="xtick_3">
     <g id="line2d_3">
      <g>
       <use xlink:href="#mdab8b617ed" x="203.005" y="248.456" style="stroke: #000000; stroke-width: 0.8"/>
      </g>
     </g>
     <g id="text_3">
      <text style="font: 11px 'Arial'; text-anchor: middle" x="203.005" y="263.329594" transform="rotate(-0, 203.005, 263.329594)">Donburi</text>
     </g>
    </g>
    <g id="xtick_4">
     <g id="line2d_4">
      <g>
       <use xlink:href="#mdab8b617ed" x="265.382778" y="248.456" style="stroke: #000000; stroke-width: 0.8"/>
      </g>
     </g>
     <g id="text_4">
      <text style="font: 11px 'Arial'; text-anchor: middle" x="265.382778" y="263.329594" transform="rotate(-0, 265.382778, 263.329594)">Entitas-Go</text>
     </g>
    </g>
    <g id="xtick_5">
     <g id="line2d_5">
      <g>
       <use xlink:href="#mdab8b617ed" x="327.760556" y="248.456" style="stroke: #000000; stroke-width: 0.8"/>
      </g>
     </g>
     <g id="text_5">
      <text style="font: 11px 'Arial'; text-anchor: middle" x="327.760556" y="263.329594" transform="rotate(-0, 327.760556, 263.329594)">Ento</text>
     </g>
    </g>
   </g>
   <g id="matplotlib.axis_2">
    <g id="ytick_1">
     <g id="line2d_6">
      <defs>
       <path id="mab2b87303f" d="M 0 0 
L -3.5 0 
" style="stroke: #000000; stroke-width: 0.8"/>
      </defs>
      <g>
       <use xlink:href="#mab2b87303f" x="48.62" y="248.456" style="stroke: #000000; stroke-width: 0.8"/>
      </g>
     </g>
     <g id="text_6">
      <text style="font: 10px 'Arial'; text-anchor: end" x="41.62" y="252.034906" transform="rotate(-0, 41.62, 252.034906)">1</text>
     </g>
    </g>
    <g id="ytick_2">
     <g id="line2d_7">
      <g>
       <use xlink:href="#mab2b87303f" x="48.62" y="219.287509" style="stroke: #000000; stroke-width: 0.8"/>
      </g>
     </g>
     <g id="text_7">
      <text style="font: 10px 'Arial'; text-anchor: end" x="41.62" y="222.866415" transform="rotate(-0, 41.62, 222.866415)">2</text>
     </g>
    </g>
    <g id="ytick_3">
     <g id="line2d_8">
      <g>
       <use xlink:href="#mab2b87303f" x="48.62" y="180.728861" style="stroke: #000000; stroke-width: 0.8"/>
      </g>
     </g>
     <g id="text_8">
      <text style="font: 10px 'Arial'; text-anchor: end" x="41.62" y="184.307768" transform="rotate(-0, 41.62, 184.307768)">5</text>
     </g>
    </g>
    <g id="ytick_4">
     <g id="line2d_9">
      <g>
       <use xlink:href="#mab2b87303f" x="48.62" y="151.56037" style="stroke: #000000; stroke-width: 0.8"/>
      </g>
     </g>
     <g id="text_9">
      <text style="font: 10px 'Arial'; text-anchor: end" x="41.62" y="155.139277" transform="rotate(-0, 41.62, 155.139277)">10</text>
     </g>
    </g>
    <g id="ytick_5">
     <g id="line2d_10">
      <g>
       <use xlink:href="#mab2b87303f" x="48.62" y="122.39188" style="stroke: #000000; stroke-width: 0.8"/>
      </g>
     </g>
     <g id="text_10">
      <text style="font: 10px 'Arial'; text-anchor: end" x="41.62" y="125.970786" transform="rotate(-0, 41.62, 125.970786)">20</text>
     </g>
    </g>
    <g id="ytick_6">
     <g id="line2d_11">
      <g>
       <use xlink:href="#mab2b87303f" x="48.62" y="83.833232" style="stroke: #000000; stroke-width: 0.8"/>
      </g>
     </g>
     <g id="text_11">
      <text style="font: 10px 'Arial'; text-anchor: end" x="41.62" y="87.412138" transform="rotate(-0, 41.62, 87.412138)">50</text>
     </g>
    </g>
    <g id="ytick_7">
     <g id="line2d_12">
      <g>
       <use xlink:href="#mab2b87303f" x="48.62" y="54.664741" style="stroke: #000000; stroke-width: 0.8"/>
      </g>
     </g>
     <g id="text_12">
      <text style="font: 10px 'Arial'; text-anchor: end" x="41.62" y="58.243647" transform="rotate(-0, 41.62, 58.243647)">100</text>
     </g>
    </g>
    <g id="ytick_8">
     <g id="line2d_13">
      <g>
       <use xlink:href="#mab2b87303f" x="48.62" y="25.49625" style="stroke: #000000; stroke-width: 0.8"/>
      </g>
     </g>
     <g id="text_13">
      <text style="font: 10px 'Arial'; text-anchor: end" x="41.62" y="29.075156" transform="rotate(-0, 41.62, 29.075156)">200</text>
     </g>
    </g>
    <g id="ytick_9">
     <g id="line2d_14">
      <defs>
       <path id="meb9cdbbc01" d="M 0 0 
L -2 0 
" style="stroke: #000000; stroke-width: 0.6"/>
      </defs>
      <g>
       <use xlink:href="#meb9cdbbc01" x="48.62" y="202.225036" style="stroke: #000000; stroke-width: 0.6"/>
      </g>
     </g>
    </g>
    <g id="ytick_10">
     <g id="line2d_15">
      <g>
       <use xlink:href="#meb9cdbbc01" x="48.62" y="190.119018" style="stroke: #000000; stroke-width: 0.6"/>
      </g>
     </g>
    </g>
    <g id="ytick_11">
     <g id="line2d_16">
      <g>
       <use xlink:href="#meb9cdbbc01" x="48.62" y="173.056545" style="stroke: #000000; stroke-width: 0.6"/>
      </g>
     </g>
    </g>
    <g id="ytick_12">
     <g id="line2d_17">
      <g>
       <use xlink:href="#meb9cdbbc01" x="48.62" y="166.569693" style="stroke: #000000; stroke-width: 0.6"/>
      </g>
     </g>
    </g>
    <g id="ytick_13">
     <g id="line2d_18">
      <g>
       <use xlink:href="#meb9cdbbc01" x="48.62" y="160.950527" style="stroke: #000000; stroke-width: 0.6"/>
      </g>
     </g>
    </g>
    <g id="ytick_14">
     <g id="line2d_19">
      <g>
       <use xlink:href="#meb9cdbbc01" x="48.62" y="155.994071" style="stroke: #000000; stroke-width: 0.6"/>
      </g>
     </g>
    </g>
    <g id="ytick_15">
     <g id="line2d_20">
      <g>
       <use xlink:href="#meb9cdbbc01" x="48.62" y="105.329406" style="stroke: #000000; stroke-width: 0.6"/>
      </g>
     </g>
    </g>
    <g id="ytick_16">
     <g id="line2d_21">
      <g>
       <use xlink:href="#meb9cdbbc01" x="48.62" y="93.223389" style="stroke: #000000; stroke-width: 0.6"/>
      </g>
     </g>
    </g>
    <g id="ytick_17">
     <g id="line2d_22">
      <g>
       <use xlink:href="#meb9cdbbc01" x="48.62" y="76.160915" style="stroke: #000000; stroke-width: 0.6"/>
      </g>
     </g>
    </g>
    <g id="ytick_18">
     <g id="line2d_23">
      <g>
       <use xlink:href="#meb9cdbbc01" x="48.62" y="69.674064" style="stroke: #000000; stroke-width: 0.6"/>
      </g>
     </g>
    </g>
    <g id="ytick_19">
     <g id="line2d_24">
      <g>
       <use xlink:href="#meb9cdbbc01" x="48.62" y="64.054898" style="stroke: #000000; stroke-width: 0.6"/>
      </g>
     </g>
    </g>
    <g id="ytick_20">
     <g id="line2d_25">
      <g>
       <use xlink:href="#meb9cdbbc01" x="48.62" y="59.098442" style="stroke: #000000; stroke-width: 0.6"/>
      </g>
     </g>
    </g>
    <g id="text_14">
     <text style="font: 11px 'Arial'; text-anchor: middle" x="18.750938" y="136.976125" transform="rotate(-90, 18.750938, 136.976125)">Time per iteration [us]</text>
    </g>
   </g>
   <g id="LineCollection_1">
    <path d="M 70.452222 208.237186 
L 86.046667 208.237186 
" clip-path="url(#pa0dc2eb6c0)" style="fill: none; stroke: #1f77b4; stroke-width: 1.5"/>
    <path d="M 132.83 183.697744 
L 148.424444 183.697744 
" clip-path="url(#pa0dc2eb6c0)" style="fill: none; stroke: #1f77b4; stroke-width: 1.5"/>
    <path d="M 195.207778 125.792324 
L 210.802222 125.792324 
" clip-path="url(#pa0dc2eb6c0)" style="fill: none; stroke: #1f77b4; stroke-width: 1.5"/>
    <path d="M 257.585556 104.001946 
L 273.18 104.001946 
" clip-path="url(#pa0dc2eb6c0)" style="fill: none; stroke: #1f77b4; stroke-width: 1.5"/>
    <path d="M 319.963333 40.887681 
L 335.557778 40.887681 
" clip-path="url(#pa0dc2eb6c0)" style="fill: none; stroke: #1f77b4; stroke-width: 1.5"/>
   </g>
   <g id="patch_3">
    <path d="M 48.62 248.456 
L 48.62 25.49625 
" style="fill: none; stroke: #000000; stroke-width: 0.8; stroke-linejoin: miter; stroke-linecap: square"/>
   </g>
   <g id="patch_4">
    <path d="M 357.39 248.456 
L 357.39 25.49625 
" style="fill: none; stroke: #000000; stroke-width: 0.8; stroke-linejoin: miter; stroke-linecap: square"/>
   </g>
   <g id="patch_5">
    <path d="M 48.62 248.456 
L 357.39 248.456 
" style="fill: none; stroke: #000000; stroke-width: 0.8; stroke-linejoin: miter; stroke-linecap: square"/>
   </g>
   <g id="patch_6">
    <path d="M 48.62 25.49625 
L 357.39 25.49625 
" style="fill: none; stroke: #000000; stroke-width: 0.8; stroke-linejoin: miter; stroke-linecap: square"/>
   </g>
   <g id="text_15">
    <text style="font: 12px 'Arial'; text-anchor: middle" x="203.005" y="19.49625" transform="rotate(-0, 203.005, 19.49625)">Position/Velocity -- Iter</text>
   </g>
  </g>
  <g id="axes_2">
   <g id="patch_7">
    <path d="M 400.43 248.456 
L 709.2 248.456 
L 709.2 25.49625 
L 400.43 25.49625 
z
" style="fill: #ffffff"/>
   </g>
   <g id="PolyCollection_6">
    <path d="M 434.834644 225.330243 
L 425.284245 225.330243 
L 425.017593 225.316279 
L 424.750909 225.302314 
L 424.484511 225.28835 
L 424.218529 225.274386 
L 423.952902 225.260421 
L 423.68738 225.246457 
L 423.421543 225.232492 
L 423.154817 225.218528 
L 422.886499 225.204563 
L 422.615795 225.190599 
L 422.341853 225.176634 
L 422.063803 225.16267 
L 421.780806 225.148706 
L 421.492087 225.134741 
L 421.196989 225.120777 
L 420.895005 225.106812 
L 420.585818 225.092848 
L 420.269332 225.078883 
L 419.945703 225.064919 
L 419.615353 225.050954 
L 419.27899 225.03699 
L 418.937614 225.023026 
L 418.592519 225.009061 
L 418.245287 224.995097 
L 417.897779 224.981132 
L 417.552119 224.967168 
L 417.210671 224.953203 
L 416.876015 224.939239 
L 416.550916 224.925274 
L 416.238293 224.91131 
L 415.941179 224.897346 
L 415.66268 224.883381 
L 415.405935 224.869417 
L 415.174065 224.855452 
L 414.970124 224.841488 
L 414.79705 224.827523 
L 414.657607 224.813559 
L 414.554336 224.799594 
L 414.489493 224.78563 
L 414.465 224.771665 
L 414.482392 224.757701 
L 414.542767 224.743737 
L 414.64675 224.729772 
L 414.794452 224.715808 
L 414.985444 224.701843 
L 415.218748 224.687879 
L 415.492825 224.673914 
L 415.805586 224.65995 
L 416.154416 224.645985 
L 416.536205 224.632021 
L 416.947393 224.618057 
L 417.384034 224.604092 
L 417.84186 224.590128 
L 418.31636 224.576163 
L 418.802862 224.562199 
L 419.296624 224.548234 
L 419.79292 224.53427 
L 420.287129 224.520305 
L 420.774819 224.506341 
L 421.251827 224.492377 
L 421.714325 224.478412 
L 422.158885 224.464448 
L 422.582526 224.450483 
L 422.982749 224.436519 
L 423.357561 224.422554 
L 423.705488 224.40859 
L 424.025573 224.394625 
L 424.317361 224.380661 
L 424.580876 224.366697 
L 424.816591 224.352732 
L 425.025384 224.338768 
L 425.208495 224.324803 
L 425.367474 224.310839 
L 425.504129 224.296874 
L 425.620476 224.28291 
L 425.71868 224.268945 
L 425.801011 224.254981 
L 425.869792 224.241017 
L 425.927357 224.227052 
L 425.97601 224.213088 
L 426.017989 224.199123 
L 426.055437 224.185159 
L 426.090376 224.171194 
L 426.124683 224.15723 
L 426.160074 224.143265 
L 426.19809 224.129301 
L 426.240087 224.115337 
L 426.287227 224.101372 
L 426.340476 224.087408 
L 426.400603 224.073443 
L 426.468177 224.059479 
L 426.543573 224.045514 
L 426.626976 224.03155 
L 426.718387 224.017585 
L 426.817635 224.003621 
L 426.924386 223.989656 
L 427.038154 223.975692 
L 427.15832 223.961728 
L 427.284146 223.947763 
L 432.834743 223.947763 
L 432.834743 223.947763 
L 432.960569 223.961728 
L 433.080735 223.975692 
L 433.194503 223.989656 
L 433.301254 224.003621 
L 433.400502 224.017585 
L 433.491913 224.03155 
L 433.575316 224.045514 
L 433.650712 224.059479 
L 433.718286 224.073443 
L 433.778413 224.087408 
L 433.831662 224.101372 
L 433.878802 224.115337 
L 433.920798 224.129301 
L 433.958814 224.143265 
L 433.994206 224.15723 
L 434.028513 224.171194 
L 434.063452 224.185159 
L 434.1009 224.199123 
L 434.142879 224.213088 
L 434.191532 224.227052 
L 434.249096 224.241017 
L 434.317878 224.254981 
L 434.400209 224.268945 
L 434.498413 224.28291 
L 434.61476 224.296874 
L 434.751415 224.310839 
L 434.910394 224.324803 
L 435.093505 224.338768 
L 435.302298 224.352732 
L 435.538013 224.366697 
L 435.801528 224.380661 
L 436.093316 224.394625 
L 436.413401 224.40859 
L 436.761328 224.422554 
L 437.13614 224.436519 
L 437.536363 224.450483 
L 437.960004 224.464448 
L 438.404564 224.478412 
L 438.867062 224.492377 
L 439.34407 224.506341 
L 439.83176 224.520305 
L 440.325969 224.53427 
L 440.822265 224.548234 
L 441.316027 224.562199 
L 441.802529 224.576163 
L 442.277029 224.590128 
L 442.734855 224.604092 
L 443.171496 224.618057 
L 443.582684 224.632021 
L 443.964473 224.645985 
L 444.313303 224.65995 
L 444.626064 224.673914 
L 444.900141 224.687879 
L 445.133444 224.701843 
L 445.324437 224.715808 
L 445.472138 224.729772 
L 445.576121 224.743737 
L 445.636497 224.757701 
L 445.653889 224.771665 
L 445.629396 224.78563 
L 445.564553 224.799594 
L 445.461282 224.813559 
L 445.321839 224.827523 
L 445.148765 224.841488 
L 444.944824 224.855452 
L 444.712953 224.869417 
L 444.456208 224.883381 
L 444.17771 224.897346 
L 443.880596 224.91131 
L 443.567973 224.925274 
L 443.242874 224.939239 
L 442.908218 224.953203 
L 442.56677 224.967168 
L 442.221109 224.981132 
L 441.873602 224.995097 
L 441.52637 225.009061 
L 441.181275 225.023026 
L 440.839899 225.03699 
L 440.503536 225.050954 
L 440.173186 225.064919 
L 439.849557 225.078883 
L 439.533071 225.092848 
L 439.223884 225.106812 
L 438.9219 225.120777 
L 438.626802 225.134741 
L 438.338083 225.148706 
L 438.055085 225.16267 
L 437.777036 225.176634 
L 437.503094 225.190599 
L 437.23239 225.204563 
L 436.964072 225.218528 
L 436.697346 225.232492 
L 436.431509 225.246457 
L 436.165987 225.260421 
L 435.90036 225.274386 
L 435.634378 225.28835 
L 435.36798 225.302314 
L 435.101296 225.316279 
L 434.834644 225.330243 
z
" clip-path="url(#p75f976a7a0)" style="fill: #1f77b4; fill-opacity: 0.3"/>
   </g>
   <g id="PolyCollection_7">
    <path d="M 507.346744 206.435888 
L 477.5277 206.435888 
L 477.292922 206.220334 
L 477.105978 206.004781 
L 476.968224 205.789227 
L 476.880434 205.573674 
L 476.842778 205.35812 
L 476.854809 205.142567 
L 476.915461 204.927013 
L 477.02306 204.711459 
L 477.175342 204.495906 
L 477.369484 204.280352 
L 477.602144 204.064799 
L 477.86951 203.849245 
L 478.167357 203.633692 
L 478.491109 203.418138 
L 478.835911 203.202585 
L 479.1967 202.987031 
L 479.56828 202.771478 
L 479.945403 202.555924 
L 480.32284 202.34037 
L 480.69546 202.124817 
L 481.058299 201.909263 
L 481.406632 201.69371 
L 481.73603 201.478156 
L 482.04242 201.262603 
L 482.322132 201.047049 
L 482.571942 200.831496 
L 482.789106 200.615942 
L 482.971384 200.400389 
L 483.117058 200.184835 
L 483.224941 199.969281 
L 483.29438 199.753728 
L 483.325243 199.538174 
L 483.317915 199.322621 
L 483.273266 199.107067 
L 483.192634 198.891514 
L 483.077788 198.67596 
L 482.93089 198.460407 
L 482.754458 198.244853 
L 482.551318 198.029299 
L 482.324562 197.813746 
L 482.077494 197.598192 
L 481.813585 197.382639 
L 481.536423 197.167085 
L 481.249663 196.951532 
L 480.956979 196.735978 
L 480.662019 196.520425 
L 480.368361 196.304871 
L 480.07947 196.089318 
L 479.798664 195.873764 
L 479.529077 195.65821 
L 479.273628 195.442657 
L 479.034997 195.227103 
L 478.815604 195.01155 
L 478.61759 194.795996 
L 478.442805 194.580443 
L 478.2928 194.364889 
L 478.168821 194.149336 
L 478.071817 193.933782 
L 478.002433 193.718228 
L 477.96103 193.502675 
L 477.947688 193.287121 
L 477.962224 193.071568 
L 478.004212 192.856014 
L 478.072998 192.640461 
L 478.167724 192.424907 
L 478.28735 192.209354 
L 478.43068 191.9938 
L 478.596383 191.778247 
L 478.78302 191.562693 
L 478.989067 191.347139 
L 479.212939 191.131586 
L 479.453012 190.916032 
L 479.707646 190.700479 
L 479.975203 190.484925 
L 480.254068 190.269372 
L 480.542661 190.053818 
L 480.839458 189.838265 
L 481.142998 189.622711 
L 481.451894 189.407158 
L 481.764846 189.191604 
L 482.080642 188.97605 
L 482.398163 188.760497 
L 482.716391 188.544943 
L 483.0344 188.32939 
L 483.351364 188.113836 
L 483.666548 187.898283 
L 483.979308 187.682729 
L 484.289083 187.467176 
L 484.59539 187.251622 
L 484.897817 187.036068 
L 485.196016 186.820515 
L 485.489695 186.604961 
L 485.778607 186.389408 
L 486.062548 186.173854 
L 486.341343 185.958301 
L 486.614845 185.742747 
L 486.882921 185.527194 
L 487.145453 185.31164 
L 487.402329 185.096087 
L 497.472116 185.096087 
L 497.472116 185.096087 
L 497.728991 185.31164 
L 497.991523 185.527194 
L 498.2596 185.742747 
L 498.533101 185.958301 
L 498.811897 186.173854 
L 499.095838 186.389408 
L 499.38475 186.604961 
L 499.678428 186.820515 
L 499.976627 187.036068 
L 500.279055 187.251622 
L 500.585362 187.467176 
L 500.895136 187.682729 
L 501.207896 187.898283 
L 501.523081 188.113836 
L 501.840044 188.32939 
L 502.158054 188.544943 
L 502.476281 188.760497 
L 502.793803 188.97605 
L 503.109598 189.191604 
L 503.42255 189.407158 
L 503.731447 189.622711 
L 504.034986 189.838265 
L 504.331783 190.053818 
L 504.620377 190.269372 
L 504.899241 190.484925 
L 505.166799 190.700479 
L 505.421432 190.916032 
L 505.661505 191.131586 
L 505.885377 191.347139 
L 506.091424 191.562693 
L 506.278061 191.778247 
L 506.443764 191.9938 
L 506.587094 192.209354 
L 506.706721 192.424907 
L 506.801446 192.640461 
L 506.870232 192.856014 
L 506.91222 193.071568 
L 506.926757 193.287121 
L 506.913414 193.502675 
L 506.872011 193.718228 
L 506.802628 193.933782 
L 506.705623 194.149336 
L 506.581645 194.364889 
L 506.431639 194.580443 
L 506.256854 194.795996 
L 506.05884 195.01155 
L 505.839447 195.227103 
L 505.600817 195.442657 
L 505.345368 195.65821 
L 505.07578 195.873764 
L 504.794974 196.089318 
L 504.506084 196.304871 
L 504.212426 196.520425 
L 503.917466 196.735978 
L 503.624782 196.951532 
L 503.338022 197.167085 
L 503.06086 197.382639 
L 502.796951 197.598192 
L 502.549883 197.813746 
L 502.323126 198.029299 
L 502.119987 198.244853 
L 501.943554 198.460407 
L 501.796657 198.67596 
L 501.68181 198.891514 
L 501.601178 199.107067 
L 501.55653 199.322621 
L 501.549201 199.538174 
L 501.580065 199.753728 
L 501.649503 199.969281 
L 501.757387 200.184835 
L 501.903061 200.400389 
L 502.085338 200.615942 
L 502.302502 200.831496 
L 502.552313 201.047049 
L 502.832025 201.262603 
L 503.138414 201.478156 
L 503.467812 201.69371 
L 503.816145 201.909263 
L 504.178985 202.124817 
L 504.551604 202.34037 
L 504.929041 202.555924 
L 505.306164 202.771478 
L 505.677745 202.987031 
L 506.038533 203.202585 
L 506.383335 203.418138 
L 506.707088 203.633692 
L 507.004934 203.849245 
L 507.2723 204.064799 
L 507.504961 204.280352 
L 507.699103 204.495906 
L 507.851385 204.711459 
L 507.958984 204.927013 
L 508.019636 205.142567 
L 508.031667 205.35812 
L 507.994011 205.573674 
L 507.906221 205.789227 
L 507.768467 206.004781 
L 507.581523 206.220334 
L 507.346744 206.435888 
z
" clip-path="url(#p75f976a7a0)" style="fill: #1f77b4; fill-opacity: 0.3"/>
   </g>
   <g id="PolyCollection_8">
    <path d="M 565.979867 182.343754 
L 543.650133 182.343754 
L 543.147633 182.065762 
L 542.660108 181.787769 
L 542.191304 181.509777 
L 541.744953 181.231785 
L 541.324716 180.953792 
L 540.934143 180.6758 
L 540.576613 180.397807 
L 540.255294 180.119815 
L 539.973089 179.841823 
L 539.732597 179.56383 
L 539.536069 179.285838 
L 539.38537 179.007845 
L 539.281954 178.729853 
L 539.226831 178.451861 
L 539.220556 178.173868 
L 539.263211 177.895876 
L 539.354407 177.617883 
L 539.493284 177.339891 
L 539.67852 177.061899 
L 539.908357 176.783906 
L 540.180615 176.505914 
L 540.492736 176.227921 
L 540.841811 175.949929 
L 541.224628 175.671937 
L 541.637717 175.393944 
L 542.077401 175.115952 
L 542.539846 174.83796 
L 543.021116 174.559967 
L 543.517224 174.281975 
L 544.024185 174.003982 
L 544.538067 173.72599 
L 545.055039 173.447998 
L 545.571412 173.170005 
L 546.08368 172.892013 
L 546.588555 172.61402 
L 547.082997 172.336028 
L 547.564236 172.058036 
L 548.02979 171.780043 
L 548.477478 171.502051 
L 548.905425 171.224058 
L 549.312067 170.946066 
L 549.69614 170.668074 
L 550.056677 170.390081 
L 550.39299 170.112089 
L 550.70466 169.834096 
L 550.991507 169.556104 
L 551.253578 169.278112 
L 551.491117 169.000119 
L 551.70454 168.722127 
L 551.894415 168.444134 
L 552.061428 168.166142 
L 552.206367 167.88815 
L 552.330094 167.610157 
L 552.433523 167.332165 
L 552.517604 167.054172 
L 552.583305 166.77618 
L 552.631592 166.498188 
L 552.663428 166.220195 
L 552.679753 165.942203 
L 552.681486 165.66421 
L 552.669518 165.386218 
L 552.644712 165.108226 
L 552.607905 164.830233 
L 552.55991 164.552241 
L 552.501523 164.274248 
L 552.43353 163.996256 
L 552.356715 163.718264 
L 552.271864 163.440271 
L 552.179779 163.162279 
L 552.081282 162.884287 
L 551.977223 162.606294 
L 551.868488 162.328302 
L 551.756001 162.050309 
L 551.640727 161.772317 
L 551.523675 161.494325 
L 551.405896 161.216332 
L 551.288476 160.93834 
L 551.172536 160.660347 
L 551.05922 160.382355 
L 550.949686 160.104363 
L 550.845096 159.82637 
L 550.7466 159.548378 
L 550.655323 159.270385 
L 550.572349 158.992393 
L 550.498706 158.714401 
L 550.43535 158.436408 
L 550.383147 158.158416 
L 550.342863 157.880423 
L 550.315147 157.602431 
L 550.300523 157.324439 
L 550.299374 157.046446 
L 550.311942 156.768454 
L 550.33832 156.490461 
L 550.378448 156.212469 
L 550.432118 155.934477 
L 550.498972 155.656484 
L 550.578512 155.378492 
L 550.670108 155.100499 
L 550.773006 154.822507 
L 558.856994 154.822507 
L 558.856994 154.822507 
L 558.959892 155.100499 
L 559.051488 155.378492 
L 559.131028 155.656484 
L 559.197882 155.934477 
L 559.251552 156.212469 
L 559.29168 156.490461 
L 559.318058 156.768454 
L 559.330626 157.046446 
L 559.329477 157.324439 
L 559.314853 157.602431 
L 559.287137 157.880423 
L 559.246853 158.158416 
L 559.19465 158.436408 
L 559.131294 158.714401 
L 559.057651 158.992393 
L 558.974677 159.270385 
L 558.8834 159.548378 
L 558.784904 159.82637 
L 558.680314 160.104363 
L 558.57078 160.382355 
L 558.457464 160.660347 
L 558.341524 160.93834 
L 558.224104 161.216332 
L 558.106325 161.494325 
L 557.989273 161.772317 
L 557.873999 162.050309 
L 557.761512 162.328302 
L 557.652777 162.606294 
L 557.548718 162.884287 
L 557.450221 163.162279 
L 557.358136 163.440271 
L 557.273285 163.718264 
L 557.19647 163.996256 
L 557.128477 164.274248 
L 557.07009 164.552241 
L 557.022095 164.830233 
L 556.985288 165.108226 
L 556.960482 165.386218 
L 556.948514 165.66421 
L 556.950247 165.942203 
L 556.966572 166.220195 
L 556.998408 166.498188 
L 557.046695 166.77618 
L 557.112396 167.054172 
L 557.196477 167.332165 
L 557.299906 167.610157 
L 557.423633 167.88815 
L 557.568572 168.166142 
L 557.735585 168.444134 
L 557.92546 168.722127 
L 558.138883 169.000119 
L 558.376422 169.278112 
L 558.638493 169.556104 
L 558.92534 169.834096 
L 559.23701 170.112089 
L 559.573323 170.390081 
L 559.93386 170.668074 
L 560.317933 170.946066 
L 560.724575 171.224058 
L 561.152522 171.502051 
L 561.60021 171.780043 
L 562.065764 172.058036 
L 562.547003 172.336028 
L 563.041445 172.61402 
L 563.54632 172.892013 
L 564.058588 173.170005 
L 564.574961 173.447998 
L 565.091933 173.72599 
L 565.605815 174.003982 
L 566.112776 174.281975 
L 566.608884 174.559967 
L 567.090154 174.83796 
L 567.552599 175.115952 
L 567.992283 175.393944 
L 568.405372 175.671937 
L 568.788189 175.949929 
L 569.137264 176.227921 
L 569.449385 176.505914 
L 569.721643 176.783906 
L 569.95148 177.061899 
L 570.136716 177.339891 
L 570.275593 177.617883 
L 570.366789 177.895876 
L 570.409444 178.173868 
L 570.403169 178.451861 
L 570.348046 178.729853 
L 570.24463 179.007845 
L 570.093931 179.285838 
L 569.897403 179.56383 
L 569.656911 179.841823 
L 569.374706 180.119815 
L 569.053387 180.397807 
L 568.695857 180.6758 
L 568.305284 180.953792 
L 567.885047 181.231785 
L 567.438696 181.509777 
L 566.969892 181.787769 
L 566.482367 182.065762 
L 565.979867 182.343754 
z
" clip-path="url(#p75f976a7a0)" style="fill: #1f77b4; fill-opacity: 0.3"/>
   </g>
   <g id="PolyCollection_9">
    <path d="M 620.016121 69.494598 
L 614.369434 69.494598 
L 614.293283 69.254908 
L 614.222934 69.015219 
L 614.157534 68.775529 
L 614.095946 68.535839 
L 614.036761 68.29615 
L 613.978323 68.05646 
L 613.918761 67.81677 
L 613.856027 67.57708 
L 613.787946 67.337391 
L 613.712259 67.097701 
L 613.626687 66.858011 
L 613.528978 66.618322 
L 613.416968 66.378632 
L 613.288636 66.138942 
L 613.142148 65.899253 
L 612.975911 65.659563 
L 612.788605 65.419873 
L 612.579221 65.180184 
L 612.34708 64.940494 
L 612.091848 64.700804 
L 611.813547 64.461114 
L 611.512549 64.221425 
L 611.189569 63.981735 
L 610.845644 63.742045 
L 610.482117 63.502356 
L 610.100603 63.262666 
L 609.702962 63.022976 
L 609.291263 62.783287 
L 608.867755 62.543597 
L 608.434827 62.303907 
L 607.994981 62.064217 
L 607.5508 61.824528 
L 607.104922 61.584838 
L 606.660015 61.345148 
L 606.218757 61.105459 
L 605.783819 60.865769 
L 605.357849 60.626079 
L 604.943457 60.38639 
L 604.543205 60.1467 
L 604.159592 59.90701 
L 603.795041 59.667321 
L 603.451883 59.427631 
L 603.132339 59.187941 
L 602.838503 58.948251 
L 602.572312 58.708562 
L 602.335527 58.468872 
L 602.129699 58.229182 
L 601.956144 57.989493 
L 601.815911 57.749803 
L 601.709753 57.510113 
L 601.638104 57.270424 
L 601.601054 57.030734 
L 601.598333 56.791044 
L 601.629305 56.551354 
L 601.69296 56.311665 
L 601.787925 56.071975 
L 601.91248 55.832285 
L 602.064578 55.592596 
L 602.241882 55.352906 
L 602.441807 55.113216 
L 602.66156 54.873527 
L 602.898202 54.633837 
L 603.148695 54.394147 
L 603.409965 54.154458 
L 603.678961 53.914768 
L 603.952707 53.675078 
L 604.228359 53.435388 
L 604.503252 53.195699 
L 604.77495 52.956009 
L 605.041275 52.716319 
L 605.300348 52.47663 
L 605.550608 52.23694 
L 605.790832 51.99725 
L 606.020144 51.757561 
L 606.238026 51.517871 
L 606.444306 51.278181 
L 606.639158 51.038491 
L 606.823084 50.798802 
L 606.996896 50.559112 
L 607.161691 50.319422 
L 607.318819 50.079733 
L 607.469851 49.840043 
L 607.616537 49.600353 
L 607.760767 49.360664 
L 607.904521 49.120974 
L 608.04982 48.881284 
L 608.198678 48.641595 
L 608.353048 48.401905 
L 608.514772 48.162215 
L 608.68553 47.922525 
L 608.866796 47.682836 
L 609.059797 47.443146 
L 609.265473 47.203456 
L 609.484454 46.963767 
L 609.717037 46.724077 
L 609.963176 46.484387 
L 610.222479 46.244698 
L 610.494219 46.005008 
L 610.777347 45.765318 
L 623.608209 45.765318 
L 623.608209 45.765318 
L 623.891337 46.005008 
L 624.163076 46.244698 
L 624.422379 46.484387 
L 624.668518 46.724077 
L 624.901101 46.963767 
L 625.120083 47.203456 
L 625.325759 47.443146 
L 625.518759 47.682836 
L 625.700026 47.922525 
L 625.870784 48.162215 
L 626.032507 48.401905 
L 626.186878 48.641595 
L 626.335736 48.881284 
L 626.481035 49.120974 
L 626.624789 49.360664 
L 626.769019 49.600353 
L 626.915705 49.840043 
L 627.066736 50.079733 
L 627.223864 50.319422 
L 627.388659 50.559112 
L 627.562472 50.798802 
L 627.746398 51.038491 
L 627.94125 51.278181 
L 628.14753 51.517871 
L 628.365411 51.757561 
L 628.594724 51.99725 
L 628.834947 52.23694 
L 629.085207 52.47663 
L 629.34428 52.716319 
L 629.610606 52.956009 
L 629.882303 53.195699 
L 630.157197 53.435388 
L 630.432848 53.675078 
L 630.706594 53.914768 
L 630.97559 54.154458 
L 631.236861 54.394147 
L 631.487354 54.633837 
L 631.723995 54.873527 
L 631.943749 55.113216 
L 632.143673 55.352906 
L 632.320978 55.592596 
L 632.473076 55.832285 
L 632.59763 56.071975 
L 632.692596 56.311665 
L 632.756251 56.551354 
L 632.787222 56.791044 
L 632.784502 57.030734 
L 632.747452 57.270424 
L 632.675803 57.510113 
L 632.569645 57.749803 
L 632.429412 57.989493 
L 632.255857 58.229182 
L 632.050029 58.468872 
L 631.813243 58.708562 
L 631.547053 58.948251 
L 631.253216 59.187941 
L 630.933673 59.427631 
L 630.590515 59.667321 
L 630.225963 59.90701 
L 629.84235 60.1467 
L 629.442098 60.38639 
L 629.027707 60.626079 
L 628.601736 60.865769 
L 628.166799 61.105459 
L 627.725541 61.345148 
L 627.280634 61.584838 
L 626.834756 61.824528 
L 626.390575 62.064217 
L 625.950729 62.303907 
L 625.517801 62.543597 
L 625.094292 62.783287 
L 624.682594 63.022976 
L 624.284953 63.262666 
L 623.903439 63.502356 
L 623.539911 63.742045 
L 623.195987 63.981735 
L 622.873007 64.221425 
L 622.572009 64.461114 
L 622.293708 64.700804 
L 622.038476 64.940494 
L 621.806334 65.180184 
L 621.59695 65.419873 
L 621.409645 65.659563 
L 621.243408 65.899253 
L 621.09692 66.138942 
L 620.968587 66.378632 
L 620.856578 66.618322 
L 620.758869 66.858011 
L 620.673296 67.097701 
L 620.59761 67.337391 
L 620.529528 67.57708 
L 620.466795 67.81677 
L 620.407233 68.05646 
L 620.348795 68.29615 
L 620.28961 68.535839 
L 620.228021 68.775529 
L 620.162622 69.015219 
L 620.092273 69.254908 
L 620.016121 69.494598 
z
" clip-path="url(#p75f976a7a0)" style="fill: #1f77b4; fill-opacity: 0.3"/>
   </g>
   <g id="PolyCollection_10">
    <path d="M 680.874425 180.349955 
L 678.266686 180.349955 
L 678.247497 180.240019 
L 678.233196 180.130084 
L 678.222891 180.020148 
L 678.21548 179.910212 
L 678.209684 179.800276 
L 678.204093 179.690341 
L 678.197216 179.580405 
L 678.18754 179.470469 
L 678.173586 179.360534 
L 678.153966 179.250598 
L 678.127439 179.140662 
L 678.092956 179.030727 
L 678.049695 178.920791 
L 677.997094 178.810855 
L 677.934859 178.70092 
L 677.862963 178.590984 
L 677.781638 178.481048 
L 677.691341 178.371112 
L 677.592717 178.261177 
L 677.486549 178.151241 
L 677.373701 178.041305 
L 677.255053 177.93137 
L 677.131436 177.821434 
L 677.003574 177.711498 
L 676.87202 177.601563 
L 676.737116 177.491627 
L 676.598948 177.381691 
L 676.457326 177.271755 
L 676.31178 177.16182 
L 676.161559 177.051884 
L 676.005665 176.941948 
L 675.842884 176.832013 
L 675.671841 176.722077 
L 675.491064 176.612141 
L 675.299049 176.502206 
L 675.094336 176.39227 
L 674.87558 176.282334 
L 674.641615 176.172399 
L 674.391521 176.062463 
L 674.12467 175.952527 
L 673.840758 175.842591 
L 673.539838 175.732656 
L 673.222315 175.62272 
L 672.888946 175.512784 
L 672.54082 175.402849 
L 672.179318 175.292913 
L 671.806079 175.182977 
L 671.422945 175.073042 
L 671.031913 174.963106 
L 670.63508 174.85317 
L 670.234593 174.743234 
L 669.832598 174.633299 
L 669.431204 174.523363 
L 669.032446 174.413427 
L 668.638261 174.303492 
L 668.250469 174.193556 
L 667.870768 174.08362 
L 667.500729 173.973685 
L 667.141809 173.863749 
L 666.795364 173.753813 
L 666.462664 173.643877 
L 666.144924 173.533942 
L 665.843328 173.424006 
L 665.559057 173.31407 
L 665.293322 173.204135 
L 665.047388 173.094199 
L 664.822598 172.984263 
L 664.620398 172.874328 
L 664.442342 172.764392 
L 664.290102 172.654456 
L 664.165457 172.544521 
L 664.070282 172.434585 
L 664.006513 172.324649 
L 663.976111 172.214713 
L 663.981009 172.104778 
L 664.023048 171.994842 
L 664.103911 171.884906 
L 664.225047 171.774971 
L 664.387594 171.665035 
L 664.592303 171.555099 
L 664.839474 171.445164 
L 665.128892 171.335228 
L 665.459783 171.225292 
L 665.830786 171.115356 
L 666.239942 171.005421 
L 666.684702 170.895485 
L 667.161962 170.785549 
L 667.668107 170.675614 
L 668.199086 170.565678 
L 668.750491 170.455742 
L 669.317655 170.345807 
L 669.895756 170.235871 
L 670.47992 170.125935 
L 671.065334 170.016 
L 671.647337 169.906064 
L 672.221521 169.796128 
L 672.783804 169.686192 
L 673.330496 169.576257 
L 673.858353 169.466321 
L 685.282759 169.466321 
L 685.282759 169.466321 
L 685.810615 169.576257 
L 686.357307 169.686192 
L 686.91959 169.796128 
L 687.493774 169.906064 
L 688.075777 170.016 
L 688.661191 170.125935 
L 689.245355 170.235871 
L 689.823456 170.345807 
L 690.39062 170.455742 
L 690.942025 170.565678 
L 691.473004 170.675614 
L 691.979149 170.785549 
L 692.456409 170.895485 
L 692.90117 171.005421 
L 693.310325 171.115356 
L 693.681328 171.225292 
L 694.012219 171.335228 
L 694.301637 171.445164 
L 694.548808 171.555099 
L 694.753518 171.665035 
L 694.916064 171.774971 
L 695.0372 171.884906 
L 695.118063 171.994842 
L 695.160103 172.104778 
L 695.165 172.214713 
L 695.134598 172.324649 
L 695.070829 172.434585 
L 694.975654 172.544521 
L 694.851009 172.654456 
L 694.698769 172.764392 
L 694.520713 172.874328 
L 694.318513 172.984263 
L 694.093723 173.094199 
L 693.847789 173.204135 
L 693.582054 173.31407 
L 693.297783 173.424006 
L 692.996187 173.533942 
L 692.678447 173.643877 
L 692.345748 173.753813 
L 691.999302 173.863749 
L 691.640382 173.973685 
L 691.270343 174.08362 
L 690.890642 174.193556 
L 690.50285 174.303492 
L 690.108665 174.413427 
L 689.709907 174.523363 
L 689.308513 174.633299 
L 688.906518 174.743234 
L 688.506031 174.85317 
L 688.109198 174.963106 
L 687.718166 175.073042 
L 687.335032 175.182977 
L 686.961793 175.292913 
L 686.600291 175.402849 
L 686.252165 175.512784 
L 685.918797 175.62272 
L 685.601273 175.732656 
L 685.300353 175.842591 
L 685.016442 175.952527 
L 684.74959 176.062463 
L 684.499496 176.172399 
L 684.265531 176.282334 
L 684.046775 176.39227 
L 683.842062 176.502206 
L 683.650047 176.612141 
L 683.46927 176.722077 
L 683.298228 176.832013 
L 683.135446 176.941948 
L 682.979552 177.051884 
L 682.829331 177.16182 
L 682.683785 177.271755 
L 682.542164 177.381691 
L 682.403995 177.491627 
L 682.269091 177.601563 
L 682.137537 177.711498 
L 682.009675 177.821434 
L 681.886058 177.93137 
L 681.76741 178.041305 
L 681.654562 178.151241 
L 681.548395 178.261177 
L 681.449771 178.371112 
L 681.359473 178.481048 
L 681.278148 178.590984 
L 681.206252 178.70092 
L 681.144017 178.810855 
L 681.091416 178.920791 
L 681.048156 179.030727 
L 681.013672 179.140662 
L 680.987145 179.250598 
L 680.967525 179.360534 
L 680.953571 179.470469 
L 680.943895 179.580405 
L 680.937018 179.690341 
L 680.931427 179.800276 
L 680.925632 179.910212 
L 680.918221 180.020148 
L 680.907915 180.130084 
L 680.893614 180.240019 
L 680.874425 180.349955 
z
" clip-path="url(#p75f976a7a0)" style="fill: #1f77b4; fill-opacity: 0.3"/>
   </g>
   <g id="matplotlib.axis_3">
    <g id="xtick_6">
     <g id="line2d_26">
      <g>
       <use xlink:href="#mdab8b617ed" x="430.059444" y="248.456" style="stroke: #000000; stroke-width: 0.8"/>
      </g>
     </g>
     <g id="text_16">
      <text style="font: 11px 'Arial'; text-anchor: middle" x="430.059444" y="263.329594" transform="rotate(-0, 430.059444, 263.329594)">Arche</text>
     </g>
    </g>
    <g id="xtick_7">
     <g id="line2d_27">
      <g>
       <use xlink:href="#mdab8b617ed" x="492.437222" y="248.456" style="stroke: #000000; stroke-width: 0.8"/>
      </g>
     </g>
     <g id="text_17">
      <text style="font: 11px 'Arial'" transform="translate(454.217378 263.329594)">go-gameengine</text>
      <text style="font: 11px 'Arial'" transform="translate(482.047378 275.093062)">-ecs</text>
     </g>
    </g>
    <g id="xtick_8">
     <g id="line2d_28">
      <g>
       <use xlink:href="#mdab8b617ed" x="554.815" y="248.456" style="stroke: #000000; stroke-width: 0.8"/>
      </g>
     </g>
     <g id="text_18">
      <text style="font: 11px 'Arial'; text-anchor: middle" x="554.815" y="263.329594" transform="rotate(-0, 554.815, 263.329594)">Donburi</text>
     </g>
    </g>
    <g id="xtick_9">
     <g id="line2d_29">
      <g>
       <use xlink:href="#mdab8b617ed" x="617.192778" y="248.456" style="stroke: #000000; stroke-width: 0.8"/>
      </g>
     </g>
     <g id="text_19">
      <text style="font: 11px 'Arial'; text-anchor: middle" x="617.192778" y="263.329594" transform="rotate(-0, 617.192778, 263.329594)">Entitas-Go</text>
     </g>
    </g>
    <g id="xtick_10">
     <g id="line2d_30">
      <g>
       <use xlink:href="#mdab8b617ed" x="679.570556" y="248.456" style="stroke: #000000; stroke-width: 0.8"/>
      </g>
     </g>
     <g id="text_20">
      <text style="font: 11px 'Arial'; text-anchor: middle" x="679.570556" y="263.329594" transform="rotate(-0, 679.570556, 263.329594)">Ento</text>
     </g>
    </g>
   </g>
   <g id="matplotlib.axis_4">
    <g id="ytick_21">
     <g id="line2d_31">
      <g>
       <use xlink:href="#mab2b87303f" x="400.43" y="248.456" style="stroke: #000000; stroke-width: 0.8"/>
      </g>
     </g>
     <g id="text_21">
      <text style="font: 10px 'Arial'; text-anchor: end" x="393.43" y="252.034906" transform="rotate(-0, 393.43, 252.034906)">0</text>
     </g>
    </g>
    <g id="ytick_22">
     <g id="line2d_32">
      <g>
       <use xlink:href="#mab2b87303f" x="400.43" y="210.703946" style="stroke: #000000; stroke-width: 0.8"/>
      </g>
     </g>
     <g id="text_22">
      <text style="font: 10px 'Arial'; text-anchor: end" x="393.43" y="214.282853" transform="rotate(-0, 393.43, 214.282853)">2</text>
     </g>
    </g>
    <g id="ytick_23">
     <g id="line2d_33">
      <g>
       <use xlink:href="#mab2b87303f" x="400.43" y="172.951893" style="stroke: #000000; stroke-width: 0.8"/>
      </g>
     </g>
     <g id="text_23">
      <text style="font: 10px 'Arial'; text-anchor: end" x="393.43" y="176.530799" transform="rotate(-0, 393.43, 176.530799)">4</text>
     </g>
    </g>
    <g id="ytick_24">
     <g id="line2d_34">
      <g>
       <use xlink:href="#mab2b87303f" x="400.43" y="135.199839" style="stroke: #000000; stroke-width: 0.8"/>
      </g>
     </g>
     <g id="text_24">
      <text style="font: 10px 'Arial'; text-anchor: end" x="393.43" y="138.778745" transform="rotate(-0, 393.43, 138.778745)">6</text>
     </g>
    </g>
    <g id="ytick_25">
     <g id="line2d_35">
      <g>
       <use xlink:href="#mab2b87303f" x="400.43" y="97.447785" style="stroke: #000000; stroke-width: 0.8"/>
      </g>
     </g>
     <g id="text_25">
      <text style="font: 10px 'Arial'; text-anchor: end" x="393.43" y="101.026692" transform="rotate(-0, 393.43, 101.026692)">8</text>
     </g>
    </g>
    <g id="ytick_26">
     <g id="line2d_36">
      <g>
       <use xlink:href="#mab2b87303f" x="400.43" y="59.695732" style="stroke: #000000; stroke-width: 0.8"/>
      </g>
     </g>
     <g id="text_26">
      <text style="font: 10px 'Arial'; text-anchor: end" x="393.43" y="63.274638" transform="rotate(-0, 393.43, 63.274638)">10</text>
     </g>
    </g>
    <g id="text_27">
     <text style="font: 11px 'Arial'; text-anchor: middle" x="376.121875" y="136.976125" transform="rotate(-90, 376.121875, 136.976125)">Time per run [ms]</text>
    </g>
   </g>
   <g id="LineCollection_2">
    <path d="M 422.262222 224.745922 
L 437.856667 224.745922 
" clip-path="url(#p75f976a7a0)" style="fill: none; stroke: #1f77b4; stroke-width: 1.5"/>
    <path d="M 484.64 198.045748 
L 500.234444 198.045748 
" clip-path="url(#p75f976a7a0)" style="fill: none; stroke: #1f77b4; stroke-width: 1.5"/>
    <path d="M 547.017778 173.506279 
L 562.612222 173.506279 
" clip-path="url(#p75f976a7a0)" style="fill: none; stroke: #1f77b4; stroke-width: 1.5"/>
    <path d="M 609.395556 55.939398 
L 624.99 55.939398 
" clip-path="url(#p75f976a7a0)" style="fill: none; stroke: #1f77b4; stroke-width: 1.5"/>
    <path d="M 671.773333 173.140174 
L 687.367778 173.140174 
" clip-path="url(#p75f976a7a0)" style="fill: none; stroke: #1f77b4; stroke-width: 1.5"/>
   </g>
   <g id="patch_8">
    <path d="M 400.43 248.456 
L 400.43 25.49625 
" style="fill: none; stroke: #000000; stroke-width: 0.8; stroke-linejoin: miter; stroke-linecap: square"/>
   </g>
   <g id="patch_9">
    <path d="M 709.2 248.456 
L 709.2 25.49625 
" style="fill: none; stroke: #000000; stroke-width: 0.8; stroke-linejoin: miter; stroke-linecap: square"/>
   </g>
   <g id="patch_10">
    <path d="M 400.43 248.456 
L 709.2 248.456 
" style="fill: none; stroke: #000000; stroke-width: 0.8; stroke-linejoin: miter; stroke-linecap: square"/>
   </g>
   <g id="patch_11">
    <path d="M 400.43 25.49625 
L 709.2 25.49625 
" style="fill: none; stroke: #000000; stroke-width: 0.8; stroke-linejoin: miter; stroke-linecap: square"/>
   </g>
   <g id="text_28">
    <text style="font: 12px 'Arial'; text-anchor: middle" x="554.815" y="19.49625" transform="rotate(-0, 554.815, 19.49625)">Position/Velocity -- Build</text>
   </g>
  </g>
 </g>
 <defs>
  <clipPath id="pa0dc2eb6c0">
   <rect x="48.62" y="25.49625" width="308.77" height="222.95975"/>
  </clipPath>
  <clipPath id="p75f976a7a0">
   <rect x="400.43" y="25.49625" width="308.77" height="222.95975"/>
  </clipPath>
 </defs>
</svg>
