<?xml version="1.0" encoding="UTF-8" standalone="no"?>
<!-- Created with Inkscape (http://www.inkscape.org/) -->

<svg
   width="1300"
   height="450"
   viewBox="0 0 343.95831 119.06249"
   version="1.1"
   id="svg6296"
   inkscape:version="1.2.1 (9c6d41e410, 2022-07-14)"
   sodipodi:docname="logo-light.svg"
   inkscape:export-filename="arche-logo-text.png"
   inkscape:export-xdpi="96"
   inkscape:export-ydpi="96"
   xml:space="preserve"
   xmlns:inkscape="http://www.inkscape.org/namespaces/inkscape"
   xmlns:sodipodi="http://sodipodi.sourceforge.net/DTD/sodipodi-0.dtd"
   xmlns="http://www.w3.org/2000/svg"
   xmlns:svg="http://www.w3.org/2000/svg"><sodipodi:namedview
     id="namedview6298"
     pagecolor="#ffffff"
     bordercolor="#666666"
     borderopacity="1.0"
     inkscape:showpageshadow="2"
     inkscape:pageopacity="0.0"
     inkscape:pagecheckerboard="0"
     inkscape:deskcolor="#d1d1d1"
     inkscape:document-units="px"
     showgrid="false"
     inkscape:zoom="0.5946522"
     inkscape:cx="439.75285"
     inkscape:cy="300.17546"
     inkscape:window-width="1920"
     inkscape:window-height="1013"
     inkscape:window-x="-9"
     inkscape:window-y="-9"
     inkscape:window-maximized="1"
     inkscape:current-layer="layer1"
     showguides="true"><inkscape:grid
       type="xygrid"
       id="grid8962"
       spacingx="1.0583333"
       spacingy="1.0583333"
       empspacing="4"
       originx="-84.983138"
       originy="-25.806398" /></sodipodi:namedview><defs
     id="defs6293" /><g
     inkscape:label="Layer 1"
     inkscape:groupmode="layer"
     id="layer1"
     transform="translate(-84.983146,-25.8064)"><text
       xml:space="preserve"
       style="font-size:88.607px;line-height:1.25;font-family:Arial;-inkscape-font-specification:Arial;letter-spacing:0px;word-spacing:0px;fill:#202020;fill-opacity:1;stroke-width:0.352562"
       x="204.52084"
       y="130.77263"
       id="text4600-5-9-2"><tspan
         sodipodi:role="line"
         id="tspan4598-4-1-1"
         style="font-style:normal;font-variant:normal;font-weight:900;font-stretch:normal;font-size:88.607px;font-family:Arial;-inkscape-font-specification:'Arial, Heavy';font-variant-ligatures:normal;font-variant-caps:normal;font-variant-numeric:normal;font-variant-east-asian:normal;fill:#202020;fill-opacity:1;stroke-width:0.352562"
         x="204.52084"
         y="130.77263">rche</tspan></text><path
       id="rect2643-3-4-3-2-0"
       style="font-variation-settings:normal;fill:#202020;fill-opacity:1;stroke:#000000;stroke-width:0;stroke-linecap:round;stroke-linejoin:round;stroke-miterlimit:4;stroke-dasharray:none;stroke-dashoffset:0;stroke-opacity:1;stop-color:#000000"
       d="M 153.34073 33.479316 C 148.6258 33.479316 145.7394 36.52649 143.94388 40.195701 L 95.669315 135.97744 C 95.374813 136.56482 95.667451 136.70878 95.855867 136.61048 C 107.16195 131.25563 122.01644 127.3777 136.42858 127.50096 C 134.25454 120.74465 133.75688 113.56129 134.70259 109.67931 L 170.68592 109.67931 C 171.95287 114.60065 170.6787 125.16798 166.50478 133.19984 C 178.55859 135.72285 187.30965 135.32677 197.14425 132.26191 L 197.14425 38.822659 C 197.14425 35.970632 194.68668 33.479316 191.85878 33.479316 L 153.34073 33.479316 z M 167.51092 54.645981 A 12.7 12.7 0 0 1 180.21092 67.34598 A 12.7 12.7 0 0 1 167.51092 80.045979 A 12.7 12.7 0 0 1 154.81092 67.34598 A 12.7 12.7 0 0 1 167.51092 54.645981 z M 152.73818 95.699286 L 163.25226 99.3895 L 163.25226 107.79209 L 142.06648 107.79209 L 142.06648 99.3895 L 152.73818 95.699286 z " /></g></svg>
