<?xml version="1.0" encoding="utf-8" standalone="no"?>
<!DOCTYPE svg PUBLIC "-//W3C//DTD SVG 1.1//EN"
  "http://www.w3.org/Graphics/SVG/1.1/DTD/svg11.dtd">
<svg xmlns:xlink="http://www.w3.org/1999/xlink" width="432pt" height="288pt" viewBox="0 0 432 288" xmlns="http://www.w3.org/2000/svg" version="1.1">
 <metadata>
  <rdf:RDF xmlns:dc="http://purl.org/dc/elements/1.1/" xmlns:cc="http://creativecommons.org/ns#" xmlns:rdf="http://www.w3.org/1999/02/22-rdf-syntax-ns#">
   <cc:Work>
    <dc:type rdf:resource="http://purl.org/dc/dcmitype/StillImage"/>
    <dc:date>2023-03-17T21:15:39.584415</dc:date>
    <dc:format>image/svg+xml</dc:format>
    <dc:creator>
     <cc:Agent>
      <dc:title>Matplotlib v3.5.1, https://matplotlib.org/</dc:title>
     </cc:Agent>
    </dc:creator>
   </cc:Work>
  </rdf:RDF>
 </metadata>
 <defs>
  <style type="text/css">*{stroke-linejoin: round; stroke-linecap: butt}</style>
 </defs>
 <g id="figure_1">
  <g id="patch_1">
   <path d="M 0 288 
L 432 288 
L 432 0 
L 0 0 
z
" style="fill: #ffffff"/>
  </g>
  <g id="axes_1">
   <g id="patch_2">
    <path d="M 43.04 246.04 
L 421.2 246.04 
L 421.2 25.49625 
L 43.04 25.49625 
z
" style="fill: #ffffff"/>
   </g>
   <g id="matplotlib.axis_1">
    <g id="xtick_1">
     <g id="line2d_1">
      <defs>
       <path id="ma231581b84" d="M 0 0 
L 0 3.5 
" style="stroke: #000000; stroke-width: 0.8"/>
      </defs>
      <g>
       <use xlink:href="#ma231581b84" x="60.229091" y="246.04" style="stroke: #000000; stroke-width: 0.8"/>
      </g>
     </g>
     <g id="text_1">
      <text style="font: 10px 'Arial'; text-anchor: middle" x="60.229091" y="260.197812" transform="rotate(-0, 60.229091, 260.197812)">16</text>
     </g>
    </g>
    <g id="xtick_2">
     <g id="line2d_2">
      <g>
       <use xlink:href="#ma231581b84" x="146.174545" y="246.04" style="stroke: #000000; stroke-width: 0.8"/>
      </g>
     </g>
     <g id="text_2">
      <text style="font: 10px 'Arial'; text-anchor: middle" x="146.174545" y="260.197812" transform="rotate(-0, 146.174545, 260.197812)">32</text>
     </g>
    </g>
    <g id="xtick_3">
     <g id="line2d_3">
      <g>
       <use xlink:href="#ma231581b84" x="232.12" y="246.04" style="stroke: #000000; stroke-width: 0.8"/>
      </g>
     </g>
     <g id="text_3">
      <text style="font: 10px 'Arial'; text-anchor: middle" x="232.12" y="260.197812" transform="rotate(-0, 232.12, 260.197812)">64</text>
     </g>
    </g>
    <g id="xtick_4">
     <g id="line2d_4">
      <g>
       <use xlink:href="#ma231581b84" x="318.065455" y="246.04" style="stroke: #000000; stroke-width: 0.8"/>
      </g>
     </g>
     <g id="text_4">
      <text style="font: 10px 'Arial'; text-anchor: middle" x="318.065455" y="260.197812" transform="rotate(-0, 318.065455, 260.197812)">128</text>
     </g>
    </g>
    <g id="xtick_5">
     <g id="line2d_5">
      <g>
       <use xlink:href="#ma231581b84" x="404.010909" y="246.04" style="stroke: #000000; stroke-width: 0.8"/>
      </g>
     </g>
     <g id="text_5">
      <text style="font: 10px 'Arial'; text-anchor: middle" x="404.010909" y="260.197812" transform="rotate(-0, 404.010909, 260.197812)">256</text>
     </g>
    </g>
    <g id="xtick_6">
     <g id="line2d_6">
      <defs>
       <path id="mfa7d49e973" d="M 0 0 
L 0 2 
" style="stroke: #000000; stroke-width: 0.6"/>
      </defs>
      <g>
       <use xlink:href="#mfa7d49e973" x="87.897347" y="246.04" style="stroke: #000000; stroke-width: 0.6"/>
      </g>
     </g>
    </g>
    <g id="xtick_7">
     <g id="line2d_7">
      <g>
       <use xlink:href="#mfa7d49e973" x="138.172215" y="246.04" style="stroke: #000000; stroke-width: 0.6"/>
      </g>
     </g>
    </g>
    <g id="xtick_8">
     <g id="line2d_8">
      <g>
       <use xlink:href="#mfa7d49e973" x="173.842802" y="246.04" style="stroke: #000000; stroke-width: 0.6"/>
      </g>
     </g>
    </g>
    <g id="xtick_9">
     <g id="line2d_9">
      <g>
       <use xlink:href="#mfa7d49e973" x="201.511058" y="246.04" style="stroke: #000000; stroke-width: 0.6"/>
      </g>
     </g>
    </g>
    <g id="xtick_10">
     <g id="line2d_10">
      <g>
       <use xlink:href="#mfa7d49e973" x="224.11767" y="246.04" style="stroke: #000000; stroke-width: 0.6"/>
      </g>
     </g>
    </g>
    <g id="xtick_11">
     <g id="line2d_11">
      <g>
       <use xlink:href="#mfa7d49e973" x="243.231288" y="246.04" style="stroke: #000000; stroke-width: 0.6"/>
      </g>
     </g>
    </g>
    <g id="xtick_12">
     <g id="line2d_12">
      <g>
       <use xlink:href="#mfa7d49e973" x="259.788256" y="246.04" style="stroke: #000000; stroke-width: 0.6"/>
      </g>
     </g>
    </g>
    <g id="xtick_13">
     <g id="line2d_13">
      <g>
       <use xlink:href="#mfa7d49e973" x="274.392538" y="246.04" style="stroke: #000000; stroke-width: 0.6"/>
      </g>
     </g>
    </g>
    <g id="xtick_14">
     <g id="line2d_14">
      <g>
       <use xlink:href="#mfa7d49e973" x="373.401967" y="246.04" style="stroke: #000000; stroke-width: 0.6"/>
      </g>
     </g>
    </g>
    <g id="text_6">
     <text style="font: 11px 'Arial'; text-anchor: middle" x="232.12" y="274.058906" transform="rotate(-0, 232.12, 274.058906)">Memory per Entity [byte]</text>
    </g>
   </g>
   <g id="matplotlib.axis_2">
    <g id="ytick_1">
     <g id="line2d_15">
      <defs>
       <path id="m48a676a885" d="M 0 0 
L -3.5 0 
" style="stroke: #000000; stroke-width: 0.8"/>
      </defs>
      <g>
       <use xlink:href="#m48a676a885" x="43.04" y="246.04" style="stroke: #000000; stroke-width: 0.8"/>
      </g>
     </g>
     <g id="text_7">
      <text style="font: 10px 'Arial'; text-anchor: end" x="36.04" y="249.618906" transform="rotate(-0, 36.04, 249.618906)">0</text>
     </g>
    </g>
    <g id="ytick_2">
     <g id="line2d_16">
      <g>
       <use xlink:href="#m48a676a885" x="43.04" y="218.730296" style="stroke: #000000; stroke-width: 0.8"/>
      </g>
     </g>
     <g id="text_8">
      <text style="font: 10px 'Arial'; text-anchor: end" x="36.04" y="222.309202" transform="rotate(-0, 36.04, 222.309202)">2</text>
     </g>
    </g>
    <g id="ytick_3">
     <g id="line2d_17">
      <g>
       <use xlink:href="#m48a676a885" x="43.04" y="191.420591" style="stroke: #000000; stroke-width: 0.8"/>
      </g>
     </g>
     <g id="text_9">
      <text style="font: 10px 'Arial'; text-anchor: end" x="36.04" y="194.999498" transform="rotate(-0, 36.04, 194.999498)">4</text>
     </g>
    </g>
    <g id="ytick_4">
     <g id="line2d_18">
      <g>
       <use xlink:href="#m48a676a885" x="43.04" y="164.110887" style="stroke: #000000; stroke-width: 0.8"/>
      </g>
     </g>
     <g id="text_10">
      <text style="font: 10px 'Arial'; text-anchor: end" x="36.04" y="167.689793" transform="rotate(-0, 36.04, 167.689793)">6</text>
     </g>
    </g>
    <g id="ytick_5">
     <g id="line2d_19">
      <g>
       <use xlink:href="#m48a676a885" x="43.04" y="136.801183" style="stroke: #000000; stroke-width: 0.8"/>
      </g>
     </g>
     <g id="text_11">
      <text style="font: 10px 'Arial'; text-anchor: end" x="36.04" y="140.380089" transform="rotate(-0, 36.04, 140.380089)">8</text>
     </g>
    </g>
    <g id="ytick_6">
     <g id="line2d_20">
      <g>
       <use xlink:href="#m48a676a885" x="43.04" y="109.491479" style="stroke: #000000; stroke-width: 0.8"/>
      </g>
     </g>
     <g id="text_12">
      <text style="font: 10px 'Arial'; text-anchor: end" x="36.04" y="113.070385" transform="rotate(-0, 36.04, 113.070385)">10</text>
     </g>
    </g>
    <g id="ytick_7">
     <g id="line2d_21">
      <g>
       <use xlink:href="#m48a676a885" x="43.04" y="82.181774" style="stroke: #000000; stroke-width: 0.8"/>
      </g>
     </g>
     <g id="text_13">
      <text style="font: 10px 'Arial'; text-anchor: end" x="36.04" y="85.760681" transform="rotate(-0, 36.04, 85.760681)">12</text>
     </g>
    </g>
    <g id="ytick_8">
     <g id="line2d_22">
      <g>
       <use xlink:href="#m48a676a885" x="43.04" y="54.87207" style="stroke: #000000; stroke-width: 0.8"/>
      </g>
     </g>
     <g id="text_14">
      <text style="font: 10px 'Arial'; text-anchor: end" x="36.04" y="58.450976" transform="rotate(-0, 36.04, 58.450976)">14</text>
     </g>
    </g>
    <g id="ytick_9">
     <g id="line2d_23">
      <g>
       <use xlink:href="#m48a676a885" x="43.04" y="27.562366" style="stroke: #000000; stroke-width: 0.8"/>
      </g>
     </g>
     <g id="text_15">
      <text style="font: 10px 'Arial'; text-anchor: end" x="36.04" y="31.141272" transform="rotate(-0, 36.04, 31.141272)">16</text>
     </g>
    </g>
    <g id="text_16">
     <text style="font: 11px 'Arial'; text-anchor: middle" x="18.602969" y="135.768125" transform="rotate(-90, 18.602969, 135.768125)">Time per Entity [ns]</text>
    </g>
   </g>
   <g id="line2d_24">
    <path d="M 60.229091 215.657954 
L 146.174545 216.381661 
L 232.12 215.070795 
L 318.065455 215.466786 
L 404.010909 215.002521 
" clip-path="url(#pd867d2f3a9)" style="fill: none; stroke-dasharray: 1,1.65; stroke-dashoffset: 0; stroke: #000000"/>
    <defs>
     <path id="m750e425129" d="M 0 1.5 
C 0.397805 1.5 0.77937 1.341951 1.06066 1.06066 
C 1.341951 0.77937 1.5 0.397805 1.5 0 
C 1.5 -0.397805 1.341951 -0.77937 1.06066 -1.06066 
C 0.77937 -1.341951 0.397805 -1.5 0 -1.5 
C -0.397805 -1.5 -0.77937 -1.341951 -1.06066 -1.06066 
C -1.341951 -0.77937 -1.5 -0.397805 -1.5 0 
C -1.5 0.397805 -1.341951 0.77937 -1.06066 1.06066 
C -0.77937 1.341951 -0.397805 1.5 0 1.5 
z
" style="stroke: #000000"/>
    </defs>
    <g clip-path="url(#pd867d2f3a9)">
     <use xlink:href="#m750e425129" x="60.229091" y="215.657954" style="stroke: #000000"/>
     <use xlink:href="#m750e425129" x="146.174545" y="216.381661" style="stroke: #000000"/>
     <use xlink:href="#m750e425129" x="232.12" y="215.070795" style="stroke: #000000"/>
     <use xlink:href="#m750e425129" x="318.065455" y="215.466786" style="stroke: #000000"/>
     <use xlink:href="#m750e425129" x="404.010909" y="215.002521" style="stroke: #000000"/>
    </g>
   </g>
   <g id="line2d_25">
    <path d="M 60.229091 217.373003 
L 146.174545 217.797669 
L 232.12 216.975647 
L 318.065455 215.489999 
L 404.010909 216.938779 
" clip-path="url(#pd867d2f3a9)" style="fill: none; stroke-dasharray: 4.44,1.92; stroke-dashoffset: 0; stroke: #000000; stroke-width: 1.2"/>
    <g clip-path="url(#pd867d2f3a9)">
     <use xlink:href="#m750e425129" x="60.229091" y="217.373003" style="stroke: #000000"/>
     <use xlink:href="#m750e425129" x="146.174545" y="217.797669" style="stroke: #000000"/>
     <use xlink:href="#m750e425129" x="232.12" y="216.975647" style="stroke: #000000"/>
     <use xlink:href="#m750e425129" x="318.065455" y="215.489999" style="stroke: #000000"/>
     <use xlink:href="#m750e425129" x="404.010909" y="216.938779" style="stroke: #000000"/>
    </g>
   </g>
   <g id="line2d_26">
    <path d="M 60.229091 217.154253 
L 146.174545 217.342963 
L 232.12 215.169383 
L 318.065455 214.635752 
L 404.010909 215.185906 
" clip-path="url(#pd867d2f3a9)" style="fill: none; stroke: #000000; stroke-width: 1.5; stroke-linecap: square"/>
    <g clip-path="url(#pd867d2f3a9)">
     <use xlink:href="#m750e425129" x="60.229091" y="217.154253" style="stroke: #000000"/>
     <use xlink:href="#m750e425129" x="146.174545" y="217.342963" style="stroke: #000000"/>
     <use xlink:href="#m750e425129" x="232.12" y="215.169383" style="stroke: #000000"/>
     <use xlink:href="#m750e425129" x="318.065455" y="214.635752" style="stroke: #000000"/>
     <use xlink:href="#m750e425129" x="404.010909" y="215.185906" style="stroke: #000000"/>
    </g>
   </g>
   <g id="line2d_27">
    <path d="M 60.229091 242.403713 
L 146.174545 238.909436 
L 232.12 217.515014 
L 318.065455 191.748308 
L 404.010909 153.67858 
" clip-path="url(#pd867d2f3a9)" style="fill: none; stroke-dasharray: 1,1.65; stroke-dashoffset: 0; stroke: #ff0000"/>
    <defs>
     <path id="m8ead3b69bd" d="M 0 1.5 
C 0.397805 1.5 0.77937 1.341951 1.06066 1.06066 
C 1.341951 0.77937 1.5 0.397805 1.5 0 
C 1.5 -0.397805 1.341951 -0.77937 1.06066 -1.06066 
C 0.77937 -1.341951 0.397805 -1.5 0 -1.5 
C -0.397805 -1.5 -0.77937 -1.341951 -1.06066 -1.06066 
C -1.341951 -0.77937 -1.5 -0.397805 -1.5 0 
C -1.5 0.397805 -1.341951 0.77937 -1.06066 1.06066 
C -0.77937 1.341951 -0.397805 1.5 0 1.5 
z
" style="stroke: #ff0000"/>
    </defs>
    <g clip-path="url(#pd867d2f3a9)">
     <use xlink:href="#m8ead3b69bd" x="60.229091" y="242.403713" style="fill: #ff0000; stroke: #ff0000"/>
     <use xlink:href="#m8ead3b69bd" x="146.174545" y="238.909436" style="fill: #ff0000; stroke: #ff0000"/>
     <use xlink:href="#m8ead3b69bd" x="232.12" y="217.515014" style="fill: #ff0000; stroke: #ff0000"/>
     <use xlink:href="#m8ead3b69bd" x="318.065455" y="191.748308" style="fill: #ff0000; stroke: #ff0000"/>
     <use xlink:href="#m8ead3b69bd" x="404.010909" y="153.67858" style="fill: #ff0000; stroke: #ff0000"/>
    </g>
   </g>
   <g id="line2d_28">
    <path d="M 60.229091 242.50749 
L 146.174545 239.01731 
L 232.12 215.582852 
L 318.065455 187.717396 
L 404.010909 145.377795 
" clip-path="url(#pd867d2f3a9)" style="fill: none; stroke-dasharray: 4.44,1.92; stroke-dashoffset: 0; stroke: #ff0000; stroke-width: 1.2"/>
    <g clip-path="url(#pd867d2f3a9)">
     <use xlink:href="#m8ead3b69bd" x="60.229091" y="242.50749" style="fill: #ff0000; stroke: #ff0000"/>
     <use xlink:href="#m8ead3b69bd" x="146.174545" y="239.01731" style="fill: #ff0000; stroke: #ff0000"/>
     <use xlink:href="#m8ead3b69bd" x="232.12" y="215.582852" style="fill: #ff0000; stroke: #ff0000"/>
     <use xlink:href="#m8ead3b69bd" x="318.065455" y="187.717396" style="fill: #ff0000; stroke: #ff0000"/>
     <use xlink:href="#m8ead3b69bd" x="404.010909" y="145.377795" style="fill: #ff0000; stroke: #ff0000"/>
    </g>
   </g>
   <g id="line2d_29">
    <path d="M 60.229091 242.298024 
L 146.174545 238.982763 
L 232.12 208.329122 
L 318.065455 137.565035 
L 404.010909 35.998333 
" clip-path="url(#pd867d2f3a9)" style="fill: none; stroke: #ff0000; stroke-width: 1.5; stroke-linecap: square"/>
    <g clip-path="url(#pd867d2f3a9)">
     <use xlink:href="#m8ead3b69bd" x="60.229091" y="242.298024" style="fill: #ff0000; stroke: #ff0000"/>
     <use xlink:href="#m8ead3b69bd" x="146.174545" y="238.982763" style="fill: #ff0000; stroke: #ff0000"/>
     <use xlink:href="#m8ead3b69bd" x="232.12" y="208.329122" style="fill: #ff0000; stroke: #ff0000"/>
     <use xlink:href="#m8ead3b69bd" x="318.065455" y="137.565035" style="fill: #ff0000; stroke: #ff0000"/>
     <use xlink:href="#m8ead3b69bd" x="404.010909" y="35.998333" style="fill: #ff0000; stroke: #ff0000"/>
    </g>
   </g>
   <g id="line2d_30">
    <path d="M 60.229091 236.884422 
L 146.174545 233.992324 
L 232.12 232.19398 
L 318.065455 227.182649 
L 404.010909 222.075734 
" clip-path="url(#pd867d2f3a9)" style="fill: none; stroke-dasharray: 1,1.65; stroke-dashoffset: 0; stroke: #0000ff"/>
    <defs>
     <path id="m8011447a2c" d="M 0 1.5 
C 0.397805 1.5 0.77937 1.341951 1.06066 1.06066 
C 1.341951 0.77937 1.5 0.397805 1.5 0 
C 1.5 -0.397805 1.341951 -0.77937 1.06066 -1.06066 
C 0.77937 -1.341951 0.397805 -1.5 0 -1.5 
C -0.397805 -1.5 -0.77937 -1.341951 -1.06066 -1.06066 
C -1.341951 -0.77937 -1.5 -0.397805 -1.5 0 
C -1.5 0.397805 -1.341951 0.77937 -1.06066 1.06066 
C -0.77937 1.341951 -0.397805 1.5 0 1.5 
z
" style="stroke: #0000ff"/>
    </defs>
    <g clip-path="url(#pd867d2f3a9)">
     <use xlink:href="#m8011447a2c" x="60.229091" y="236.884422" style="fill: #0000ff; stroke: #0000ff"/>
     <use xlink:href="#m8011447a2c" x="146.174545" y="233.992324" style="fill: #0000ff; stroke: #0000ff"/>
     <use xlink:href="#m8011447a2c" x="232.12" y="232.19398" style="fill: #0000ff; stroke: #0000ff"/>
     <use xlink:href="#m8011447a2c" x="318.065455" y="227.182649" style="fill: #0000ff; stroke: #0000ff"/>
     <use xlink:href="#m8011447a2c" x="404.010909" y="222.075734" style="fill: #0000ff; stroke: #0000ff"/>
    </g>
   </g>
   <g id="line2d_31">
    <path d="M 60.229091 234.208071 
L 146.174545 230.977333 
L 232.12 221.832678 
L 318.065455 208.139592 
L 404.010909 201.84334 
" clip-path="url(#pd867d2f3a9)" style="fill: none; stroke-dasharray: 4.44,1.92; stroke-dashoffset: 0; stroke: #0000ff; stroke-width: 1.2"/>
    <g clip-path="url(#pd867d2f3a9)">
     <use xlink:href="#m8011447a2c" x="60.229091" y="234.208071" style="fill: #0000ff; stroke: #0000ff"/>
     <use xlink:href="#m8011447a2c" x="146.174545" y="230.977333" style="fill: #0000ff; stroke: #0000ff"/>
     <use xlink:href="#m8011447a2c" x="232.12" y="221.832678" style="fill: #0000ff; stroke: #0000ff"/>
     <use xlink:href="#m8011447a2c" x="318.065455" y="208.139592" style="fill: #0000ff; stroke: #0000ff"/>
     <use xlink:href="#m8011447a2c" x="404.010909" y="201.84334" style="fill: #0000ff; stroke: #0000ff"/>
    </g>
   </g>
   <g id="line2d_32">
    <path d="M 60.229091 233.180543 
L 146.174545 230.189857 
L 232.12 210.286272 
L 318.065455 166.67322 
L 404.010909 119.708312 
" clip-path="url(#pd867d2f3a9)" style="fill: none; stroke: #0000ff; stroke-width: 1.5; stroke-linecap: square"/>
    <g clip-path="url(#pd867d2f3a9)">
     <use xlink:href="#m8011447a2c" x="60.229091" y="233.180543" style="fill: #0000ff; stroke: #0000ff"/>
     <use xlink:href="#m8011447a2c" x="146.174545" y="230.189857" style="fill: #0000ff; stroke: #0000ff"/>
     <use xlink:href="#m8011447a2c" x="232.12" y="210.286272" style="fill: #0000ff; stroke: #0000ff"/>
     <use xlink:href="#m8011447a2c" x="318.065455" y="166.67322" style="fill: #0000ff; stroke: #0000ff"/>
     <use xlink:href="#m8011447a2c" x="404.010909" y="119.708312" style="fill: #0000ff; stroke: #0000ff"/>
    </g>
   </g>
   <g id="line2d_33">
    <path clip-path="url(#pd867d2f3a9)" style="fill: none; stroke: #000000; stroke-width: 1.5; stroke-linecap: square"/>
   </g>
   <g id="line2d_34">
    <path clip-path="url(#pd867d2f3a9)" style="fill: none; stroke-dasharray: 4.44,1.92; stroke-dashoffset: 0; stroke: #000000; stroke-width: 1.2"/>
   </g>
   <g id="line2d_35">
    <path clip-path="url(#pd867d2f3a9)" style="fill: none; stroke-dasharray: 1,1.65; stroke-dashoffset: 0; stroke: #000000"/>
   </g>
   <g id="patch_3">
    <path d="M 43.04 246.04 
L 43.04 25.49625 
" style="fill: none; stroke: #000000; stroke-width: 0.8; stroke-linejoin: miter; stroke-linecap: square"/>
   </g>
   <g id="patch_4">
    <path d="M 421.2 246.04 
L 421.2 25.49625 
" style="fill: none; stroke: #000000; stroke-width: 0.8; stroke-linejoin: miter; stroke-linecap: square"/>
   </g>
   <g id="patch_5">
    <path d="M 43.04 246.04 
L 421.2 246.04 
" style="fill: none; stroke: #000000; stroke-width: 0.8; stroke-linejoin: miter; stroke-linecap: square"/>
   </g>
   <g id="patch_6">
    <path d="M 43.04 25.49625 
L 421.2 25.49625 
" style="fill: none; stroke: #000000; stroke-width: 0.8; stroke-linejoin: miter; stroke-linecap: square"/>
   </g>
   <g id="text_17">
    <text style="font: 12px 'Arial'; text-anchor: middle" x="232.12" y="19.49625" transform="rotate(-0, 232.12, 19.49625)">Iter &amp; get 16 byte</text>
   </g>
   <g id="legend_1">
    <g id="patch_7">
     <path d="M 50.04 118.368125 
L 138.18375 118.368125 
Q 140.18375 118.368125 140.18375 116.368125 
L 140.18375 32.49625 
Q 140.18375 30.49625 138.18375 30.49625 
L 50.04 30.49625 
Q 48.04 30.49625 48.04 32.49625 
L 48.04 116.368125 
Q 48.04 118.368125 50.04 118.368125 
z
" style="fill: #ffffff; opacity: 0.8; stroke: #cccccc; stroke-linejoin: miter"/>
    </g>
    <g id="line2d_36">
     <path d="M 52.04 38.154062 
L 62.04 38.154062 
L 72.04 38.154062 
" style="fill: none; stroke: #000000; stroke-width: 1.5; stroke-linecap: square"/>
     <g>
      <use xlink:href="#m750e425129" x="62.04" y="38.154062" style="stroke: #000000"/>
     </g>
    </g>
    <g id="text_18">
     <text style="font: 10px 'Arial'; text-anchor: start" x="80.04" y="41.654062" transform="rotate(-0, 80.04, 41.654062)">Arche</text>
    </g>
    <g id="line2d_37">
     <path d="M 52.04 52.299375 
L 62.04 52.299375 
L 72.04 52.299375 
" style="fill: none; stroke: #ff0000; stroke-width: 1.5; stroke-linecap: square"/>
     <g>
      <use xlink:href="#m8ead3b69bd" x="62.04" y="52.299375" style="fill: #ff0000; stroke: #ff0000"/>
     </g>
    </g>
    <g id="text_19">
     <text style="font: 10px 'Arial'; text-anchor: start" x="80.04" y="55.799375" transform="rotate(-0, 80.04, 55.799375)">AoS</text>
    </g>
    <g id="line2d_38">
     <path d="M 52.04 66.444687 
L 62.04 66.444687 
L 72.04 66.444687 
" style="fill: none; stroke: #0000ff; stroke-width: 1.5; stroke-linecap: square"/>
     <g>
      <use xlink:href="#m8011447a2c" x="62.04" y="66.444687" style="fill: #0000ff; stroke: #0000ff"/>
     </g>
    </g>
    <g id="text_20">
     <text style="font: 10px 'Arial'; text-anchor: start" x="80.04" y="69.944687" transform="rotate(-0, 80.04, 69.944687)">AoP</text>
    </g>
    <g id="line2d_39">
     <path d="M 52.04 80.59 
L 62.04 80.59 
L 72.04 80.59 
" style="fill: none; stroke: #000000; stroke-width: 1.5; stroke-linecap: square"/>
    </g>
    <g id="text_21">
     <text style="font: 10px 'Arial'; text-anchor: start" x="80.04" y="84.09" transform="rotate(-0, 80.04, 84.09)">100k entities</text>
    </g>
    <g id="line2d_40">
     <path d="M 52.04 94.735312 
L 62.04 94.735312 
L 72.04 94.735312 
" style="fill: none; stroke-dasharray: 4.44,1.92; stroke-dashoffset: 0; stroke: #000000; stroke-width: 1.2"/>
    </g>
    <g id="text_22">
     <text style="font: 10px 'Arial'; text-anchor: start" x="80.04" y="98.235312" transform="rotate(-0, 80.04, 98.235312)">10k entities</text>
    </g>
    <g id="line2d_41">
     <path d="M 52.04 108.880625 
L 62.04 108.880625 
L 72.04 108.880625 
" style="fill: none; stroke-dasharray: 1,1.65; stroke-dashoffset: 0; stroke: #000000"/>
    </g>
    <g id="text_23">
     <text style="font: 10px 'Arial'; text-anchor: start" x="80.04" y="112.380625" transform="rotate(-0, 80.04, 112.380625)">1k entities</text>
    </g>
   </g>
  </g>
 </g>
 <defs>
  <clipPath id="pd867d2f3a9">
   <rect x="43.04" y="25.49625" width="378.16" height="220.54375"/>
  </clipPath>
 </defs>
</svg>
