<?xml version="1.0" encoding="utf-8" standalone="no"?>
<!DOCTYPE svg PUBLIC "-//W3C//DTD SVG 1.1//EN"
  "http://www.w3.org/Graphics/SVG/1.1/DTD/svg11.dtd">
<svg xmlns:xlink="http://www.w3.org/1999/xlink" width="432pt" height="288pt" viewBox="0 0 432 288" xmlns="http://www.w3.org/2000/svg" version="1.1">
 <metadata>
  <rdf:RDF xmlns:dc="http://purl.org/dc/elements/1.1/" xmlns:cc="http://creativecommons.org/ns#" xmlns:rdf="http://www.w3.org/1999/02/22-rdf-syntax-ns#">
   <cc:Work>
    <dc:type rdf:resource="http://purl.org/dc/dcmitype/StillImage"/>
    <dc:date>2023-03-21T19:20:12.351396</dc:date>
    <dc:format>image/svg+xml</dc:format>
    <dc:creator>
     <cc:Agent>
      <dc:title>Matplotlib v3.5.1, https://matplotlib.org/</dc:title>
     </cc:Agent>
    </dc:creator>
   </cc:Work>
  </rdf:RDF>
 </metadata>
 <defs>
  <style type="text/css">*{stroke-linejoin: round; stroke-linecap: butt}</style>
 </defs>
 <g id="figure_1">
  <g id="patch_1">
   <path d="M 0 288 
L 432 288 
L 432 0 
L 0 0 
z
" style="fill: #ffffff"/>
  </g>
  <g id="axes_1">
   <g id="patch_2">
    <path d="M 43.04 246.04 
L 421.2 246.04 
L 421.2 25.49625 
L 43.04 25.49625 
z
" style="fill: #ffffff"/>
   </g>
   <g id="matplotlib.axis_1">
    <g id="xtick_1">
     <g id="line2d_1">
      <defs>
       <path id="m335eb5ce66" d="M 0 0 
L 0 3.5 
" style="stroke: #000000; stroke-width: 0.8"/>
      </defs>
      <g>
       <use xlink:href="#m335eb5ce66" x="60.229091" y="246.04" style="stroke: #000000; stroke-width: 0.8"/>
      </g>
     </g>
     <g id="text_1">
      <text style="font: 10px 'Arial'; text-anchor: middle" x="60.229091" y="260.197812" transform="rotate(-0, 60.229091, 260.197812)">16</text>
     </g>
    </g>
    <g id="xtick_2">
     <g id="line2d_2">
      <g>
       <use xlink:href="#m335eb5ce66" x="146.174545" y="246.04" style="stroke: #000000; stroke-width: 0.8"/>
      </g>
     </g>
     <g id="text_2">
      <text style="font: 10px 'Arial'; text-anchor: middle" x="146.174545" y="260.197812" transform="rotate(-0, 146.174545, 260.197812)">32</text>
     </g>
    </g>
    <g id="xtick_3">
     <g id="line2d_3">
      <g>
       <use xlink:href="#m335eb5ce66" x="232.12" y="246.04" style="stroke: #000000; stroke-width: 0.8"/>
      </g>
     </g>
     <g id="text_3">
      <text style="font: 10px 'Arial'; text-anchor: middle" x="232.12" y="260.197812" transform="rotate(-0, 232.12, 260.197812)">64</text>
     </g>
    </g>
    <g id="xtick_4">
     <g id="line2d_4">
      <g>
       <use xlink:href="#m335eb5ce66" x="318.065455" y="246.04" style="stroke: #000000; stroke-width: 0.8"/>
      </g>
     </g>
     <g id="text_4">
      <text style="font: 10px 'Arial'; text-anchor: middle" x="318.065455" y="260.197812" transform="rotate(-0, 318.065455, 260.197812)">128</text>
     </g>
    </g>
    <g id="xtick_5">
     <g id="line2d_5">
      <g>
       <use xlink:href="#m335eb5ce66" x="404.010909" y="246.04" style="stroke: #000000; stroke-width: 0.8"/>
      </g>
     </g>
     <g id="text_5">
      <text style="font: 10px 'Arial'; text-anchor: middle" x="404.010909" y="260.197812" transform="rotate(-0, 404.010909, 260.197812)">256</text>
     </g>
    </g>
    <g id="xtick_6">
     <g id="line2d_6">
      <defs>
       <path id="m08cedb3686" d="M 0 0 
L 0 2 
" style="stroke: #000000; stroke-width: 0.6"/>
      </defs>
      <g>
       <use xlink:href="#m08cedb3686" x="87.897347" y="246.04" style="stroke: #000000; stroke-width: 0.6"/>
      </g>
     </g>
    </g>
    <g id="xtick_7">
     <g id="line2d_7">
      <g>
       <use xlink:href="#m08cedb3686" x="138.172215" y="246.04" style="stroke: #000000; stroke-width: 0.6"/>
      </g>
     </g>
    </g>
    <g id="xtick_8">
     <g id="line2d_8">
      <g>
       <use xlink:href="#m08cedb3686" x="173.842802" y="246.04" style="stroke: #000000; stroke-width: 0.6"/>
      </g>
     </g>
    </g>
    <g id="xtick_9">
     <g id="line2d_9">
      <g>
       <use xlink:href="#m08cedb3686" x="201.511058" y="246.04" style="stroke: #000000; stroke-width: 0.6"/>
      </g>
     </g>
    </g>
    <g id="xtick_10">
     <g id="line2d_10">
      <g>
       <use xlink:href="#m08cedb3686" x="224.11767" y="246.04" style="stroke: #000000; stroke-width: 0.6"/>
      </g>
     </g>
    </g>
    <g id="xtick_11">
     <g id="line2d_11">
      <g>
       <use xlink:href="#m08cedb3686" x="243.231288" y="246.04" style="stroke: #000000; stroke-width: 0.6"/>
      </g>
     </g>
    </g>
    <g id="xtick_12">
     <g id="line2d_12">
      <g>
       <use xlink:href="#m08cedb3686" x="259.788256" y="246.04" style="stroke: #000000; stroke-width: 0.6"/>
      </g>
     </g>
    </g>
    <g id="xtick_13">
     <g id="line2d_13">
      <g>
       <use xlink:href="#m08cedb3686" x="274.392538" y="246.04" style="stroke: #000000; stroke-width: 0.6"/>
      </g>
     </g>
    </g>
    <g id="xtick_14">
     <g id="line2d_14">
      <g>
       <use xlink:href="#m08cedb3686" x="373.401967" y="246.04" style="stroke: #000000; stroke-width: 0.6"/>
      </g>
     </g>
    </g>
    <g id="text_6">
     <text style="font: 11px 'Arial'; text-anchor: middle" x="232.12" y="274.058906" transform="rotate(-0, 232.12, 274.058906)">Memory per Entity [byte]</text>
    </g>
   </g>
   <g id="matplotlib.axis_2">
    <g id="ytick_1">
     <g id="line2d_15">
      <defs>
       <path id="m0aa8cb60d0" d="M 0 0 
L -3.5 0 
" style="stroke: #000000; stroke-width: 0.8"/>
      </defs>
      <g>
       <use xlink:href="#m0aa8cb60d0" x="43.04" y="246.04" style="stroke: #000000; stroke-width: 0.8"/>
      </g>
     </g>
     <g id="text_7">
      <text style="font: 10px 'Arial'; text-anchor: end" x="36.04" y="249.618906" transform="rotate(-0, 36.04, 249.618906)">0</text>
     </g>
    </g>
    <g id="ytick_2">
     <g id="line2d_16">
      <g>
       <use xlink:href="#m0aa8cb60d0" x="43.04" y="219.142289" style="stroke: #000000; stroke-width: 0.8"/>
      </g>
     </g>
     <g id="text_8">
      <text style="font: 10px 'Arial'; text-anchor: end" x="36.04" y="222.721196" transform="rotate(-0, 36.04, 222.721196)">2</text>
     </g>
    </g>
    <g id="ytick_3">
     <g id="line2d_17">
      <g>
       <use xlink:href="#m0aa8cb60d0" x="43.04" y="192.244579" style="stroke: #000000; stroke-width: 0.8"/>
      </g>
     </g>
     <g id="text_9">
      <text style="font: 10px 'Arial'; text-anchor: end" x="36.04" y="195.823485" transform="rotate(-0, 36.04, 195.823485)">4</text>
     </g>
    </g>
    <g id="ytick_4">
     <g id="line2d_18">
      <g>
       <use xlink:href="#m0aa8cb60d0" x="43.04" y="165.346868" style="stroke: #000000; stroke-width: 0.8"/>
      </g>
     </g>
     <g id="text_10">
      <text style="font: 10px 'Arial'; text-anchor: end" x="36.04" y="168.925774" transform="rotate(-0, 36.04, 168.925774)">6</text>
     </g>
    </g>
    <g id="ytick_5">
     <g id="line2d_19">
      <g>
       <use xlink:href="#m0aa8cb60d0" x="43.04" y="138.449158" style="stroke: #000000; stroke-width: 0.8"/>
      </g>
     </g>
     <g id="text_11">
      <text style="font: 10px 'Arial'; text-anchor: end" x="36.04" y="142.028064" transform="rotate(-0, 36.04, 142.028064)">8</text>
     </g>
    </g>
    <g id="ytick_6">
     <g id="line2d_20">
      <g>
       <use xlink:href="#m0aa8cb60d0" x="43.04" y="111.551447" style="stroke: #000000; stroke-width: 0.8"/>
      </g>
     </g>
     <g id="text_12">
      <text style="font: 10px 'Arial'; text-anchor: end" x="36.04" y="115.130353" transform="rotate(-0, 36.04, 115.130353)">10</text>
     </g>
    </g>
    <g id="ytick_7">
     <g id="line2d_21">
      <g>
       <use xlink:href="#m0aa8cb60d0" x="43.04" y="84.653736" style="stroke: #000000; stroke-width: 0.8"/>
      </g>
     </g>
     <g id="text_13">
      <text style="font: 10px 'Arial'; text-anchor: end" x="36.04" y="88.232643" transform="rotate(-0, 36.04, 88.232643)">12</text>
     </g>
    </g>
    <g id="ytick_8">
     <g id="line2d_22">
      <g>
       <use xlink:href="#m0aa8cb60d0" x="43.04" y="57.756026" style="stroke: #000000; stroke-width: 0.8"/>
      </g>
     </g>
     <g id="text_14">
      <text style="font: 10px 'Arial'; text-anchor: end" x="36.04" y="61.334932" transform="rotate(-0, 36.04, 61.334932)">14</text>
     </g>
    </g>
    <g id="ytick_9">
     <g id="line2d_23">
      <g>
       <use xlink:href="#m0aa8cb60d0" x="43.04" y="30.858315" style="stroke: #000000; stroke-width: 0.8"/>
      </g>
     </g>
     <g id="text_15">
      <text style="font: 10px 'Arial'; text-anchor: end" x="36.04" y="34.437222" transform="rotate(-0, 36.04, 34.437222)">16</text>
     </g>
    </g>
    <g id="text_16">
     <text style="font: 11px 'Arial'; text-anchor: middle" x="18.602969" y="135.768125" transform="rotate(-90, 18.602969, 135.768125)">Time per Entity [ns]</text>
    </g>
   </g>
   <g id="line2d_24">
    <path d="M 60.229091 218.147074 
L 146.174545 219.24988 
L 232.12 218.456398 
L 318.065455 219.196085 
L 404.010909 217.810853 
" clip-path="url(#pc18d567e11)" style="fill: none; stroke-dasharray: 1,1.65; stroke-dashoffset: 0; stroke: #000000"/>
    <defs>
     <path id="mef883ffe8d" d="M 0 1.5 
C 0.397805 1.5 0.77937 1.341951 1.06066 1.06066 
C 1.341951 0.77937 1.5 0.397805 1.5 0 
C 1.5 -0.397805 1.341951 -0.77937 1.06066 -1.06066 
C 0.77937 -1.341951 0.397805 -1.5 0 -1.5 
C -0.397805 -1.5 -0.77937 -1.341951 -1.06066 -1.06066 
C -1.341951 -0.77937 -1.5 -0.397805 -1.5 0 
C -1.5 0.397805 -1.341951 0.77937 -1.06066 1.06066 
C -0.77937 1.341951 -0.397805 1.5 0 1.5 
z
" style="stroke: #000000"/>
    </defs>
    <g clip-path="url(#pc18d567e11)">
     <use xlink:href="#mef883ffe8d" x="60.229091" y="218.147074" style="stroke: #000000"/>
     <use xlink:href="#mef883ffe8d" x="146.174545" y="219.24988" style="stroke: #000000"/>
     <use xlink:href="#mef883ffe8d" x="232.12" y="218.456398" style="stroke: #000000"/>
     <use xlink:href="#mef883ffe8d" x="318.065455" y="219.196085" style="stroke: #000000"/>
     <use xlink:href="#mef883ffe8d" x="404.010909" y="217.810853" style="stroke: #000000"/>
    </g>
   </g>
   <g id="line2d_25">
    <path d="M 60.229091 219.053527 
L 146.174545 219.695037 
L 232.12 219.966704 
L 318.065455 219.829526 
L 404.010909 219.829526 
" clip-path="url(#pc18d567e11)" style="fill: none; stroke-dasharray: 4.44,1.92; stroke-dashoffset: 0; stroke: #000000; stroke-width: 1.2"/>
    <g clip-path="url(#pc18d567e11)">
     <use xlink:href="#mef883ffe8d" x="60.229091" y="219.053527" style="stroke: #000000"/>
     <use xlink:href="#mef883ffe8d" x="146.174545" y="219.695037" style="stroke: #000000"/>
     <use xlink:href="#mef883ffe8d" x="232.12" y="219.966704" style="stroke: #000000"/>
     <use xlink:href="#mef883ffe8d" x="318.065455" y="219.829526" style="stroke: #000000"/>
     <use xlink:href="#mef883ffe8d" x="404.010909" y="219.829526" style="stroke: #000000"/>
    </g>
   </g>
   <g id="line2d_26">
    <path d="M 60.229091 219.734846 
L 146.174545 219.394993 
L 232.12 219.556918 
L 318.065455 219.583681 
L 404.010909 216.863515 
" clip-path="url(#pc18d567e11)" style="fill: none; stroke: #000000; stroke-width: 1.5; stroke-linecap: square"/>
    <g clip-path="url(#pc18d567e11)">
     <use xlink:href="#mef883ffe8d" x="60.229091" y="219.734846" style="stroke: #000000"/>
     <use xlink:href="#mef883ffe8d" x="146.174545" y="219.394993" style="stroke: #000000"/>
     <use xlink:href="#mef883ffe8d" x="232.12" y="219.556918" style="stroke: #000000"/>
     <use xlink:href="#mef883ffe8d" x="318.065455" y="219.583681" style="stroke: #000000"/>
     <use xlink:href="#mef883ffe8d" x="404.010909" y="216.863515" style="stroke: #000000"/>
    </g>
   </g>
   <g id="line2d_27">
    <path d="M 60.229091 242.494882 
L 146.174545 238.952453 
L 232.12 217.73016 
L 318.065455 188.142678 
L 404.010909 147.957498 
" clip-path="url(#pc18d567e11)" style="fill: none; stroke-dasharray: 1,1.65; stroke-dashoffset: 0; stroke: #ff0000"/>
    <defs>
     <path id="m42e0f5be14" d="M 0 1.5 
C 0.397805 1.5 0.77937 1.341951 1.06066 1.06066 
C 1.341951 0.77937 1.5 0.397805 1.5 0 
C 1.5 -0.397805 1.341951 -0.77937 1.06066 -1.06066 
C 0.77937 -1.341951 0.397805 -1.5 0 -1.5 
C -0.397805 -1.5 -0.77937 -1.341951 -1.06066 -1.06066 
C -1.341951 -0.77937 -1.5 -0.397805 -1.5 0 
C -1.5 0.397805 -1.341951 0.77937 -1.06066 1.06066 
C -0.77937 1.341951 -0.397805 1.5 0 1.5 
z
" style="stroke: #ff0000"/>
    </defs>
    <g clip-path="url(#pc18d567e11)">
     <use xlink:href="#m42e0f5be14" x="60.229091" y="242.494882" style="fill: #ff0000; stroke: #ff0000"/>
     <use xlink:href="#m42e0f5be14" x="146.174545" y="238.952453" style="fill: #ff0000; stroke: #ff0000"/>
     <use xlink:href="#m42e0f5be14" x="232.12" y="217.73016" style="fill: #ff0000; stroke: #ff0000"/>
     <use xlink:href="#m42e0f5be14" x="318.065455" y="188.142678" style="fill: #ff0000; stroke: #ff0000"/>
     <use xlink:href="#m42e0f5be14" x="404.010909" y="147.957498" style="fill: #ff0000; stroke: #ff0000"/>
    </g>
   </g>
   <g id="line2d_28">
    <path d="M 60.229091 242.611887 
L 146.174545 239.05063 
L 232.12 213.811163 
L 318.065455 182.605784 
L 404.010909 137.661055 
" clip-path="url(#pc18d567e11)" style="fill: none; stroke-dasharray: 4.44,1.92; stroke-dashoffset: 0; stroke: #ff0000; stroke-width: 1.2"/>
    <g clip-path="url(#pc18d567e11)">
     <use xlink:href="#m42e0f5be14" x="60.229091" y="242.611887" style="fill: #ff0000; stroke: #ff0000"/>
     <use xlink:href="#m42e0f5be14" x="146.174545" y="239.05063" style="fill: #ff0000; stroke: #ff0000"/>
     <use xlink:href="#m42e0f5be14" x="232.12" y="213.811163" style="fill: #ff0000; stroke: #ff0000"/>
     <use xlink:href="#m42e0f5be14" x="318.065455" y="182.605784" style="fill: #ff0000; stroke: #ff0000"/>
     <use xlink:href="#m42e0f5be14" x="404.010909" y="137.661055" style="fill: #ff0000; stroke: #ff0000"/>
    </g>
   </g>
   <g id="line2d_29">
    <path d="M 60.229091 242.628832 
L 146.174545 239.111957 
L 232.12 210.175803 
L 318.065455 136.390003 
L 404.010909 35.998333 
" clip-path="url(#pc18d567e11)" style="fill: none; stroke: #ff0000; stroke-width: 1.5; stroke-linecap: square"/>
    <g clip-path="url(#pc18d567e11)">
     <use xlink:href="#m42e0f5be14" x="60.229091" y="242.628832" style="fill: #ff0000; stroke: #ff0000"/>
     <use xlink:href="#m42e0f5be14" x="146.174545" y="239.111957" style="fill: #ff0000; stroke: #ff0000"/>
     <use xlink:href="#m42e0f5be14" x="232.12" y="210.175803" style="fill: #ff0000; stroke: #ff0000"/>
     <use xlink:href="#m42e0f5be14" x="318.065455" y="136.390003" style="fill: #ff0000; stroke: #ff0000"/>
     <use xlink:href="#m42e0f5be14" x="404.010909" y="35.998333" style="fill: #ff0000; stroke: #ff0000"/>
    </g>
   </g>
   <g id="line2d_30">
    <path d="M 60.229091 236.932435 
L 146.174545 234.322012 
L 232.12 232.214577 
L 318.065455 227.588171 
L 404.010909 223.445923 
" clip-path="url(#pc18d567e11)" style="fill: none; stroke-dasharray: 1,1.65; stroke-dashoffset: 0; stroke: #0000ff"/>
    <defs>
     <path id="m691debf36c" d="M 0 1.5 
C 0.397805 1.5 0.77937 1.341951 1.06066 1.06066 
C 1.341951 0.77937 1.5 0.397805 1.5 0 
C 1.5 -0.397805 1.341951 -0.77937 1.06066 -1.06066 
C 0.77937 -1.341951 0.397805 -1.5 0 -1.5 
C -0.397805 -1.5 -0.77937 -1.341951 -1.06066 -1.06066 
C -1.341951 -0.77937 -1.5 -0.397805 -1.5 0 
C -1.5 0.397805 -1.341951 0.77937 -1.06066 1.06066 
C -0.77937 1.341951 -0.397805 1.5 0 1.5 
z
" style="stroke: #0000ff"/>
    </defs>
    <g clip-path="url(#pc18d567e11)">
     <use xlink:href="#m691debf36c" x="60.229091" y="236.932435" style="fill: #0000ff; stroke: #0000ff"/>
     <use xlink:href="#m691debf36c" x="146.174545" y="234.322012" style="fill: #0000ff; stroke: #0000ff"/>
     <use xlink:href="#m691debf36c" x="232.12" y="232.214577" style="fill: #0000ff; stroke: #0000ff"/>
     <use xlink:href="#m691debf36c" x="318.065455" y="227.588171" style="fill: #0000ff; stroke: #0000ff"/>
     <use xlink:href="#m691debf36c" x="404.010909" y="223.445923" style="fill: #0000ff; stroke: #0000ff"/>
    </g>
   </g>
   <g id="line2d_31">
    <path d="M 60.229091 234.363704 
L 146.174545 231.129254 
L 232.12 221.896615 
L 318.065455 208.225854 
L 404.010909 201.232449 
" clip-path="url(#pc18d567e11)" style="fill: none; stroke-dasharray: 4.44,1.92; stroke-dashoffset: 0; stroke: #0000ff; stroke-width: 1.2"/>
    <g clip-path="url(#pc18d567e11)">
     <use xlink:href="#m691debf36c" x="60.229091" y="234.363704" style="fill: #0000ff; stroke: #0000ff"/>
     <use xlink:href="#m691debf36c" x="146.174545" y="231.129254" style="fill: #0000ff; stroke: #0000ff"/>
     <use xlink:href="#m691debf36c" x="232.12" y="221.896615" style="fill: #0000ff; stroke: #0000ff"/>
     <use xlink:href="#m691debf36c" x="318.065455" y="208.225854" style="fill: #0000ff; stroke: #0000ff"/>
     <use xlink:href="#m691debf36c" x="404.010909" y="201.232449" style="fill: #0000ff; stroke: #0000ff"/>
    </g>
   </g>
   <g id="line2d_32">
    <path d="M 60.229091 232.979279 
L 146.174545 230.09961 
L 232.12 215.570408 
L 318.065455 170.688216 
L 404.010909 123.424634 
" clip-path="url(#pc18d567e11)" style="fill: none; stroke: #0000ff; stroke-width: 1.5; stroke-linecap: square"/>
    <g clip-path="url(#pc18d567e11)">
     <use xlink:href="#m691debf36c" x="60.229091" y="232.979279" style="fill: #0000ff; stroke: #0000ff"/>
     <use xlink:href="#m691debf36c" x="146.174545" y="230.09961" style="fill: #0000ff; stroke: #0000ff"/>
     <use xlink:href="#m691debf36c" x="232.12" y="215.570408" style="fill: #0000ff; stroke: #0000ff"/>
     <use xlink:href="#m691debf36c" x="318.065455" y="170.688216" style="fill: #0000ff; stroke: #0000ff"/>
     <use xlink:href="#m691debf36c" x="404.010909" y="123.424634" style="fill: #0000ff; stroke: #0000ff"/>
    </g>
   </g>
   <g id="line2d_33">
    <path clip-path="url(#pc18d567e11)" style="fill: none; stroke: #000000; stroke-width: 1.5; stroke-linecap: square"/>
   </g>
   <g id="line2d_34">
    <path clip-path="url(#pc18d567e11)" style="fill: none; stroke-dasharray: 4.44,1.92; stroke-dashoffset: 0; stroke: #000000; stroke-width: 1.2"/>
   </g>
   <g id="line2d_35">
    <path clip-path="url(#pc18d567e11)" style="fill: none; stroke-dasharray: 1,1.65; stroke-dashoffset: 0; stroke: #000000"/>
   </g>
   <g id="patch_3">
    <path d="M 43.04 246.04 
L 43.04 25.49625 
" style="fill: none; stroke: #000000; stroke-width: 0.8; stroke-linejoin: miter; stroke-linecap: square"/>
   </g>
   <g id="patch_4">
    <path d="M 421.2 246.04 
L 421.2 25.49625 
" style="fill: none; stroke: #000000; stroke-width: 0.8; stroke-linejoin: miter; stroke-linecap: square"/>
   </g>
   <g id="patch_5">
    <path d="M 43.04 246.04 
L 421.2 246.04 
" style="fill: none; stroke: #000000; stroke-width: 0.8; stroke-linejoin: miter; stroke-linecap: square"/>
   </g>
   <g id="patch_6">
    <path d="M 43.04 25.49625 
L 421.2 25.49625 
" style="fill: none; stroke: #000000; stroke-width: 0.8; stroke-linejoin: miter; stroke-linecap: square"/>
   </g>
   <g id="text_17">
    <text style="font: 12px 'Arial'; text-anchor: middle" x="232.12" y="19.49625" transform="rotate(-0, 232.12, 19.49625)">Iter &amp; get 16 byte</text>
   </g>
   <g id="legend_1">
    <g id="patch_7">
     <path d="M 50.04 118.368125 
L 138.18375 118.368125 
Q 140.18375 118.368125 140.18375 116.368125 
L 140.18375 32.49625 
Q 140.18375 30.49625 138.18375 30.49625 
L 50.04 30.49625 
Q 48.04 30.49625 48.04 32.49625 
L 48.04 116.368125 
Q 48.04 118.368125 50.04 118.368125 
z
" style="fill: #ffffff; opacity: 0.8; stroke: #cccccc; stroke-linejoin: miter"/>
    </g>
    <g id="line2d_36">
     <path d="M 52.04 38.154062 
L 62.04 38.154062 
L 72.04 38.154062 
" style="fill: none; stroke: #000000; stroke-width: 1.5; stroke-linecap: square"/>
     <g>
      <use xlink:href="#mef883ffe8d" x="62.04" y="38.154062" style="stroke: #000000"/>
     </g>
    </g>
    <g id="text_18">
     <text style="font: 10px 'Arial'; text-anchor: start" x="80.04" y="41.654062" transform="rotate(-0, 80.04, 41.654062)">Arche</text>
    </g>
    <g id="line2d_37">
     <path d="M 52.04 52.299375 
L 62.04 52.299375 
L 72.04 52.299375 
" style="fill: none; stroke: #ff0000; stroke-width: 1.5; stroke-linecap: square"/>
     <g>
      <use xlink:href="#m42e0f5be14" x="62.04" y="52.299375" style="fill: #ff0000; stroke: #ff0000"/>
     </g>
    </g>
    <g id="text_19">
     <text style="font: 10px 'Arial'; text-anchor: start" x="80.04" y="55.799375" transform="rotate(-0, 80.04, 55.799375)">AoS</text>
    </g>
    <g id="line2d_38">
     <path d="M 52.04 66.444687 
L 62.04 66.444687 
L 72.04 66.444687 
" style="fill: none; stroke: #0000ff; stroke-width: 1.5; stroke-linecap: square"/>
     <g>
      <use xlink:href="#m691debf36c" x="62.04" y="66.444687" style="fill: #0000ff; stroke: #0000ff"/>
     </g>
    </g>
    <g id="text_20">
     <text style="font: 10px 'Arial'; text-anchor: start" x="80.04" y="69.944687" transform="rotate(-0, 80.04, 69.944687)">AoP</text>
    </g>
    <g id="line2d_39">
     <path d="M 52.04 80.59 
L 62.04 80.59 
L 72.04 80.59 
" style="fill: none; stroke: #000000; stroke-width: 1.5; stroke-linecap: square"/>
    </g>
    <g id="text_21">
     <text style="font: 10px 'Arial'; text-anchor: start" x="80.04" y="84.09" transform="rotate(-0, 80.04, 84.09)">100k entities</text>
    </g>
    <g id="line2d_40">
     <path d="M 52.04 94.735312 
L 62.04 94.735312 
L 72.04 94.735312 
" style="fill: none; stroke-dasharray: 4.44,1.92; stroke-dashoffset: 0; stroke: #000000; stroke-width: 1.2"/>
    </g>
    <g id="text_22">
     <text style="font: 10px 'Arial'; text-anchor: start" x="80.04" y="98.235312" transform="rotate(-0, 80.04, 98.235312)">10k entities</text>
    </g>
    <g id="line2d_41">
     <path d="M 52.04 108.880625 
L 62.04 108.880625 
L 72.04 108.880625 
" style="fill: none; stroke-dasharray: 1,1.65; stroke-dashoffset: 0; stroke: #000000"/>
    </g>
    <g id="text_23">
     <text style="font: 10px 'Arial'; text-anchor: start" x="80.04" y="112.380625" transform="rotate(-0, 80.04, 112.380625)">1k entities</text>
    </g>
   </g>
  </g>
 </g>
 <defs>
  <clipPath id="pc18d567e11">
   <rect x="43.04" y="25.49625" width="378.16" height="220.54375"/>
  </clipPath>
 </defs>
</svg>
