<?xml version="1.0" encoding="utf-8" standalone="no"?>
<!DOCTYPE svg PUBLIC "-//W3C//DTD SVG 1.1//EN"
  "http://www.w3.org/Graphics/SVG/1.1/DTD/svg11.dtd">
<svg xmlns:xlink="http://www.w3.org/1999/xlink" width="432pt" height="288pt" viewBox="0 0 432 288" xmlns="http://www.w3.org/2000/svg" version="1.1">
 <metadata>
  <rdf:RDF xmlns:dc="http://purl.org/dc/elements/1.1/" xmlns:cc="http://creativecommons.org/ns#" xmlns:rdf="http://www.w3.org/1999/02/22-rdf-syntax-ns#">
   <cc:Work>
    <dc:type rdf:resource="http://purl.org/dc/dcmitype/StillImage"/>
    <dc:date>2023-03-17T13:55:08.789710</dc:date>
    <dc:format>image/svg+xml</dc:format>
    <dc:creator>
     <cc:Agent>
      <dc:title>Matplotlib v3.5.1, https://matplotlib.org/</dc:title>
     </cc:Agent>
    </dc:creator>
   </cc:Work>
  </rdf:RDF>
 </metadata>
 <defs>
  <style type="text/css">*{stroke-linejoin: round; stroke-linecap: butt}</style>
 </defs>
 <g id="figure_1">
  <g id="patch_1">
   <path d="M 0 288 
L 432 288 
L 432 0 
L 0 0 
z
" style="fill: #ffffff"/>
  </g>
  <g id="axes_1">
   <g id="patch_2">
    <path d="M 43.04 246.04 
L 421.2 246.04 
L 421.2 25.49625 
L 43.04 25.49625 
z
" style="fill: #ffffff"/>
   </g>
   <g id="matplotlib.axis_1">
    <g id="xtick_1">
     <g id="line2d_1">
      <defs>
       <path id="me5befe7776" d="M 0 0 
L 0 3.5 
" style="stroke: #000000; stroke-width: 0.8"/>
      </defs>
      <g>
       <use xlink:href="#me5befe7776" x="60.229091" y="246.04" style="stroke: #000000; stroke-width: 0.8"/>
      </g>
     </g>
     <g id="text_1">
      <text style="font: 10px 'Arial'; text-anchor: middle" x="60.229091" y="260.197812" transform="rotate(-0, 60.229091, 260.197812)">16</text>
     </g>
    </g>
    <g id="xtick_2">
     <g id="line2d_2">
      <g>
       <use xlink:href="#me5befe7776" x="146.174545" y="246.04" style="stroke: #000000; stroke-width: 0.8"/>
      </g>
     </g>
     <g id="text_2">
      <text style="font: 10px 'Arial'; text-anchor: middle" x="146.174545" y="260.197812" transform="rotate(-0, 146.174545, 260.197812)">32</text>
     </g>
    </g>
    <g id="xtick_3">
     <g id="line2d_3">
      <g>
       <use xlink:href="#me5befe7776" x="232.12" y="246.04" style="stroke: #000000; stroke-width: 0.8"/>
      </g>
     </g>
     <g id="text_3">
      <text style="font: 10px 'Arial'; text-anchor: middle" x="232.12" y="260.197812" transform="rotate(-0, 232.12, 260.197812)">64</text>
     </g>
    </g>
    <g id="xtick_4">
     <g id="line2d_4">
      <g>
       <use xlink:href="#me5befe7776" x="318.065455" y="246.04" style="stroke: #000000; stroke-width: 0.8"/>
      </g>
     </g>
     <g id="text_4">
      <text style="font: 10px 'Arial'; text-anchor: middle" x="318.065455" y="260.197812" transform="rotate(-0, 318.065455, 260.197812)">128</text>
     </g>
    </g>
    <g id="xtick_5">
     <g id="line2d_5">
      <g>
       <use xlink:href="#me5befe7776" x="404.010909" y="246.04" style="stroke: #000000; stroke-width: 0.8"/>
      </g>
     </g>
     <g id="text_5">
      <text style="font: 10px 'Arial'; text-anchor: middle" x="404.010909" y="260.197812" transform="rotate(-0, 404.010909, 260.197812)">256</text>
     </g>
    </g>
    <g id="xtick_6">
     <g id="line2d_6">
      <defs>
       <path id="mc347715041" d="M 0 0 
L 0 2 
" style="stroke: #000000; stroke-width: 0.6"/>
      </defs>
      <g>
       <use xlink:href="#mc347715041" x="87.897347" y="246.04" style="stroke: #000000; stroke-width: 0.6"/>
      </g>
     </g>
    </g>
    <g id="xtick_7">
     <g id="line2d_7">
      <g>
       <use xlink:href="#mc347715041" x="138.172215" y="246.04" style="stroke: #000000; stroke-width: 0.6"/>
      </g>
     </g>
    </g>
    <g id="xtick_8">
     <g id="line2d_8">
      <g>
       <use xlink:href="#mc347715041" x="173.842802" y="246.04" style="stroke: #000000; stroke-width: 0.6"/>
      </g>
     </g>
    </g>
    <g id="xtick_9">
     <g id="line2d_9">
      <g>
       <use xlink:href="#mc347715041" x="201.511058" y="246.04" style="stroke: #000000; stroke-width: 0.6"/>
      </g>
     </g>
    </g>
    <g id="xtick_10">
     <g id="line2d_10">
      <g>
       <use xlink:href="#mc347715041" x="224.11767" y="246.04" style="stroke: #000000; stroke-width: 0.6"/>
      </g>
     </g>
    </g>
    <g id="xtick_11">
     <g id="line2d_11">
      <g>
       <use xlink:href="#mc347715041" x="243.231288" y="246.04" style="stroke: #000000; stroke-width: 0.6"/>
      </g>
     </g>
    </g>
    <g id="xtick_12">
     <g id="line2d_12">
      <g>
       <use xlink:href="#mc347715041" x="259.788256" y="246.04" style="stroke: #000000; stroke-width: 0.6"/>
      </g>
     </g>
    </g>
    <g id="xtick_13">
     <g id="line2d_13">
      <g>
       <use xlink:href="#mc347715041" x="274.392538" y="246.04" style="stroke: #000000; stroke-width: 0.6"/>
      </g>
     </g>
    </g>
    <g id="xtick_14">
     <g id="line2d_14">
      <g>
       <use xlink:href="#mc347715041" x="373.401967" y="246.04" style="stroke: #000000; stroke-width: 0.6"/>
      </g>
     </g>
    </g>
    <g id="text_6">
     <text style="font: 10px 'Arial'; text-anchor: middle" x="232.12" y="273.465" transform="rotate(-0, 232.12, 273.465)">Components [Bytes]</text>
    </g>
   </g>
   <g id="matplotlib.axis_2">
    <g id="ytick_1">
     <g id="line2d_15">
      <defs>
       <path id="m8f50701255" d="M 0 0 
L -3.5 0 
" style="stroke: #000000; stroke-width: 0.8"/>
      </defs>
      <g>
       <use xlink:href="#m8f50701255" x="43.04" y="246.04" style="stroke: #000000; stroke-width: 0.8"/>
      </g>
     </g>
     <g id="text_7">
      <text style="font: 10px 'Arial'; text-anchor: end" x="36.04" y="249.618906" transform="rotate(-0, 36.04, 249.618906)">0</text>
     </g>
    </g>
    <g id="ytick_2">
     <g id="line2d_16">
      <g>
       <use xlink:href="#m8f50701255" x="43.04" y="219.502415" style="stroke: #000000; stroke-width: 0.8"/>
      </g>
     </g>
     <g id="text_8">
      <text style="font: 10px 'Arial'; text-anchor: end" x="36.04" y="223.081321" transform="rotate(-0, 36.04, 223.081321)">2</text>
     </g>
    </g>
    <g id="ytick_3">
     <g id="line2d_17">
      <g>
       <use xlink:href="#m8f50701255" x="43.04" y="192.96483" style="stroke: #000000; stroke-width: 0.8"/>
      </g>
     </g>
     <g id="text_9">
      <text style="font: 10px 'Arial'; text-anchor: end" x="36.04" y="196.543737" transform="rotate(-0, 36.04, 196.543737)">4</text>
     </g>
    </g>
    <g id="ytick_4">
     <g id="line2d_18">
      <g>
       <use xlink:href="#m8f50701255" x="43.04" y="166.427246" style="stroke: #000000; stroke-width: 0.8"/>
      </g>
     </g>
     <g id="text_10">
      <text style="font: 10px 'Arial'; text-anchor: end" x="36.04" y="170.006152" transform="rotate(-0, 36.04, 170.006152)">6</text>
     </g>
    </g>
    <g id="ytick_5">
     <g id="line2d_19">
      <g>
       <use xlink:href="#m8f50701255" x="43.04" y="139.889661" style="stroke: #000000; stroke-width: 0.8"/>
      </g>
     </g>
     <g id="text_11">
      <text style="font: 10px 'Arial'; text-anchor: end" x="36.04" y="143.468567" transform="rotate(-0, 36.04, 143.468567)">8</text>
     </g>
    </g>
    <g id="ytick_6">
     <g id="line2d_20">
      <g>
       <use xlink:href="#m8f50701255" x="43.04" y="113.352076" style="stroke: #000000; stroke-width: 0.8"/>
      </g>
     </g>
     <g id="text_12">
      <text style="font: 10px 'Arial'; text-anchor: end" x="36.04" y="116.930982" transform="rotate(-0, 36.04, 116.930982)">10</text>
     </g>
    </g>
    <g id="ytick_7">
     <g id="line2d_21">
      <g>
       <use xlink:href="#m8f50701255" x="43.04" y="86.814491" style="stroke: #000000; stroke-width: 0.8"/>
      </g>
     </g>
     <g id="text_13">
      <text style="font: 10px 'Arial'; text-anchor: end" x="36.04" y="90.393397" transform="rotate(-0, 36.04, 90.393397)">12</text>
     </g>
    </g>
    <g id="ytick_8">
     <g id="line2d_22">
      <g>
       <use xlink:href="#m8f50701255" x="43.04" y="60.276906" style="stroke: #000000; stroke-width: 0.8"/>
      </g>
     </g>
     <g id="text_14">
      <text style="font: 10px 'Arial'; text-anchor: end" x="36.04" y="63.855812" transform="rotate(-0, 36.04, 63.855812)">14</text>
     </g>
    </g>
    <g id="ytick_9">
     <g id="line2d_23">
      <g>
       <use xlink:href="#m8f50701255" x="43.04" y="33.739321" style="stroke: #000000; stroke-width: 0.8"/>
      </g>
     </g>
     <g id="text_15">
      <text style="font: 10px 'Arial'; text-anchor: end" x="36.04" y="37.318228" transform="rotate(-0, 36.04, 37.318228)">16</text>
     </g>
    </g>
    <g id="text_16">
     <text style="font: 10px 'Arial'; text-anchor: middle" x="18.930625" y="135.768125" transform="rotate(-90, 18.930625, 135.768125)">Time/op [ns]</text>
    </g>
   </g>
   <g id="line2d_24">
    <path d="M 60.229091 213.717222 
L 146.174545 215.627928 
L 232.12 214.8318 
L 318.065455 215.123714 
L 404.010909 216.211755 
" clip-path="url(#p8a048c6509)" style="fill: none; stroke-dasharray: 1,1.65; stroke-dashoffset: 0; stroke: #000000"/>
    <defs>
     <path id="m4224f5cc9f" d="M 0 1.5 
C 0.397805 1.5 0.77937 1.341951 1.06066 1.06066 
C 1.341951 0.77937 1.5 0.397805 1.5 0 
C 1.5 -0.397805 1.341951 -0.77937 1.06066 -1.06066 
C 0.77937 -1.341951 0.397805 -1.5 0 -1.5 
C -0.397805 -1.5 -0.77937 -1.341951 -1.06066 -1.06066 
C -1.341951 -0.77937 -1.5 -0.397805 -1.5 0 
C -1.5 0.397805 -1.341951 0.77937 -1.06066 1.06066 
C -0.77937 1.341951 -0.397805 1.5 0 1.5 
z
" style="stroke: #000000"/>
    </defs>
    <g clip-path="url(#p8a048c6509)">
     <use xlink:href="#m4224f5cc9f" x="60.229091" y="213.717222" style="stroke: #000000"/>
     <use xlink:href="#m4224f5cc9f" x="146.174545" y="215.627928" style="stroke: #000000"/>
     <use xlink:href="#m4224f5cc9f" x="232.12" y="214.8318" style="stroke: #000000"/>
     <use xlink:href="#m4224f5cc9f" x="318.065455" y="215.123714" style="stroke: #000000"/>
     <use xlink:href="#m4224f5cc9f" x="404.010909" y="216.211755" style="stroke: #000000"/>
    </g>
   </g>
   <g id="line2d_25">
    <path d="M 60.229091 215.133002 
L 146.174545 215.842882 
L 232.12 216.650952 
L 318.065455 216.024665 
L 404.010909 216.182563 
" clip-path="url(#p8a048c6509)" style="fill: none; stroke-dasharray: 4.44,1.92; stroke-dashoffset: 0; stroke: #000000; stroke-width: 1.2"/>
    <g clip-path="url(#p8a048c6509)">
     <use xlink:href="#m4224f5cc9f" x="60.229091" y="215.133002" style="stroke: #000000"/>
     <use xlink:href="#m4224f5cc9f" x="146.174545" y="215.842882" style="stroke: #000000"/>
     <use xlink:href="#m4224f5cc9f" x="232.12" y="216.650952" style="stroke: #000000"/>
     <use xlink:href="#m4224f5cc9f" x="318.065455" y="216.024665" style="stroke: #000000"/>
     <use xlink:href="#m4224f5cc9f" x="404.010909" y="216.182563" style="stroke: #000000"/>
    </g>
   </g>
   <g id="line2d_26">
    <path d="M 60.229091 215.998923 
L 146.174545 215.570607 
L 232.12 216.28951 
L 318.065455 216.267616 
L 404.010909 213.614521 
" clip-path="url(#p8a048c6509)" style="fill: none; stroke: #000000; stroke-width: 1.5; stroke-linecap: square"/>
    <g clip-path="url(#p8a048c6509)">
     <use xlink:href="#m4224f5cc9f" x="60.229091" y="215.998923" style="stroke: #000000"/>
     <use xlink:href="#m4224f5cc9f" x="146.174545" y="215.570607" style="stroke: #000000"/>
     <use xlink:href="#m4224f5cc9f" x="232.12" y="216.28951" style="stroke: #000000"/>
     <use xlink:href="#m4224f5cc9f" x="318.065455" y="216.267616" style="stroke: #000000"/>
     <use xlink:href="#m4224f5cc9f" x="404.010909" y="213.614521" style="stroke: #000000"/>
    </g>
   </g>
   <g id="line2d_27">
    <path d="M 60.229091 242.530404 
L 146.174545 242.547654 
L 232.12 218.003042 
L 318.065455 188.267678 
L 404.010909 147.824399 
" clip-path="url(#p8a048c6509)" style="fill: none; stroke-dasharray: 1,1.65; stroke-dashoffset: 0; stroke: #ff0000"/>
    <defs>
     <path id="mc271286a3c" d="M 0 1.5 
C 0.397805 1.5 0.77937 1.341951 1.06066 1.06066 
C 1.341951 0.77937 1.5 0.397805 1.5 0 
C 1.5 -0.397805 1.341951 -0.77937 1.06066 -1.06066 
C 0.77937 -1.341951 0.397805 -1.5 0 -1.5 
C -0.397805 -1.5 -0.77937 -1.341951 -1.06066 -1.06066 
C -1.341951 -0.77937 -1.5 -0.397805 -1.5 0 
C -1.5 0.397805 -1.341951 0.77937 -1.06066 1.06066 
C -0.77937 1.341951 -0.397805 1.5 0 1.5 
z
" style="stroke: #ff0000"/>
    </defs>
    <g clip-path="url(#p8a048c6509)">
     <use xlink:href="#mc271286a3c" x="60.229091" y="242.530404" style="fill: #ff0000; stroke: #ff0000"/>
     <use xlink:href="#mc271286a3c" x="146.174545" y="242.547654" style="fill: #ff0000; stroke: #ff0000"/>
     <use xlink:href="#mc271286a3c" x="232.12" y="218.003042" style="fill: #ff0000; stroke: #ff0000"/>
     <use xlink:href="#mc271286a3c" x="318.065455" y="188.267678" style="fill: #ff0000; stroke: #ff0000"/>
     <use xlink:href="#mc271286a3c" x="404.010909" y="147.824399" style="fill: #ff0000; stroke: #ff0000"/>
    </g>
   </g>
   <g id="line2d_28">
    <path d="M 60.229091 242.621959 
L 146.174545 242.643189 
L 232.12 214.342182 
L 318.065455 181.264409 
L 404.010909 135.452577 
" clip-path="url(#p8a048c6509)" style="fill: none; stroke-dasharray: 4.44,1.92; stroke-dashoffset: 0; stroke: #ff0000; stroke-width: 1.2"/>
    <g clip-path="url(#p8a048c6509)">
     <use xlink:href="#mc271286a3c" x="60.229091" y="242.621959" style="fill: #ff0000; stroke: #ff0000"/>
     <use xlink:href="#mc271286a3c" x="146.174545" y="242.643189" style="fill: #ff0000; stroke: #ff0000"/>
     <use xlink:href="#mc271286a3c" x="232.12" y="214.342182" style="fill: #ff0000; stroke: #ff0000"/>
     <use xlink:href="#mc271286a3c" x="318.065455" y="181.264409" style="fill: #ff0000; stroke: #ff0000"/>
     <use xlink:href="#mc271286a3c" x="404.010909" y="135.452577" style="fill: #ff0000; stroke: #ff0000"/>
    </g>
   </g>
   <g id="line2d_29">
    <path d="M 60.229091 242.531864 
L 146.174545 242.610283 
L 232.12 207.404726 
L 318.065455 137.68598 
L 404.010909 35.998333 
" clip-path="url(#p8a048c6509)" style="fill: none; stroke: #ff0000; stroke-width: 1.5; stroke-linecap: square"/>
    <g clip-path="url(#p8a048c6509)">
     <use xlink:href="#mc271286a3c" x="60.229091" y="242.531864" style="fill: #ff0000; stroke: #ff0000"/>
     <use xlink:href="#mc271286a3c" x="146.174545" y="242.610283" style="fill: #ff0000; stroke: #ff0000"/>
     <use xlink:href="#mc271286a3c" x="232.12" y="207.404726" style="fill: #ff0000; stroke: #ff0000"/>
     <use xlink:href="#mc271286a3c" x="318.065455" y="137.68598" style="fill: #ff0000; stroke: #ff0000"/>
     <use xlink:href="#mc271286a3c" x="404.010909" y="35.998333" style="fill: #ff0000; stroke: #ff0000"/>
    </g>
   </g>
   <g id="line2d_30">
    <path d="M 60.229091 236.869938 
L 146.174545 234.218833 
L 232.12 231.550479 
L 318.065455 227.675991 
L 404.010909 220.139317 
" clip-path="url(#p8a048c6509)" style="fill: none; stroke-dasharray: 1,1.65; stroke-dashoffset: 0; stroke: #0000ff"/>
    <defs>
     <path id="mbe8f3a0055" d="M 0 1.5 
C 0.397805 1.5 0.77937 1.341951 1.06066 1.06066 
C 1.341951 0.77937 1.5 0.397805 1.5 0 
C 1.5 -0.397805 1.341951 -0.77937 1.06066 -1.06066 
C 0.77937 -1.341951 0.397805 -1.5 0 -1.5 
C -0.397805 -1.5 -0.77937 -1.341951 -1.06066 -1.06066 
C -1.341951 -0.77937 -1.5 -0.397805 -1.5 0 
C -1.5 0.397805 -1.341951 0.77937 -1.06066 1.06066 
C -0.77937 1.341951 -0.397805 1.5 0 1.5 
z
" style="stroke: #0000ff"/>
    </defs>
    <g clip-path="url(#p8a048c6509)">
     <use xlink:href="#mbe8f3a0055" x="60.229091" y="236.869938" style="fill: #0000ff; stroke: #0000ff"/>
     <use xlink:href="#mbe8f3a0055" x="146.174545" y="234.218833" style="fill: #0000ff; stroke: #0000ff"/>
     <use xlink:href="#mbe8f3a0055" x="232.12" y="231.550479" style="fill: #0000ff; stroke: #0000ff"/>
     <use xlink:href="#mbe8f3a0055" x="318.065455" y="227.675991" style="fill: #0000ff; stroke: #0000ff"/>
     <use xlink:href="#mbe8f3a0055" x="404.010909" y="220.139317" style="fill: #0000ff; stroke: #0000ff"/>
    </g>
   </g>
   <g id="line2d_31">
    <path d="M 60.229091 234.647415 
L 146.174545 231.279795 
L 232.12 221.734226 
L 318.065455 206.156664 
L 404.010909 201.289671 
" clip-path="url(#p8a048c6509)" style="fill: none; stroke-dasharray: 4.44,1.92; stroke-dashoffset: 0; stroke: #0000ff; stroke-width: 1.2"/>
    <g clip-path="url(#p8a048c6509)">
     <use xlink:href="#mbe8f3a0055" x="60.229091" y="234.647415" style="fill: #0000ff; stroke: #0000ff"/>
     <use xlink:href="#mbe8f3a0055" x="146.174545" y="231.279795" style="fill: #0000ff; stroke: #0000ff"/>
     <use xlink:href="#mbe8f3a0055" x="232.12" y="221.734226" style="fill: #0000ff; stroke: #0000ff"/>
     <use xlink:href="#mbe8f3a0055" x="318.065455" y="206.156664" style="fill: #0000ff; stroke: #0000ff"/>
     <use xlink:href="#mbe8f3a0055" x="404.010909" y="201.289671" style="fill: #0000ff; stroke: #0000ff"/>
    </g>
   </g>
   <g id="line2d_32">
    <path d="M 60.229091 233.185725 
L 146.174545 230.430593 
L 232.12 214.367791 
L 318.065455 170.69011 
L 404.010909 123.69165 
" clip-path="url(#p8a048c6509)" style="fill: none; stroke: #0000ff; stroke-width: 1.5; stroke-linecap: square"/>
    <g clip-path="url(#p8a048c6509)">
     <use xlink:href="#mbe8f3a0055" x="60.229091" y="233.185725" style="fill: #0000ff; stroke: #0000ff"/>
     <use xlink:href="#mbe8f3a0055" x="146.174545" y="230.430593" style="fill: #0000ff; stroke: #0000ff"/>
     <use xlink:href="#mbe8f3a0055" x="232.12" y="214.367791" style="fill: #0000ff; stroke: #0000ff"/>
     <use xlink:href="#mbe8f3a0055" x="318.065455" y="170.69011" style="fill: #0000ff; stroke: #0000ff"/>
     <use xlink:href="#mbe8f3a0055" x="404.010909" y="123.69165" style="fill: #0000ff; stroke: #0000ff"/>
    </g>
   </g>
   <g id="line2d_33">
    <path clip-path="url(#p8a048c6509)" style="fill: none; stroke: #000000; stroke-width: 1.5; stroke-linecap: square"/>
   </g>
   <g id="line2d_34">
    <path clip-path="url(#p8a048c6509)" style="fill: none; stroke-dasharray: 4.44,1.92; stroke-dashoffset: 0; stroke: #000000; stroke-width: 1.2"/>
   </g>
   <g id="line2d_35">
    <path clip-path="url(#p8a048c6509)" style="fill: none; stroke-dasharray: 1,1.65; stroke-dashoffset: 0; stroke: #000000"/>
   </g>
   <g id="patch_3">
    <path d="M 43.04 246.04 
L 43.04 25.49625 
" style="fill: none; stroke: #000000; stroke-width: 0.8; stroke-linejoin: miter; stroke-linecap: square"/>
   </g>
   <g id="patch_4">
    <path d="M 421.2 246.04 
L 421.2 25.49625 
" style="fill: none; stroke: #000000; stroke-width: 0.8; stroke-linejoin: miter; stroke-linecap: square"/>
   </g>
   <g id="patch_5">
    <path d="M 43.04 246.04 
L 421.2 246.04 
" style="fill: none; stroke: #000000; stroke-width: 0.8; stroke-linejoin: miter; stroke-linecap: square"/>
   </g>
   <g id="patch_6">
    <path d="M 43.04 25.49625 
L 421.2 25.49625 
" style="fill: none; stroke: #000000; stroke-width: 0.8; stroke-linejoin: miter; stroke-linecap: square"/>
   </g>
   <g id="text_17">
    <text style="font: 12px 'Arial'; text-anchor: middle" x="232.12" y="19.49625" transform="rotate(-0, 232.12, 19.49625)">Iter &amp; get 16B</text>
   </g>
   <g id="legend_1">
    <g id="patch_7">
     <path d="M 50.04 118.368125 
L 138.18375 118.368125 
Q 140.18375 118.368125 140.18375 116.368125 
L 140.18375 32.49625 
Q 140.18375 30.49625 138.18375 30.49625 
L 50.04 30.49625 
Q 48.04 30.49625 48.04 32.49625 
L 48.04 116.368125 
Q 48.04 118.368125 50.04 118.368125 
z
" style="fill: #ffffff; opacity: 0.8; stroke: #cccccc; stroke-linejoin: miter"/>
    </g>
    <g id="line2d_36">
     <path d="M 52.04 38.154062 
L 62.04 38.154062 
L 72.04 38.154062 
" style="fill: none; stroke: #000000; stroke-width: 1.5; stroke-linecap: square"/>
     <g>
      <use xlink:href="#m4224f5cc9f" x="62.04" y="38.154062" style="stroke: #000000"/>
     </g>
    </g>
    <g id="text_18">
     <text style="font: 10px 'Arial'; text-anchor: start" x="80.04" y="41.654062" transform="rotate(-0, 80.04, 41.654062)">Arche</text>
    </g>
    <g id="line2d_37">
     <path d="M 52.04 52.299375 
L 62.04 52.299375 
L 72.04 52.299375 
" style="fill: none; stroke: #ff0000; stroke-width: 1.5; stroke-linecap: square"/>
     <g>
      <use xlink:href="#mc271286a3c" x="62.04" y="52.299375" style="fill: #ff0000; stroke: #ff0000"/>
     </g>
    </g>
    <g id="text_19">
     <text style="font: 10px 'Arial'; text-anchor: start" x="80.04" y="55.799375" transform="rotate(-0, 80.04, 55.799375)">AoS</text>
    </g>
    <g id="line2d_38">
     <path d="M 52.04 66.444687 
L 62.04 66.444687 
L 72.04 66.444687 
" style="fill: none; stroke: #0000ff; stroke-width: 1.5; stroke-linecap: square"/>
     <g>
      <use xlink:href="#mbe8f3a0055" x="62.04" y="66.444687" style="fill: #0000ff; stroke: #0000ff"/>
     </g>
    </g>
    <g id="text_20">
     <text style="font: 10px 'Arial'; text-anchor: start" x="80.04" y="69.944687" transform="rotate(-0, 80.04, 69.944687)">AoP</text>
    </g>
    <g id="line2d_39">
     <path d="M 52.04 80.59 
L 62.04 80.59 
L 72.04 80.59 
" style="fill: none; stroke: #000000; stroke-width: 1.5; stroke-linecap: square"/>
    </g>
    <g id="text_21">
     <text style="font: 10px 'Arial'; text-anchor: start" x="80.04" y="84.09" transform="rotate(-0, 80.04, 84.09)">100k entities</text>
    </g>
    <g id="line2d_40">
     <path d="M 52.04 94.735312 
L 62.04 94.735312 
L 72.04 94.735312 
" style="fill: none; stroke-dasharray: 4.44,1.92; stroke-dashoffset: 0; stroke: #000000; stroke-width: 1.2"/>
    </g>
    <g id="text_22">
     <text style="font: 10px 'Arial'; text-anchor: start" x="80.04" y="98.235312" transform="rotate(-0, 80.04, 98.235312)">10k entities</text>
    </g>
    <g id="line2d_41">
     <path d="M 52.04 108.880625 
L 62.04 108.880625 
L 72.04 108.880625 
" style="fill: none; stroke-dasharray: 1,1.65; stroke-dashoffset: 0; stroke: #000000"/>
    </g>
    <g id="text_23">
     <text style="font: 10px 'Arial'; text-anchor: start" x="80.04" y="112.380625" transform="rotate(-0, 80.04, 112.380625)">1k entities</text>
    </g>
   </g>
  </g>
 </g>
 <defs>
  <clipPath id="p8a048c6509">
   <rect x="43.04" y="25.49625" width="378.16" height="220.54375"/>
  </clipPath>
 </defs>
</svg>
